<?xml version="1.0" encoding="UTF-8"?>
<!DOCTYPE svg PUBLIC "-//W3C//DTD SVG 1.1//EN" "http://www.w3.org/Graphics/SVG/1.1/DTD/svg11.dtd">
<!-- Creator: CorelDRAW -->
<svg xmlns="http://www.w3.org/2000/svg" xml:space="preserve" width="210mm" height="297mm" version="1.1" style="shape-rendering:geometricPrecision; text-rendering:geometricPrecision; image-rendering:optimizeQuality; fill-rule:evenodd; clip-rule:evenodd"
viewBox="0 0 21000 29700"
 xmlns:xlink="http://www.w3.org/1999/xlink">
 <defs>
  <style type="text/css">
   <![CDATA[
    .str4 {stroke:black;stroke-width:10;stroke-miterlimit:3.864;stroke-opacity:0.501961}
    .str0 {stroke:#2B2A29;stroke-width:75;stroke-miterlimit:22.9256}
    .str6 {stroke:black;stroke-width:50;stroke-miterlimit:22.9256}
    .str2 {stroke:#003399;stroke-width:20;stroke-miterlimit:22.9256}
    .str8 {stroke:#434242;stroke-width:10;stroke-miterlimit:22.9256}
    .str5 {stroke:#3F3E3F;stroke-width:10;stroke-miterlimit:3.864}
    .str3 {stroke:black;stroke-width:10;stroke-miterlimit:22.9256}
    .str1 {stroke:#003399;stroke-width:10;stroke-miterlimit:22.9256}
    .str9 {stroke:#2B2A29;stroke-width:7.62;stroke-miterlimit:22.9256}
    .str7 {stroke:black;stroke-width:7.62;stroke-miterlimit:22.9256}
    .fil2 {fill:none}
    .fil1 {fill:#FEFEFE}
    .fil9 {fill:#D9DADA}
    .fil0 {fill:#2B2A29}
    .fil6 {fill:#FEFEFE;fill-rule:nonzero}
    .fil5 {fill:#D9DADA;fill-rule:nonzero}
    .fil8 {fill:#434242;fill-rule:nonzero}
    .fil4 {fill:#2B2A29;fill-rule:nonzero}
    .fil7 {fill:black;fill-rule:nonzero}
    .fil3 {fill:#FEFEFE;fill-rule:nonzero;fill-opacity:0.501961}
   ]]>
  </style>
 </defs>
<symbol id="Symbole2" viewBox="10447.31 14797.31 105.38 105.38">
 <circle class="fil0" cx="10500" cy="14850" r="52.69"/>
</symbol>
<symbol id="Symbole1" viewBox="10371.93 14721.93 256.13 256.13">
 <circle class="fil1 str0" cx="10499.99" cy="14849.99" r="90.56"/>
</symbol>
 <g id="Plan_x0020_1">
  <metadata id="CorelCorpID_0Corel-Layer"/>
  <path class="fil1 str1" d="M2203.64 2166.63c-39.25,12.06 -69.85,27.08 -113.78,27.08 -42.89,0 -83.43,-11.4 -120.9,-11.4 -11.55,34.66 -7.64,81.34 -17.07,118.29 -10.34,40.53 -23.83,75.96 -35.56,111.17 -2.9,0 -2.11,-0.77 -2.84,1.43 -20.69,0 -54.04,-31.46 -61.16,-9.98 -26.2,79.07 -87.64,109.75 -169.25,109.75 0,39.87 6.34,32.54 22.75,65.56 9.04,18.17 38.32,-25.63 51.21,-31.36 27.76,-12.36 75.35,-42.25 98.14,-62.71 33.8,-30.36 52.41,-17.1 92.45,-17.1 2.98,-11.99 -4.02,-22.81 0,-38.48 11.59,-45.08 17.3,-129.24 48.35,-163.91 44.71,-49.9 97.65,-49.88 160.73,-49.88 2.75,8.26 14.24,21.43 17.06,29.93 20.21,0 15.38,-33.92 27.03,-45.61l2.84 -32.78zm1531.83 -1166.63c-3.05,19.01 -9.95,49.77 -9.95,66.33l-105.25 158.2c-21.1,31.71 -58.49,71.45 -82.5,102.62 -20.08,26.08 68.27,134 68.27,173.88 0,109.6 -89.24,14.99 -105.25,95.5 -16.5,8.25 -64.39,92.36 -76.8,112.59 -16.32,26.63 -11.38,86.28 -11.38,116.87 -2.6,0.65 -2.2,0.25 -2.85,2.85 -10.76,2.69 -66.31,6.43 -66.84,8.55 -9.73,1.38 -60.37,85.68 -77.52,108.32 -12.12,12.14 -15.37,13.13 -16.36,17.11 -8.52,4.26 -16.04,20.53 -21.33,28.5 -6.31,9.53 -16.01,18.86 -21.34,28.51 -9.75,17.68 -24.14,37.73 -44.09,41.33 -12.23,2.21 -31.08,12.34 -42.67,11.4 -0.76,-0.06 -23.37,-0.67 -12.8,2.85 0,7.81 6.36,24.94 12.8,27.08 1,4.02 4.66,2.59 5.69,5.7 3.35,0.83 6.29,2.85 9.96,2.85 4.56,13.75 62.85,-5.85 71.11,-9.97 23.12,-11.56 45.03,-40.84 64.01,-59.86 7.7,-7.73 8.98,-17.18 14.22,-25.66 9.86,-15.99 17.97,-33.29 28.45,-48.46 8.08,-64.9 67.74,-143.03 105.25,-51.31 19.23,47.05 102.79,-32.82 113.78,-61.28 2.84,-7.34 -56.88,-32.57 -71.11,-41.33 -31.08,-19.11 39.82,-110.34 39.82,-148.23 0,-70.64 128.46,-42.44 152.19,-135.4 22.87,-89.57 -117.48,-113.5 -56.89,-223.77 24.33,-44.27 82.49,-81.77 113.78,-125.42 41.45,-57.8 29.97,-125.65 55.47,-185.28l0 -4.28 -29.87 9.21zm-2538.83 5160.2c54.77,-25.28 142.67,-47.18 186.33,-79.81 -23.8,-7.89 -42.47,-50.78 -54.05,-72.69 -16.59,-31.41 26.29,-0.42 42.67,8.55 33.76,18.48 262.53,90.89 163.56,-12.83 -49.09,-51.46 -80.02,-26.93 -54.04,-105.47 4.53,-13.7 -3.46,-39.53 14.22,-41.33 25.81,-2.62 34.97,-24.81 55.47,-29.93 -6.91,27.77 -40.96,52.2 -25.6,86.94 11.08,25.04 85.43,82.56 106.67,39.91 37.42,-75.17 23.53,-49.88 92.45,-49.88 -4.85,14.57 -82.19,18.94 -58.31,66.98 18.41,37.02 -0.09,31.82 38.4,55.59 14.87,9.19 36.12,93.99 34.14,112.59 -9.95,93.02 22.18,-24.42 55.47,-42.75 43.18,-23.79 43.52,-35.01 28.44,14.25 -14.8,48.33 -55.38,84.25 -17.07,133.97 15.6,20.26 61.09,95.15 66.85,118.3 -17.54,-4.38 -95.49,-98.32 -98.14,-51.31 -0.71,12.56 -3.98,38.57 -8.53,49.88 -1.47,3.65 -24.33,-54.36 -35.56,-71.26 -57.3,-86.18 -52.62,-123.99 -52.62,-229.47 -8.07,2.01 -30.83,55.59 -38.41,66.99 -13.32,20.01 -32.9,-8.62 -45.51,-12.83 -31.51,-10.51 -68,52.78 -108.1,55.59 -39.48,2.77 -43.68,-46.19 -66.85,-66.99 -26.74,-24.02 -64.16,40.09 -99.56,42.76 -35.45,2.68 -70.98,33.36 -102.4,27.08l-19.92 -12.83zm2079.43 5548.53c-11.87,20.39 -45.65,-15.82 -55.47,-25.65 -35.97,-36.05 -4.34,-99.83 -41.25,-136.83 -12.63,-12.65 -10.93,-46.84 -22.76,-52.73 -28.21,-14.07 -1.07,-7.45 14.23,-22.81 11.62,-11.65 25.09,-29.09 14.22,-42.75 -12.94,-16.24 -12.6,-5.62 -4.27,-32.79 2.5,-8.15 10.64,-32.63 -4.27,-28.5 -11.41,3.15 -17.26,7.96 -31.29,5.7 -15.6,-2.52 32.88,-39.78 27.03,-62.71 -6.45,-25.3 -14.38,-52.73 -15.65,-79.82 -1.22,-25.87 -9.12,-53.08 -5.69,-79.81 1.13,-8.88 22.81,43.94 25.6,48.46 10.47,16.91 38.41,69.23 38.41,88.37 0,9.55 3.46,80.51 19.91,45.6 22.01,-46.72 57.6,-75.37 78.23,-121.14 11.89,-26.4 35.72,-61.42 56.89,-82.67 0,42.55 -30.25,68.76 -48.36,102.62 -5.26,9.83 -5.69,20.09 -5.69,31.36 0,16.73 -41.93,51.57 -51.2,72.68 -4.98,11.32 3.98,47.34 -7.11,49.89 -65.25,14.98 -10.25,190.15 2.84,226.61 20.32,56.55 79.65,-76.8 79.65,-42.75 0,23.64 -29.81,99.98 -45.51,119.72l-18.49 19.95zm278.77 5014.06c-13.2,-36.45 -55.95,-55.7 -73.96,-89.79 -15.78,-29.85 -24.18,-67.74 -24.18,-101.2 0,-72.99 15.07,-153.92 49.78,-216.63 8.59,-15.51 -8.72,-71.66 -2.84,-99.77 15.86,-75.86 45.7,-131.25 86.76,-196.69 48.95,-78.04 95.81,-151.59 118.05,-240.87 -60.83,20.27 -54.3,63.95 -132.27,39.91 -4.6,-1.42 -39.83,-13.51 -39.83,-5.7 0,13.74 24.53,40.09 35.56,45.61 3.43,1.72 15.25,3.63 15.64,7.12 8.63,76.16 -116.86,187.06 -142.23,265.1 -23.47,72.18 -15.57,148.87 -35.56,218.07 -15.62,54.04 -36.07,-7.13 -58.31,-7.13 0,33.72 8.19,51.15 15.65,81.24 7.16,28.84 -0.87,52.1 2.84,81.24 6.43,50.38 32.34,117.48 52.63,163.9 6.34,33.97 31.89,39.44 41.24,69.84 12.88,41.9 16.96,128.76 8.54,172.46 -6.16,31.95 -28.81,76.8 1.42,101.19 50.6,40.81 72.34,131.25 92.45,189.56 9.75,28.26 11.26,63.09 28.45,86.94 12.38,17.16 29.86,44.21 29.86,64.14 17.39,0 94.2,-74.55 118.06,-89.79 32.27,-20.6 -78.46,-197.5 -102.41,-229.47 -12.1,-16.17 -60.02,-87.42 -54.05,-104.04 9.95,-27.73 71.34,-37.89 79.65,-71.27 -38.26,0 -61.58,26.35 -100.98,-5.7 -32.32,-26.28 12.44,-93.56 -2.85,-114.02l-7.11 -14.25zm-2321.21 6611.24l-21.34 -36.53c-10.78,-6.47 -34.24,-2.3 -46.94,-1.42 -15.44,1.08 -29.51,-1.43 -44.09,-1.43 -11.39,-11.39 -7.11,-20.62 -1.42,-35.63 4.87,-12.82 22.76,-28.96 22.76,-41.33 -9.81,-9.81 -22.51,-24.45 -35.56,-29.93 -22.01,-9.23 -45.22,-13.72 -68.27,-18.53 -13.07,-2.72 -25.56,-1.92 -38.77,-4.27l0 -142.61c13.55,-1.64 23.5,4.09 38.06,0.08 19.25,-5.29 44.68,-17.45 61.16,-28.51 12.62,-8.46 41.08,-32.78 55.47,-32.78 18.31,11.17 24.51,31.88 39.11,47.75 37.55,40.84 49.07,37.04 49.07,97.63 0,35.55 -6.23,129.83 48.36,122.57 38.39,-5.11 40.28,-24.13 57.6,-55.58 15.39,-27.96 50.55,-58.17 83.92,-60.58 25.43,-11.46 58.03,-20.07 85.34,-30.64 19.53,-7.55 23.25,7.92 39.82,14.25 42.47,16.21 78.77,-15.68 123.74,-15.68 58.39,0 56.76,-87.32 66.85,-126.84 6.3,-24.7 10.77,-45.05 24.18,-66.99 5.24,-8.56 43.38,-47.93 51.2,-49.88 0,31.66 -26.29,58.55 -22.75,89.79 1.46,12.95 53.73,21.87 56.89,31.35 -81.68,0 -66.67,48.86 -79.65,111.17 -10.69,51.36 -55.12,31.16 -81.07,54.16 -9.83,8.7 -9.69,19.4 -24.18,24.23 -18.78,6.27 -49.46,2.85 -71.12,2.85 -57.63,0 -167.83,40.52 -167.83,105.47 -13.42,3.35 -41.24,38.45 -58.31,47.04l-9.96 30.82 -132.27 0zm3993.85 -786.21c6.11,-14.88 34.26,-101.19 39.83,-101.19 0.2,-0.62 31.31,5.96 44.09,-4.28 28.9,-23.15 21.95,-45.93 39.82,-69.84 8.53,0 35.94,60.8 65.43,64.14 25.99,2.95 34.13,-52.62 46.94,-71.26 9.95,-14.46 25.56,-14.74 36.98,-31.36 7.33,-10.65 15.51,-28.91 25.6,-32.78 7.13,-2.74 20.99,31.89 39.82,24.23 12.38,-5.04 30.23,-62.33 34.14,-74.12 10.72,0 21.59,25.89 38.4,31.36 64.4,20.96 121.95,-23.22 186.32,-7.13l1.43 1.43c0,36.57 -139.54,51.46 -164.99,65.56 -23.29,12.89 -45.12,41.4 -68.27,49.89 -45.4,16.64 -66.28,13.38 -99.57,55.58 -52.19,66.18 -88.6,32.54 -153.61,52.73 -46.5,14.45 -68.16,56.73 -110.94,68.42l-1.42 -21.38zm-711.16 -1495.1c-25.96,18.06 -49.65,22.16 -79.64,31.36 -28.57,8.77 19.91,70.74 19.91,114.02 0,91.73 -190.21,-85.55 -210.5,-94.07 -148.32,-62.28 -68.28,-91.55 -68.28,-203.81l36.98 68.41c10.27,19 46.06,35.86 68.28,41.34 63.99,15.78 68.48,68.34 126.58,0 28.06,-32.99 65.06,-67.33 106.67,-78.39 67.84,-18.02 70.93,-52.54 113.79,-95.5 17.58,-17.63 30.65,7.46 46.94,-24.23 5.42,-10.53 29.3,-68.41 36.98,-68.41 0,81.69 -7.5,80.75 -58.32,135.4 -117.15,126 101.66,77.35 159.3,48.46 42.11,-21.11 69.15,-51.84 115.21,-61.29 15.45,-3.16 102.4,-3.83 102.4,4.28 -41.01,10.25 -86.64,52.3 -126.58,71.26 -65.08,30.91 -121.32,75.56 -196.28,78.39 -59.53,2.24 -107.33,0.2 -162.14,18.53l-31.3 14.25zm3342.44 -5206.46c-13.42,-43.83 -36.22,-101.07 -54.05,-141.11 -11.86,-26.62 -34.66,-83.42 -38.4,-109.74 -2.66,-1.06 -17.53,-17.07 -18.49,-19.95l-2.84 0c-0.8,-2.43 -4.19,-1.43 -7.11,-1.43 -15.19,60.98 -40.97,76.36 7.11,139.68 45.07,59.37 101.08,209.95 91.03,285.05 -4.63,34.65 -16.88,72.01 -24.18,106.89 -12.23,58.49 12.89,113.52 -18.49,171.03 -9.64,17.66 9.95,91.1 9.95,89.79 0,-41.99 30.5,-70.8 36.98,-111.17 11.87,-73.96 10.77,-151.33 18.49,-226.61 5.71,-55.64 14.23,-107 14.23,-162.48l-14.23 -19.95zm8228.09 7487.77c0,-20.56 15.83,-16.75 28.45,-29.4 15.97,-15.99 25.81,-72.42 1.42,-81.24 -23.47,-8.5 -41.77,9.63 -56.89,-22.8 -7.92,-16.97 -21.11,-27.7 -27.03,-47.04 -7.57,-24.77 -16.44,-50.17 -25.6,-74.11 -2.87,-7.49 -5.63,-23.76 -14.22,-22.8 -3.58,0.4 -21.42,18.22 -24.18,7.12 -41.44,-5.9 32.8,-75.62 39.82,-82.66 23.22,-23.25 44.95,-45.86 65.43,-69.84 6.61,-7.73 37.88,-60.61 44.09,-37.06 9.4,35.7 53.77,109.54 21.34,139.68 -29.85,27.75 -27.18,59.3 5.68,81.24 21.45,14.33 30.37,25.32 38.41,51.31 13.07,42.29 24.88,39.43 59.73,62.71 29.72,19.84 22.71,63.2 19.92,94.07l-11.38 30.82 -164.99 0zm499.23 -707.96c-45.15,65.33 -123.44,-46.99 -155.03,-72.68 -20.66,-16.79 -40.99,-35.21 -52.63,-59.86 -13.48,-28.53 -27.04,-0.47 -46.93,12.82 -33.6,22.43 -89.78,38.1 -92.45,85.52 -1.83,32.44 21.6,47.72 31.29,76.96 15.18,45.84 -9.96,94.24 -9.96,141.1 0,15.27 0.37,35.41 -1.42,51.31 -2.05,18.11 -27.02,28.89 -27.02,49.88 65.22,16.3 67.79,-98.02 73.96,-138.25 8.84,-57.66 -25.61,-102.32 -25.61,-155.35 0,-56.14 36.11,-53.04 72.54,-35.63 26.43,12.64 49.83,42.79 76.81,51.31 25.02,7.89 42.59,26.73 68.27,32.78 34.79,8.19 51.41,26.1 79.65,42.76 30.37,17.93 42.82,-4.69 64,-9.98 0.52,-3.66 -0.75,-3.39 2.85,-4.28 4.53,-18.12 19.9,-100.82 -25.6,-81.23l-32.72 12.82zm172.1 -16014.06c37.81,8.08 33.52,-52.11 44.09,-71.26 8.97,-16.27 54.35,37.73 61.16,41.33 51.2,27.03 94.58,-40.94 156.46,9.98 51.13,42.09 2.03,-110.23 15.64,-125.43 21.59,-24.09 74.58,69.95 82.5,89.79 26.6,66.56 22.39,78.94 99.56,65.57 84.75,-14.69 30.92,-27.29 15.64,-79.82 -4.72,-16.22 19.72,-96.92 25.61,-96.92 23.76,0 21.54,188.44 169.25,151.08 34.5,-8.73 53.74,-13.7 72.54,-44.18 8.88,-14.39 17.81,-77.22 32.71,-75.54 13.5,1.53 112.37,17 112.37,24.23 0,13.99 46.81,11.28 58.31,22.8 16.47,16.52 -67.99,76.65 -86.76,95.5 -38.44,38.58 29.12,75.55 61.16,79.81 56.83,7.55 52.62,-23.55 52.62,42.76 0,63.33 15.34,111.69 -34.13,165.33 -15.51,16.81 -100.83,-67.32 -120.9,-82.67 -46.25,-35.35 -152.3,5.48 -210.5,27.08 -64.23,23.83 -154.82,4.36 -219.04,25.66 12.31,-49.42 109.52,-70.02 109.52,-136.83 -31.94,0 -32.75,24.42 -73.96,7.13 -61.91,-25.96 -78.8,-15.74 -118.05,32.78 -13.85,17.11 -80.44,78.39 -100.98,78.39 5.99,-30.16 31.07,-47.46 -2.85,-68.41 -11.1,-6.86 41.08,-55.06 48.36,-62.72 46.13,-48.47 62.34,-81.85 -14.22,-78.38 -42.17,1.91 -59.71,-24.23 -89.61,-24.23 -53.16,0 -47.91,58.16 -109.52,24.23 -13.81,-7.61 -46.83,12.45 -65.42,11.4 -15.58,-0.87 -30.81,-26.63 -7.12,-31.36l35.56 -17.1zm1768.65 -4901.46c-5.68,28.77 -0.58,73.64 -10.67,99.05 -8.56,21.54 -39.22,56.28 -66.14,44.19 -22.72,-10.19 -9,-29.64 -20.62,-41.34 -15.34,47.36 -70.13,46.33 -82.49,94.78 -11.9,46.62 66.85,64.63 66.85,113.31 0,42.5 -18.9,43.95 -48.36,62.71 -12.5,7.95 -19.81,34.21 -36.98,34.21 -19.02,0 -27.75,-24.94 -43.38,-24.94 0,16.08 25.7,46.33 30.58,64.85 4.31,16.4 6.85,29.39 1.42,46.32 -22.36,44.73 2.99,51.26 29.87,82.66 17.49,20.42 38.71,53.64 42.67,79.82 9.88,65.17 -25.67,46.1 -54.76,9.97 -14.76,-18.32 -25.2,-31.74 -51.21,-26.37 -27.43,5.67 -49.21,-18.87 -73.25,-12.82 0,20.77 86.99,29.38 101.7,35.63 12.78,5.44 18.67,22.31 25.6,32.78 3.58,5.42 26.31,21.2 26.31,22.8 1.26,0.42 0.72,3.44 0.72,4.99 -0.85,0.28 -1.85,1.66 -2.14,2.85 -19.94,5.05 -26.28,11.18 -49.07,3.57 -18.2,-6.07 -48.09,-18.88 -66.85,-14.26 0,18.59 60.83,36.03 75.39,29.93 19.54,-8.2 37.52,-21.06 56.89,-28.5 14.32,-5.51 58.08,32.22 76.8,37.06 14.89,3.84 20.74,-6.77 32.01,-12.12 8.28,-3.92 15.92,-0.06 24.18,-2.14 1.36,-5.54 4.07,-27.54 0.71,-32.07 -11.15,2.82 -15.62,18.23 -30.58,21.38 -25.42,5.35 -64.63,1.71 -78.23,-24.23 -10.62,-20.27 2.45,-37.48 -1.42,-57.72 -6.42,-33.49 -28.97,-53.12 -46.23,-80.53 -18.41,-29.21 -14.13,-72.22 0.71,-101.9 2.86,-15.23 6.58,-40.41 16.36,-52.74 2.17,-15.41 31.51,-28.61 41.96,-39.9 17.35,-18.72 22.04,-42.09 22.04,-66.99 -8.04,-13.51 -5.88,-29.5 -20.62,-41.33 -5.83,-14.7 -28.27,-21.99 -29.87,-39.91 -16.91,-22.63 6.84,-47.26 24.89,-57.72 12.25,-7.11 34.58,8.58 50.49,5.7 17.89,-3.25 58.89,-31.18 69.7,-45.61 20.6,-27.53 2.61,-58.9 9.95,-88.37l-14.93 -37.05zm-1171.99 3867.43c-26.64,-14.33 -18.89,-58.04 -11.38,-81.24 10.33,-31.88 -6.23,-38.11 -12.09,-66.27 -7.92,-38.09 17.57,-69 37.7,-97.63 10.14,-14.41 53.56,-79.81 70.4,-79.81 0,55.51 -59.67,111.46 -19.91,172.45 21.11,32.37 55.71,51.05 76.09,87.65 9.52,17.11 22.54,60.42 4.98,76.26 -14.11,12.74 -10.19,45.32 -16.36,64.13 -7.57,23.04 -18.93,1.68 -32,-2.14 -44.34,-12.99 -95.95,22.03 -102.41,-54.87l4.98 -18.53zm1633.53 -664.88c-23.56,-18.16 -35.69,-44.73 -54.05,-65.56 -17.4,-19.76 11.29,-48.42 15.65,-66.99 11.05,-47.1 -39.15,9.42 -28.45,51.31 25.46,99.73 -29.16,19.37 -49.78,81.24 96.26,0 102.71,51.15 147.92,114.02 14.5,20.15 41.73,37.91 52.63,59.86 6.14,12.35 -68.15,25.6 -81.08,42.76 14.98,11.25 96.54,-23.19 122.32,-21.38 36.7,2.57 71.01,178.83 126.59,64.14 12.03,-24.82 89.61,19.36 89.61,57.01 0,20.67 -21.07,138.47 2.84,121.15 73.83,-53.45 188.3,-29.84 241.79,44.18 16.43,22.75 33.91,49.41 35.56,76.96 2.15,36.04 32.76,10.02 21.34,-7.12 -40.62,-60.92 51.35,-90.95 -42.67,-126.85 -43.68,-16.68 -25.98,-31.36 -83.92,-31.36 -38.73,0 -132.27,-24.08 -132.27,-71.26 0,-27.57 18.21,-34.55 5.68,-62.71 -7.69,-17.27 -16.94,-45.12 -21.33,-62.71 -89.83,0 -152.27,54.23 -210.5,-39.91 -17.68,-28.57 -57.05,-26.64 -83.92,-51.31 -26.94,-24.72 -27.24,-63.44 -45.51,-94.07l-28.45 -11.4zm-45.51 -610.01c-5.94,-37.6 -15.99,-71.52 -18.49,-109.74 -3.59,-55 5.69,-109.67 5.69,-166.76 0,-18.9 1.89,-51.73 22.75,-22.8 6.06,8.4 12.82,19.09 19.91,25.65 6.18,5.73 17.31,25.07 21.34,27.08 0,38.49 -44.17,51.53 -46.94,91.22 -1.48,21.23 1.96,33.85 11.38,51.31 3.97,7.38 18.75,33.82 24.18,35.63 0,6.88 3.67,12.71 2.85,19.95 -1.57,13.92 -12.5,27.06 -14.23,42.76l-28.44 5.7zm-5467.38 3290.92c-11.26,-19.74 -81.65,-35.89 -103.83,-47.03 -33.95,-17.04 -57.45,-44.49 -91.03,-61.29 -70.87,-35.48 -135.59,-94.75 -196.28,-146.8 -43.03,-36.89 -66.02,-78 -120.89,-105.47 -70.09,-35.08 -123.21,-36.29 -133.7,-122.57 -8.84,-72.64 -65.43,-109.49 -65.43,-189.56 -38.97,0 -29.55,36.94 -38.4,59.86 0,27.98 121.58,180.75 71.12,163.91 -30.05,-10.03 -46.77,-39.28 -76.81,-52.74 -74.39,-33.36 -23.96,24.92 7.11,44.18 41.21,25.53 44.46,28.55 32.72,75.54 15.53,0 28.19,-16.04 46.93,-17.1 25.41,-1.43 75.95,29.92 103.83,37.06 41.41,10.6 48.34,9.28 38.4,57.01 -8.31,39.95 -33.46,65.81 19.92,19.95 38.02,-32.67 77.23,21.7 98.14,49.88 53.85,72.54 137.77,102.45 189.16,168.18 50.38,64.46 157.16,43.59 219.04,105.47 34.7,39.52 65.43,39.63 65.43,94.07 37.45,-9.36 43.09,-34.65 86.76,5.7 26.86,24.83 24.08,41.56 39.82,64.14 7.07,10.13 24.12,1.98 36.98,22.8 21.03,34.06 53.31,32.62 65.43,57.01 13.73,27.61 -1.89,72.27 5.69,102.62 43.34,0 31.06,-54.23 76.8,4.28 13.61,17.42 44.38,47.56 49.79,66.98 8.39,30.15 -6.13,62.58 24.17,81.24 17.74,10.93 38.9,26.84 45.52,48.46 9.88,32.29 -8.54,15.8 -8.54,38.48 0,23.44 54.7,84.01 12.81,96.92 -88.87,27.38 -110.54,-29.19 -150.77,-85.51 -16.41,-22.96 -44.91,16.16 -68.27,9.97 -22.53,-5.98 -55.43,-45.6 -75.38,-45.6 22.34,89.36 23.28,45.69 -51.21,76.96 -25.95,10.9 -47.7,26.86 -73.96,35.63 -25.07,8.36 -43.67,-11.4 -68.27,-11.4 0,53.44 39.18,64.43 -34.13,96.92 -18.52,8.21 -85,34.28 -89.61,52.73 -15.13,0 -71.12,44.99 -71.12,59.86 65.17,0 157.65,-100.25 230.42,-84.09 65.4,14.53 252.01,-120.38 271.66,-88.36 48.63,79.28 117.37,29.93 184.9,29.93l0 2.85c-27.89,0 -73.3,69.73 -79.65,92.64 -17.45,62.96 162.59,-93.62 170.68,-27.08 6.59,54.13 127.26,49.26 123.74,-5.7 -2.31,-36.21 -48.51,-19.94 -55.47,-54.16 -12.16,-59.83 -71.53,-53.9 -76.8,-139.68 -2.41,-39.36 -27.14,-119.63 -19.92,-151.08 9.11,-39.7 40,-67.54 27.03,-118.29 -8.1,-31.68 -44.84,64.05 -68.27,71.26 -13.22,4.07 -127.74,-82.97 -145.08,-95.49 -27.89,-20.16 -51.14,-69.21 -69.69,-98.34 -28.66,-45.03 -7.78,-36.49 -44.09,-62.72 -76.31,-55.15 -176.35,-103.65 -241.8,-161.05l-25.6 -21.38zm-1291.46 -1663.27c63.41,84.55 48.81,444.71 204.81,414.75 92.87,-17.84 92.78,85.73 119.48,149.65 4.1,9.81 53.41,119.83 56.89,85.51 4.14,-40.71 17.07,-79.88 17.07,-119.72 0,-55.88 -14.54,-55.42 9.95,-106.89 13.04,-27.43 -13.53,-108.92 -4.26,-152.51 5.43,-25.52 17.16,-52.18 19.91,-12.82 2.54,36.26 -7.88,48.91 9.96,81.24 14.09,25.52 10.74,54.26 -1.43,79.81 -21.93,46.01 11.38,47.24 11.38,78.39 0,32.6 -30.85,58.5 -28.44,101.19 1.75,31 44.28,67.86 -15.65,91.22 -28.04,10.92 19.83,44.49 35.56,74.11 16.14,30.42 228,201.17 72.54,161.06 -29.66,-7.65 -78.88,-49.15 -91.03,-81.24 -7.31,-19.29 -14.21,-51.79 -31.29,-64.14 -19.38,-14 -106.92,-74.38 -122.32,-75.54 -88.24,-6.67 -141.35,-40.45 -220.46,-76.96 -16.13,-7.45 -113.02,-40.41 -116.63,-51.31 42.96,32.37 114.68,27.02 162.14,59.86 23.59,16.31 128.81,37.05 155.04,27.08 79.49,-30.21 26.24,-1.03 85.33,28.51 0,-24.65 -79.67,-167.51 -95.29,-173.89 -87.05,-35.61 -111.31,-98.93 -211.93,-123.99 14.05,-10.55 65.6,9.7 56.9,-12.83 -6.73,-17.41 -16.43,-33.82 -18.49,-54.16 -6.68,-65.85 -65.09,-92.91 -122.32,-119.72 -46.19,-21.65 -76.05,-67.93 -5.69,-24.23 20.89,12.98 47.58,38.96 69.69,47.03 69.73,25.48 19.09,-40.9 15.65,-71.26 -7.09,-62.59 -50.81,-112.76 -24.18,-183.86 -14.43,-40.06 -33.21,-92.89 -59.74,-122.57 -13.71,-15.35 -25.06,-27.37 -36.98,-44.18 -9.56,-13.5 -36.98,-37.54 -36.98,-54.16 7.29,0 27.12,30.52 34.14,37.05 22.07,20.51 42.23,44.52 62.58,66.99 7.01,7.75 23.15,44.18 29.87,44.18 0.39,2.37 1.8,6.31 4.26,7.13l0 4.27c2.32,0.77 4.27,5.42 4.27,8.56 7.76,2.58 6.18,18.22 11.38,19.95 0,3.71 1.31,10.42 4.27,11.4 0,8.81 5.89,24.62 7.11,35.63l-17.07 11.41zm-345.61 -1505.08c34.59,34.59 65.62,301.97 135.12,250.85 42.38,-31.18 58.23,-83.3 116.64,-101.19 69.73,-21.37 105.33,-61.18 15.64,11.4 -98.79,79.93 -109.16,148.05 -164.99,256.54 -29.7,57.7 25.35,100.3 -62.58,115.45 -49.08,8.46 -114.09,136.56 -9.96,109.74 44.46,-11.45 4.2,24.07 -1.42,35.64 -19.64,40.36 24.41,16.48 35.56,22.8 7.31,4.15 -2.85,82.26 -2.85,95.49 0,28.53 -6.36,283.03 -65.42,223.77 -18.62,-18.69 -75.15,-17.14 -69.7,-45.61 10.76,-56.2 -20.82,-11.86 -51.2,-27.08 -39.3,-19.7 38.51,-71.57 48.36,-76.96 104.52,-57.25 -178.49,-29.93 -199.13,-29.93 21.97,-16.56 58.72,-43.16 83.92,-52.74 46.79,-17.78 16.45,-22.9 44.09,-48.46 12.19,-11.26 47.36,-13.54 54.05,-24.23 8.84,-14.15 -30.45,-207.73 -69.69,-210.94 -56.64,-4.63 5.9,-66.69 -59.74,-86.94 -68.49,-21.12 -184.26,34.84 -257.44,31.36 -45.38,-2.15 -76.42,14.25 -110.95,14.25 45.89,-64.34 249.54,-81.24 325.72,-81.24 34.92,0 79.53,19.89 109.52,34.21 40.07,19.12 51.14,6.8 66.85,54.16 19.29,0 54.46,-79.64 59.73,-96.92 6.76,-22.13 41.84,-54.73 59.74,-72.69 23.49,-23.55 22.5,-85.95 14.23,-115.44 -12.22,-43.52 -48.74,-80.08 -58.32,-128.28l-1.42 -1.42c-14.83,-39.65 -62.77,-80.6 -71.12,-114.02 -12.46,0 -75.76,6.23 -78.23,2.85 -27.3,-37.43 -11.29,-19.35 -51.2,-29.93 -5.77,-1.53 -19.75,-16.77 -11.38,-21.38 26.82,-14.76 129.02,51.34 125.17,-12.83 -2.15,-35.74 -48.36,-87.43 -4.27,-116.87 19.05,-12.72 47.9,-130.36 41.25,-145.38 -11.87,-26.77 -24.8,-40.73 -14.23,-72.68 6.86,-20.77 18.49,-47.66 18.49,-71.27 10.29,3.41 5.69,60.75 5.69,74.12 0,52.74 57.77,77.22 46.94,135.4 -3.07,16.49 -19.08,19.55 -31.29,25.65 -30.99,15.49 -70.36,122.43 -36.98,145.38 41.15,28.31 17.07,22.57 17.07,64.13 0,19.17 31.11,40.64 41.24,58.44l18.49 22.8zm-156.47 -1262.78c-33.63,42.27 -20.06,73.76 -38.4,116.88 -21.61,50.78 1.42,65.25 1.42,108.32 0,63.86 -86.86,49.39 -108.09,111.17 -17.35,50.46 -43.56,83.6 -17.07,136.82 35.7,71.69 -26.8,157.23 -89.61,192.41 -58.97,33.04 -30.39,-0.84 -55.47,-35.63 -27.21,-37.72 -59.73,-27.32 -59.73,-84.09 26.51,0 34.8,34.2 59.73,34.2 9.4,0 48.89,-11.46 58.32,-15.67 70.53,-31.49 -61.67,-94.22 35.56,-88.37 25.16,1.51 -14.74,-43.36 4.26,-74.11 9.75,-15.8 1.06,-32.11 7.11,-47.04 6.61,-16.3 31.09,-36.76 42.67,-54.16 15.76,-23.7 11.38,-58.24 11.38,-85.51 12.33,2.46 23.04,18.93 29.87,28.5 36.86,17.32 37.69,-23.65 34.14,-51.31 -2.58,-20.1 -11.38,-43.92 -11.38,-62.71 0,-14.04 8.63,-31.16 11.38,-45.61 4.02,-21.04 -6.44,-45.06 -8.54,-66.98 -2.13,-22.29 -21.31,-81.96 -7.11,-99.77 17.08,0 29.04,25.31 46.94,29.93 18.71,4.82 50.36,-4.84 61.16,-19.95l-8.54 72.68zm-271.66 -478.88c10.54,9.24 17.89,20.15 24.18,31.35 4.2,7.46 9.58,-7.64 15.65,-9.97 15.52,-5.94 29.67,14.39 46.93,9.97 38.88,-9.95 73.83,-44.43 59.74,-86.94 -8.6,-25.97 -51.2,-33.95 -51.2,-66.98 0,-29.73 33.1,-41.13 56.89,-57.01 23.29,-15.56 -14.22,-28.19 -14.22,-49.89 0,-22.81 32.82,-40.58 31.29,-54.16 -3.1,-27.38 -22.18,-11.19 -28.45,1.43 -8.89,17.86 -14.22,21.44 -14.22,44.18 0,44.19 -43.97,21.8 -64.01,44.18 -20.35,22.71 -14.47,135.3 -61.16,105.47 -17.44,-11.13 -48.74,1.19 -61.16,-9.97 -19.32,-17.34 -30.86,-41.75 -45.51,-61.29 0,11.51 3.65,53.09 9.96,61.29 22.99,29.84 -27.9,40.4 2.84,64.13 19.04,14.71 69.13,1.48 78.23,22.81l14.22 11.4zm3116.29 2948.86l99.56 59.86c39.65,23.83 47.35,41.06 56.9,82.66 5.86,25.57 91.23,63.79 109.51,98.35 10.99,20.76 108.13,50.8 133.7,59.86 29.67,10.52 53.77,49.58 75.38,71.26 19.78,19.86 42.82,51.39 46.94,78.39 0.84,5.52 71.1,51.28 82.49,68.41 23.63,35.5 37.38,55.59 83.92,55.59 12.91,-51.84 -67.77,-86.72 -99.56,-114.03 -26.28,-22.59 -57.9,-61.67 -75.38,-92.64 -11.45,-20.27 -70.9,-84.37 -92.45,-92.64 -38.9,-14.92 -97.08,-14.01 -109.52,-64.14 -69.67,0 -116.33,-99.01 -156.46,-142.52 -14.85,-16.09 -73.33,-35.86 -76.8,-52.74 -7.99,-38.88 -0.29,-76.29 -12.8,-114.02 -4.83,1.2 -9.96,50.91 -9.96,58.44 -15.88,3.17 -33.31,22.84 -49.78,29.93l-5.69 9.98zm-7201.17 595.75c0,-31.43 -23.04,-137.56 29.86,-115.44 70.86,29.62 80.37,-133.66 164.99,-118.3 33.15,6.01 141.09,-97.4 176.37,-118.29 71.37,-42.28 11.51,-79.72 34.13,-121.15 14.12,-25.88 54.63,-32.14 64.01,-64.14 31,-105.65 -116.63,-174.64 -116.63,-266.52 30.21,0 42.44,47 66.85,54.16 33.76,9.89 56.17,-17.1 83.91,-17.1 0.65,2.6 0.25,2.2 2.85,2.85 0,64.13 -16.6,99.09 21.33,159.63 20.19,32.21 89.17,40.56 119.48,18.52 37.36,-27.15 27.02,-58.51 27.02,-98.34 0,-38.89 56.83,-14.21 81.07,-48.46 14.69,-20.77 49.86,-129.7 73.96,-129.7 0,29.84 5.97,67.3 -14.22,91.22 -30.23,35.84 -11.75,73.07 -19.91,114.02 -20.47,5.11 -61.54,-23.24 -69.69,11.4 -9.59,40.81 12.87,46.03 -22.76,76.97 -46.78,40.64 -133.48,38.19 -174.95,79.81 -20.04,20.1 -99.43,115.55 -31.29,126.85 76.75,12.72 56.99,13.85 15.65,72.69 -17.94,25.55 -15.62,49.97 -29.87,74.11 -8.58,14.55 -87.68,14.45 -62.58,45.61 40.11,49.77 19.18,33.82 -22.76,35.63 -55.07,2.39 -6.56,32.09 1.42,42.76 16.79,22.47 -0.58,57.08 -31.29,47.03 -72.02,-23.56 -60.02,-70.97 -72.54,27.08 -13.2,103.3 -106.11,-106.05 -159.3,-38.48 -19.84,25.2 6.89,68.21 -17.06,85.51 -27.31,19.74 -67.77,28.28 -91.03,-2.85l-27.02 -27.08z"/>
  <g id="_1964419798736">
   <path class="fil2 str2" d="M12723.07 6861.55c-2.17,3.99 -3.19,7.03 -4.26,11.28 -0.78,3.08 -1.48,5.47 -2.84,8.55 -1.55,3.53 -2.77,12.37 -2.14,16.39 0.57,3.62 1.62,7.86 2.85,11.41 1.39,3.97 0.21,8.88 2.84,12.11 5.06,6.2 10.13,12.42 15.2,18.63"/>
   <path class="fil2 str2" d="M11886.09 5384.74c2.35,2.65 10.2,7.56 12.04,11.52 7.54,16.24 30.62,30.66 44.1,42.76 30.22,27.15 42.3,52.42 61.16,86.94 8.8,16.09 10.77,44.63 14.22,62.71 3.55,18.63 -1.62,45.14 7.11,61.29 6.16,11.39 12.32,22.8 18.49,34.21"/>
   <path class="fil2 str2" d="M11777.09 3904.72c0.18,-2.18 0.69,-1.38 0.86,-3.55 2.03,-24.84 -18.05,-55.9 -22.76,-81.95 -4.47,-24.77 1.91,-67.62 -25.6,-80.53 -27.23,-12.79 -87.07,-77.34 -102.41,-23.52 -4.82,16.9 -2.16,33.6 -22.04,39.91 -22.8,7.25 -37.6,4.39 -57.61,-7.13 -9.5,-5.47 -19.02,-10.95 -28.53,-16.43"/>
   <path class="fil2 str2" d="M11582.38 3080.22c-0.47,-5.22 -0.68,-10.49 -1.42,-15.68 -0.21,-1.48 -0.95,-2.84 -1.42,-4.27 -2.4,-7.25 -8.28,-12 -9.96,-18.53 -5.38,-20.98 -14.93,-44.59 -17.07,-66.99 -1.84,-19.36 -5.43,-32.27 -1.42,-52.73 6.83,-34.83 15.43,-58.6 11.38,-94.07 -3.47,-30.33 -7,-60.64 -21.34,-88.37 -6.03,-11.65 -12.07,-23.32 -18.11,-34.98"/>
   <path class="fil2 str2" d="M14159.67 8465.06c-12.17,36.99 6.95,132.13 32.66,160.84 32.58,36.36 118.69,65.9 140.81,99.77 6.47,9.9 63.75,47.84 73.96,57.01 27.23,24.44 51.3,-31.65 73.96,-34.21 24.96,-2.81 36.01,21.01 48.36,38.48 22.89,32.35 87.54,43.06 123.74,54.16 51.83,15.91 110.82,108.09 136.54,156.78 7.59,14.37 58.06,30.21 73.96,42.76 15.3,12.06 46.12,82.18 48.36,101.19 12.25,103.9 91.8,114.58 166.41,168.18 13.44,9.66 45.23,1.3 62.58,9.98 23.45,11.75 36.58,47.3 46.94,72.69 13.95,34.22 21.08,39.84 18.49,74.11 -0.23,3.12 -6.44,6.47 -8.54,7.13 -10.27,3.27 -24.18,2.22 -34.13,7.12 -2.94,1.44 -1.59,5.17 -5.69,8.55 -8.83,7.27 10.16,57.75 5.69,71.27 -8.83,26.69 -48.06,10.76 -68.27,27.08 -10.94,8.84 36.21,37.18 39.82,51.31 9.37,36.73 41.94,83.03 -2.84,105.47 -26.17,13.12 -75.49,4.57 -38.41,49.88 11.08,13.55 15.65,16.1 15.65,34.21 0,25.77 7.9,24.73 24.18,35.63 16.77,11.24 70.33,54.45 89.6,68.41 28.71,20.79 53.25,68.24 81.08,82.66 29.22,15.15 19.2,-14.04 56.89,1.43 62.35,25.61 54.56,12.32 36.98,81.24 -15.65,61.32 114.73,22.54 48.36,122.57 -48.38,72.9 27.82,115 78.23,155.36 36.44,29.16 30.57,56.08 66.84,81.23 44.39,30.79 66.05,18.13 95.3,-41.33 26.54,-53.98 52.56,18.98 64,37.06 18.02,28.49 -4.31,80.48 -9.95,109.74 -23.24,120.54 126.54,272.42 230.41,312.14 46.77,17.89 146.29,83.55 187.75,85.51 29.36,1.38 73.82,-8.04 99.56,-1.42 21.85,5.61 20.51,41.61 39.82,49.88 9.18,3.92 29.83,-6.5 39.83,-4.28 4.04,0.9 4.93,4.31 5.69,8.56 1.53,8.52 1.59,17.42 4.27,25.65 1.19,3.64 2.12,5.18 4.26,8.55 2.38,3.77 7.12,3.44 9.96,5.7 2.9,2.29 5.06,5.86 8.53,7.13 4.3,1.56 7.19,2.55 11.38,2.85 7.84,0.57 15.92,-0.66 22.76,2.85 3.15,1.62 4.81,1.35 7.11,4.28 2.03,2.6 4.71,4.43 7.11,7.12 68.84,77.32 148.95,96.46 217.62,172.46 44.22,48.95 93.12,77.39 103.82,146.8 7.59,49.2 2.43,103.34 -52.62,111.17 -79.44,11.29 51.46,180.67 61.16,212.36 13.33,43.59 2.14,74.12 56.89,74.12 58.7,0 -3.22,36.85 -11.38,62.71 -30.62,97.09 41.94,18.72 86.76,69.84 22.66,25.86 -14.16,79.97 -11.38,109.74 0.36,3.86 5.02,5.28 8.54,7.13 23.77,12.47 43.94,1.1 66.85,8.55 16.67,5.43 30.61,18.85 34.13,29.93 15.28,48.17 26.61,71.49 9.96,115.44 -16.05,42.39 6.47,74.61 0,116.88 -10.51,68.66 67.83,96.72 54.05,168.18 -12.6,65.39 -88.15,144.07 -39.83,192.41 44.84,44.87 49.94,114.23 82.5,155.35 46.26,58.44 -129.54,111.22 -42.67,182.43 36.01,29.53 50.87,97.25 95.29,115.45 71.5,29.28 98.54,113.57 182.06,118.29 54.69,3.09 144.55,0.21 177.79,48.46 26.63,38.67 35.84,83.03 75.38,114.02 68.6,53.79 72.62,39.76 110.94,116.88 34.57,69.59 162.14,83.75 162.14,158.2 0,0.95 0,1.9 0,2.85 0,5.33 -24.37,39.57 -29.86,48.46 -57.82,93.63 20.98,146.28 52.62,220.91 15.51,36.61 7.71,97.38 28.45,129.7 18.72,29.15 36.62,77.99 45.51,106.9 24.93,81.1 118.48,-63.47 100.99,68.41 -7.32,55.23 39.84,91.93 48.35,149.65 11.06,75.07 -86.36,131.41 -113.78,206.66"/>
   <path class="fil2 str2" d="M17984.06 14607.64c-1.73,4.34 -1.73,2.64 -2.69,7.2 -8.12,38.5 20.15,33.02 28.45,55.58 1.08,2.93 6.08,5.01 8.53,7.13 3.09,2.69 2.41,1.84 5.69,4.27 1.97,1.45 2.4,2.33 2.85,4.28 1.71,7.27 1.29,15.31 -1.43,21.38 -1.5,3.37 -12.02,2.58 -14.22,7.12 -8.21,16.93 -25.9,20.05 -15.64,41.33 4.57,9.47 26.25,41.77 8.53,48.46 -2.49,0.93 -0.19,5.7 -2.85,5.7 -0.95,0 -1.9,0 -2.84,0 -20.17,0 -26.09,28.02 -17.07,52.74 1.15,3.15 4.27,0.39 4.27,2.85 0,0.95 0,1.9 0,2.85 0,9.88 -19.64,41.61 7.11,48.46 51.35,13.14 47.17,66.89 58.32,114.01 8.51,35.93 -23.79,55.39 7.11,95.5 98.11,127.39 121.08,286.87 332.82,205.23 86.28,-33.27 133.88,-122.69 199.12,-11.4 47.76,81.45 132.76,24.49 166.41,141.1 2.45,8.48 11.15,14.74 18.49,19.25 10.45,6.44 18.35,16.25 27.03,24.94 5.55,5.57 10.38,11.07 17.06,14.96 5.83,3.39 12.48,6.37 18.49,8.56 6.93,2.54 16.32,6.24 24.18,7.83 9.2,1.85 18.25,3.18 27.74,2.85 14,-0.48 28.01,-0.97 42.02,-1.45"/>
   <path class="fil2 str2" d="M16523.64 1000c-5.78,111.49 -96.56,203.68 -96.56,331.6 0,106.52 -13.1,297.87 -150.52,244.24 -4.48,-1.75 -6.99,-2.37 -8.52,2.84 -35.78,121.62 43.91,343.14 113.6,451.56 56.9,88.54 35.51,156.26 124.96,235.72 23.38,20.77 182.29,130.08 190.28,144.84 2.68,4.97 16.1,10.57 19.88,14.2 4.08,3.9 4.53,4.53 8.52,8.52 0.94,0.93 1.89,1.9 2.84,2.84 5.49,5.49 11.35,8.24 14.2,14.2 8.33,17.47 27.81,101.23 42.6,110.76 5.11,3.3 5.23,3.13 5.68,8.52 4.61,54.79 4.12,52.3 -17.04,96.56 -5.48,11.46 -24.82,59.41 -25.56,71 -2.16,33.8 -15.3,52.81 8.52,68.16 42.95,27.66 26.63,153.39 28.4,190.28 3.68,76.67 42.6,155.25 42.6,224.36 0,77.85 -62.48,68.78 -62.48,119.28 0,65.88 116.12,176.61 59.64,258.44 -37.46,54.29 -127.58,113.61 -19.88,161.88 82.42,36.95 14.76,235.66 105.08,315.24 122.94,108.34 85.27,245.85 93.72,397.6 11.11,199.36 -4.28,406.78 28.4,596.4 27.14,157.43 57.33,453.53 207.32,545.28 6.6,4.03 17.55,14.63 19.88,22.72 18.12,62.92 16.45,179.75 59.64,232.88 49.4,60.79 140.44,85.04 198.8,144.84 4.05,4.16 28.84,43.33 34.08,51.12 2.65,3.95 13.74,11.29 17.04,11.36 138.31,3.11 336.82,155.04 423.16,261.28 70.46,86.68 265.15,349.58 284,443.04 1.24,6.15 12.43,42.05 19.88,45.44 64.5,29.35 87.53,278.1 124.96,337.96 11.39,18.21 62.48,235.82 62.48,255.6 0,97.76 50.43,114.8 107.92,178.92 41.75,46.55 121.61,85.2 184.6,85.2 141.31,0 13.14,175.24 170.4,110.76 84.9,-34.82 170.75,63.56 221.52,122.12 9.63,11.12 32.13,13.31 42.57,21.36 85,65.63 129.52,15.59 217.62,18.53 68.53,2.28 105.36,86.94 177.78,86.94 55.74,0 95.66,-53.39 142.24,-55.58 20.15,-0.95 85.59,80.74 108.09,98.34 28.28,22.14 43.56,117.29 73.96,141.1 23.65,18.52 47.3,37.06 70.96,55.59"/>
   <path class="fil2 str2" d="M17259.2 5637.04c25.71,-32.19 51.42,-64.38 77.14,-96.57"/>
   <path class="fil2 str2" d="M17731.04 6741.71c52.2,17.23 90.05,19.97 144.44,19.97 36.11,0 64.27,10.54 90.88,34.08 40.27,35.64 76.07,36.09 127.8,39.76 23.86,1.69 53.33,5.73 73.84,17.04 19.79,10.9 37.61,36.61 53.96,51.12 9.19,8.17 21.59,34.12 34.08,39.76 38.47,17.36 76.82,35.02 115.24,52.53"/>
   <path class="fil2 str2" d="M19887.92 8145.86c-0.95,-12.17 21.89,-57.09 27.8,-72.96 7.71,-20.7 17.7,-42.69 27.02,-64.14 9.53,-21.9 17.24,-54.99 22.76,-79.81 9.48,-42.66 5.68,-86.89 -14.22,-126.85 -8.94,-17.94 -22.03,-28.44 -31.29,-45.61 -11.84,-21.93 -19.5,-48.69 -21.34,-74.11 -3.33,-46.06 -13.59,-110.36 4.27,-151.08 24.39,-55.64 19.78,-109.29 -7.11,-161.05 -25.58,-49.25 38.74,-121.81 19.91,-155.36 -25.73,-45.87 30.61,-78.24 -8.53,-119.72 -95.99,-101.7 16.76,-158.27 49.78,-240.87 9.68,-24.22 17.97,-81.6 12.8,-106.89 -8.69,-42.54 -31.63,-25.45 -62.58,-44.18 -2.7,-1.64 6.2,-3.21 4.26,-5.71 -82.95,-107.28 100.89,-136.85 -18.49,-228.04 -106.52,-81.35 109.38,-233.99 65.43,-297.88 -23.28,-33.85 -87.41,-22.81 -61.16,-66.98 14.22,-23.92 97.6,20.11 65.43,-47.04 -23.12,-48.24 -116.07,-131.72 -162.15,-158.2 -104.92,-60.32 -54.36,-151.55 -96.72,-246.57 -24.89,-55.86 -49.8,-111.72 -74.71,-167.59"/>
   <path class="fil2 str2" d="M18959.08 4299.84c1.84,42.79 -66.39,210.96 -7.59,235.57 25.92,10.84 22.42,34.13 24.18,65.56 1.53,27.28 2.3,61.28 -4.27,86.94 -6.69,26.14 -13.39,52.28 -20.09,78.43"/>
   <path class="fil2 str2" d="M18972.72 4029.44c7.57,-8.93 9.77,-11.67 14.33,-19.95 2.09,-3.79 0.05,-8.09 2.84,-11.4 96.36,-113.91 9.96,-217.84 9.96,-334.94 0,-54.24 22.25,-155.17 0,-202.39 -26.93,-57.17 -85.36,-88.56 -72.54,-156.77 6.55,-34.83 171.55,-76.25 96.72,-132.55 -55.28,-41.58 -68.98,-147.11 -31.29,-200.97 47.22,-67.5 51.71,-131.82 21.33,-192.41 -21.76,-43.42 -89.37,-1.12 -139.39,-5.7 -34.39,-3.15 -112,-8.08 -139.39,-27.08 -31.65,-21.97 -27.28,-49.14 -28.44,-84.09 -1.96,-59.35 -58.48,-32.5 -93.88,-51.31 -33.96,-18.04 -23.77,-86.22 -49.78,-111.17 -17.09,-16.38 -34.19,-32.78 -51.29,-49.17"/>
   <path class="fil2 str2" d="M18526.83 1710.55c1.6,-33.36 22.72,-91.75 5.07,-119.73 -36.2,-57.42 -54.7,-100.24 -45.51,-169.6 9.12,-68.77 -18.17,-145.76 22.75,-200.96 28.76,-38.78 66.11,-88.84 93.88,-126.85 22.75,-31.12 45.51,-62.27 68.27,-93.41"/>
   <path class="fil2 str2" d="M3369.94 11128.65c40.34,-26.15 66.74,-21.38 95.38,-64.37 17.38,-26.07 43.52,-99.02 45.44,-130.64 2.48,-41 -7.79,-88.77 22.72,-119.28 37.33,-37.33 74.13,-77.63 105.08,-119.28 12.94,-17.4 71,-128.18 71,-164.72 0,-1.89 0,-3.78 0,-5.68 0,-7.02 -33.44,-46.87 -39.76,-51.12 -75.13,-50.64 -184.07,-124.12 -153.36,-232.88 33.25,-117.72 87.43,-203.02 124.96,-318.08 14.73,-45.16 64.35,-75.36 82.36,-119.28 37.71,-91.99 -52.65,-96.38 45.44,-159.04 80.73,-51.58 115.38,-239.46 193.12,-278.32 35,-17.49 160.73,173.5 249.92,-36.92 16.75,-39.54 100.14,-64.27 127.8,-96.56 40.02,-46.7 259.82,-92.49 264.12,-167.56 3.19,-55.68 -126.74,-105.59 -53.96,-195.96 38.41,-47.71 68.58,4.61 93.72,-76.68 13.17,-42.57 40.38,-61.74 79.52,-73.84 60.43,-18.7 41.01,-105.08 107.92,-105.08 86.77,0 23,-26.87 122.12,-82.36 180.55,-101.06 238.79,-152.02 372.04,-286.84 79.51,-80.46 159.04,-160.94 238.56,-241.4 123.51,-124.99 282.69,-254.78 337.96,-434.52 45.4,-147.64 -4.35,-321.16 190.28,-374.88 5.44,-1.5 6.7,-3.18 8.52,-8.52 18.25,-53.45 200.55,-159.04 247.08,-159.04 96.75,0 95.41,54.41 207.32,8.52 67.53,-27.68 63.95,-82.36 153.36,-82.36 48.65,0 100.01,36.71 150.52,19.88 73.12,-24.35 -8.99,-159.04 144.84,-159.04 61.63,0 143.42,-29.22 161.88,-102.24 1.09,-4.35 -19.41,-87.59 -11.36,-116.44 11.08,-39.67 21.04,-64.73 42.2,-104.68 18.79,-35.46 15.05,-88.66 36.26,-122.58 11,-17.61 17.06,-37.76 32.01,-52.73 11.78,-11.81 31.56,-32.03 41.95,-43.47 9.6,-10.56 19.2,-21.14 28.81,-31.71"/>
   <path class="fil2 str2" d="M8155.36 5395.62c88.02,14.99 117.06,60.37 206.12,-5.66 54.9,-40.69 109.81,-81.42 164.72,-122.12 42.83,-31.76 204.3,-232.28 187.44,-281.16 -35.75,-103.66 14.27,-150.65 51.12,-238.56 45.4,-108.28 224.94,-159.18 170.4,-289.68 -23.37,-55.92 -69.44,-356.15 -105.08,-386.24 -76.7,-64.78 -186.24,-64.21 -261.28,-133.48 -100.28,-92.58 -124.99,-187.67 -181.76,-306.72 -5.48,-11.49 -11.63,-28.94 -14.2,-42.6 -7.83,-41.62 21,-87.57 5.68,-127.8 -20.27,-53.26 -54.49,-103.83 -28.4,-164.72"/>
   <path class="fil2 str2" d="M11246.72 4888.87c-99.85,-91.34 -294.95,-145.84 -332.08,-288.43 -2.43,-9.32 -14.62,-11.83 -22.72,-17.04 -4.14,-2.65 -0.06,-4.87 -5.68,-8.52 -7.01,-4.57 -6.31,-3.34 -11.36,-8.52 -4.73,-4.84 -10.94,3.09 -14.2,-2.84 -10.21,-18.53 -138.06,-119.71 -164.72,-130.64 -90.72,-37.19 -41.72,-217.03 -93.72,-187.44 -35.56,20.24 -110.02,21.87 -130.64,2.84 -91.56,-84.53 -115.8,90.27 -153.36,-105.08 -18.52,-96.29 -109.18,15.88 -142,-82.36 -5.12,-15.33 -26.88,-39.51 -34.08,-53.96 -0.94,-1.88 -1.9,-3.78 -2.84,-5.68 -45.65,-91.3 -183.32,-11.48 -207.32,-136.32 -11.03,-57.38 -3.47,-91.13 -62.48,-113.6 -70.54,-26.85 -112.97,-119.71 -99.4,-190.28 18.1,-94.17 -61.28,-70.19 -102.24,0 -14.6,25.03 -77.58,-6.25 -93.72,22.72 -36.75,65.92 -43.42,136.4 -130.64,71 -27.82,-20.87 -86.46,-31.93 -99.4,-59.64 -11.42,-24.43 -27.23,-100.66 -48.28,-122.12 -25.28,-25.79 -129.74,-15.63 -110.76,-139.16 7.51,-48.86 47.96,-71.54 71,-113.6 41.69,-76.13 -77.5,-93.16 -14.2,-184.6 23.17,-33.46 15.95,-47.14 2.84,-76.68 -20.5,-46.16 11.36,-88.15 11.36,-133.48"/>
   <path class="fil2 str2" d="M3249.68 11708.65c-63.53,68.88 -58.3,172.56 -5.88,224.67 61.71,61.33 80.79,87.15 62.48,156.2 -16.65,62.83 25.49,128.7 79.52,164.72 80.98,53.97 22.35,66.86 8.52,124.96 -14.42,60.63 52.17,45.73 65.32,85.2 35.13,105.45 5.53,164.62 68.16,275.48 54.95,97.25 2.84,92.67 2.84,195.96 0,22.29 70.1,-1.85 65.32,65.32 -13.8,193.82 165.36,266.4 258.44,411.8 88.88,138.86 9.89,185.97 90.88,266.96 53.67,53.67 36.92,93.64 36.92,241.4 0,4.73 0,9.46 0,14.2 0,98.7 6.97,104.03 -22.72,150.52 -48.11,75.3 -58.23,190.65 17.04,249.92 46.35,36.51 216.78,121.27 261.28,153.36 39.75,28.65 57.95,54.81 14.2,82.36 -74.16,46.71 -50.21,170.4 -124.96,170.4 -104.85,0 -124.96,-38.18 -124.96,76.68 0,18.39 -218.36,139.43 -252.76,184.6 -93.56,122.82 0.03,187.99 -39.76,284 -23.71,57.23 25.56,125.94 25.56,190.28 0,48.51 -3.17,91.1 -17.04,133.48 -3.39,10.35 -30.85,57.05 -39.76,71 -13.82,21.65 -43.31,57.39 -48.28,79.52 -4.72,21.04 -9.46,42.09 -14.19,63.14"/>
   <path class="fil2 str2" d="M3694.93 17300.42c4.39,7.68 10.09,12.28 11.79,17.54 20.39,63.23 20.61,131 28.4,198.8 6.18,53.73 58.95,114.39 39.76,167.56 -12.87,35.69 -39.12,100.17 -28.4,142 14.8,57.76 -34.46,219.88 -48.28,286.84 -16.88,81.82 -62.48,159.96 -62.48,252.76 0,154.11 4.32,284.73 -73.84,411.8 -76.06,123.64 52.87,186.33 22.72,320.92 -27.66,123.43 44.79,177.01 102.24,269.8 75.74,122.36 129.76,259.69 195.96,380.56 29.37,53.62 53.96,95.26 53.96,161.88 0,60.86 -53.25,145.95 -8.52,195.96 15,16.76 53.77,7.48 59.64,31.24 12.65,51.26 -9.99,133.27 25.56,170.4 111.37,116.36 171.14,306.09 167.56,457.24 -1.06,44.83 -2.13,89.66 -3.19,134.5"/>
   <path class="fil2 str2" d="M4436.64 21224.36c8.15,174.81 -106.15,157.87 -167.6,296.8 -24.04,54.34 -19.83,70.95 -65.32,116.44 -99.53,99.53 -190.9,232.29 -227.2,369.2 -22.26,83.95 -59.38,175.03 -31.24,261.28 51.1,156.62 -26.56,115.43 -71,170.4 -31.1,38.48 -11.27,111.01 -2.84,136.32 21.24,63.78 -5.68,67.4 -48.28,90.88 -19.18,10.58 -14.2,54.34 -14.2,76.68 0,57.97 -54.54,59.72 -25.56,119.28 28.34,58.22 -5.34,84.03 -31.24,142 -49.22,110.12 -98.45,220.26 -147.68,330.39"/>
   <path class="fil2 str2" d="M5032.62 20870.29c160.71,43.28 114.26,-100.63 153.74,-203.97 31.93,-83.55 121.08,-144.14 195.96,-198.8 89.52,-65.33 146.93,-118.65 173.24,-244.24 15.47,-73.85 45.66,-143.75 88.04,-207.32 57.75,-86.65 51.12,-278.97 51.12,-386.24 0,-122.02 35.1,-306.22 144.84,-360.68 148.16,-73.52 133.07,-90.32 224.36,-201.64 58.45,-71.26 141.33,-76.9 190.28,-178.92 63.02,-131.37 219.63,-343.64 394.76,-343.64 127.88,0 186.36,-157.72 258.44,-235.72 57.74,-62.47 115.5,-124.96 173.24,-187.44 36.5,-39.48 -102.16,-172.72 -45.44,-298.2 21.93,-48.5 35.91,-247.74 53.96,-269.8 25.27,-30.86 80.75,-72.71 110.76,-85.2 96.33,-40.12 229.22,-189.41 281.16,-266.96 32.25,-48.17 32.21,-98.3 25.56,-156.2 -4.72,-41.05 -22.72,-72.58 -22.72,-116.44 0,-26.83 28,-33.27 39.76,-56.8 18.69,-37.41 49.16,-80.53 59.64,-119.28 4.84,-17.9 11.11,-39.56 17.04,-56.8 5.94,-17.24 2.91,-25.75 -8.52,-36.92 -18.74,-18.29 -38.36,-106.48 -14.2,-130.64 17.9,-17.9 75.53,3.59 96.56,-22.72 14.44,-18.06 34.47,-87.09 56.8,-99.4 24.09,-13.27 48.19,-26.56 72.29,-39.85"/>
   <path class="fil2 str2" d="M7737.87 15574.03c-2.85,-8.58 -6.23,-25.56 -12.55,-31.07 -4.26,-3.7 -5.51,-3.75 -8.52,-8.52 -6.67,-10.6 -43.04,-33.4 -53.96,-45.44 -19.13,-21.12 -53.95,-74.37 -45.44,-105.08 3.55,-12.8 64.09,-84.35 22.72,-99.4 -5.47,-1.98 1.34,-1.64 -2.84,-5.68 -3.84,-3.73 -0.33,-5.44 -5.68,-5.68 -111.35,-5.13 -113.75,-106.76 -167.56,-178.92 -36.86,-49.45 -17.13,-89.86 -34.08,-139.16 -1.74,-5.06 -1.91,-1.88 -5.68,-5.68 -3.74,-3.76 -9.53,-0.7 -11.36,-5.68 -14.13,-38.48 -81.96,-242.88 -48.28,-269.8 23.12,-18.47 15.87,-42.04 19.88,-79.52 0.47,-4.39 4.75,-10.41 8.52,-14.2 3.75,-3.75 9.75,-0.63 11.36,-5.68 21.54,-67.57 -17.48,-134.74 11.36,-201.64 5.86,-13.59 36.02,-15.41 36.92,-25.56 7.94,-89.66 -40.66,-114.98 -34.08,-210.16 0.49,-7.1 18.49,-10.07 28.4,-25.56 22.42,-35.07 22.57,-48.96 5.68,-93.72 -3.53,-9.38 -15.71,-14.46 -28.4,-19.88 -2.67,-1.13 -8.36,-5.63 -8.52,-8.52 -2.69,-46.53 36.97,-122.26 51.12,-173.24 30.19,-108.69 2.41,-210.67 62.48,-306.72 64.6,-103.27 -29.21,-184.59 -119.28,-218.68 -11.99,-4.54 -8.97,-23.84 -14.2,-34.08 -2.04,-3.98 -40.36,-36.88 -45.44,-39.76 -13.76,-7.79 -21.6,-81.1 -25.56,-96.56 -1.17,-4.57 -0.63,-8.43 -5.68,-11.36 -15.69,-9.13 -7.24,-79.08 2.84,-93.72 14.98,-21.77 37.13,-51.42 31.24,-79.52 -1.39,-6.68 -46.23,-7.43 -51.12,-11.36 -29.43,-23.71 -102.03,-118.52 -113.6,-153.36 -1.08,-3.28 -6.41,-14.2 -11.36,-14.2 -1.89,0 -3.78,0 -5.68,0 -34.27,0 -255.1,-5.75 -303.88,-25.56 -143.97,-58.5 -23.81,-194.3 -218.68,-190.28 -4.9,0.1 -5.28,8.38 -8.52,2.84 -13.51,-23.02 -171.23,-165.37 -190.28,-167.56 -91.36,-10.49 -36.69,68.39 -173.24,-68.16 -0.93,-0.94 -1.57,-2.42 -2.84,-2.84 -1.79,-0.59 -3.78,0 -5.68,0 -4.82,0 -6.44,-7.86 -8.52,-2.84 -27.26,65.9 -149.18,-35.83 -164.72,-76.68 -16.71,-43.89 -37.21,-158.72 -82.36,-176.08 -24.2,-9.31 -49.45,56.8 -88.04,56.8 -97.06,0 -153.42,-229.69 -210.16,-258.44 -21.66,-10.98 -46.12,-87.53 -62.48,-107.92 -23.68,-29.53 5.86,-107.79 0,-147.68 -0.95,-6.49 -0.74,-3.02 -8.52,-8.52 -4.33,-3.07 -0.76,-9.37 -5.68,-11.36 -28.38,-11.52 20.84,-101.52 25.56,-116.44 12.66,-40 -43.61,-165.5 -56.8,-213 -19.66,-70.82 26.6,-57.3 39.76,-99.4 10.26,-32.86 -56.79,-89.61 -28.4,-119.28 36.83,-38.47 128.42,-16.21 17.04,-68.16 -29.19,-13.62 -18.96,-23.18 -5.68,-59.64 1.67,-4.58 4.53,-5.68 8.52,-5.68 1.9,0 3.79,0 5.68,0 4.62,0 1.37,0.98 5.68,-2.84 5.05,-4.46 0.41,-9.76 2.84,-17.04 18.58,-55.43 39.06,-126.15 45.44,-181.76 3.48,-30.33 13.2,-58.93 19.88,-88.04 3.31,-14.43 25.68,-42.73 53.96,-34.08 78.8,24.09 63.32,-8.55 110.76,-85.2 31.29,-50.54 55.17,-108.78 93.72,-156.2 46.72,-57.49 24.77,-182.93 85.2,-266.96 46.57,-64.77 68.16,5.15 68.16,-82.36 0,-109.26 1.99,-218.67 19.88,-335.12 8.75,-56.96 11.84,-263.38 -36.92,-320.92 -47.32,-55.85 -94.67,-111.7 -142,-167.56 -53.24,-62.82 -179.88,-88.01 -178.92,-210.16 0.08,-11.39 4.25,-22.78 2.84,-34.08 -0.76,-6.1 -0.48,-14.68 -5.68,-19.88 -1.88,-1.89 -3.79,-3.78 -5.68,-5.68 -6.5,-6.5 -9.77,-15.51 -14.2,-22.72 -3.39,-5.54 -12.69,-15.02 -17.04,-19.88 -13.5,-15.04 -23.32,-31.81 -34.08,-48.28 -4.58,-7 -8.3,-16.82 -14.2,-22.72 -4.6,-4.6 -11.88,-9.04 -17.04,-14.2"/>
   <path class="fil2 str2" d="M7640.12 7599.48c-23.13,100.26 -45.64,253.42 -34.08,357.84 8.22,74.23 159.14,44.3 142,133.48 -25.86,134.47 103.33,167.94 36.92,318.08 -40.58,91.74 60.62,227.19 105.08,306.72 24.79,44.36 -9.76,105.4 22.72,147.68 53.16,69.17 68.07,105.36 45.44,195.96 -15.62,62.51 -7.81,254.67 11.36,329.44 24.62,96.05 -22.06,178.83 31.24,275.48 35.4,64.17 29.11,133.44 56.8,187.44 25.48,49.67 58.09,87.72 71,142 8.21,34.51 9.38,81.75 11.36,116.44 3.41,59.55 59.64,98.13 59.64,161.88 0,66.53 -37.86,118.9 -22.72,184.6 1.56,6.76 14.53,13.09 19.88,17.04 5.92,4.38 1.58,3.12 8.52,5.68 53.29,19.62 -10.81,136.79 5.68,184.6 24.07,69.82 57.18,162.3 88.04,232.88 59.82,136.78 159.81,256.51 213,386.24 83.5,203.61 161.47,434.7 309.56,602.08 76.78,86.77 151.39,124.14 187.44,241.4 16.37,53.25 146.73,215.27 25.56,249.92 -4.68,1.33 -8.43,7.74 -8.52,11.36 -3.4,123.25 -46.65,245.48 -25.56,363.52 29.5,165.16 173,93.8 215.84,190.28 9.66,21.76 34.08,154.06 34.08,178.92 0,63.42 -55.56,70.88 -45.44,116.44 17.04,76.67 34.08,153.37 51.12,230.04 9.93,44.72 120.08,108.84 144.84,147.68 53.72,84.3 76.88,267.08 5.68,346.48 -92.79,103.49 -28.4,127.26 -28.4,261.28 0,38.3 110.9,42.96 136.32,119.28 15.47,46.42 -1.73,102.97 17.04,144.84 34.11,76.12 139.16,99.04 139.16,198.8 0,50.25 -34.08,72.56 -34.08,105.08 0,42.09 72.1,51.59 73.84,90.88 5.98,135.09 37.46,142.42 144.84,201.64 92.06,50.78 11.09,111.43 147.68,161.88 17.97,6.64 42.67,88.48 56.8,76.68 17.23,-14.37 41.15,-8.88 51.12,-2.84 4.17,2.53 5.76,4.55 5.68,8.52 -1.88,89.93 -3.8,179.86 -5.68,269.8 -0.09,4.68 5.91,13.29 11.36,17.04 16.22,11.14 -5.87,49.24 0,59.64 3.67,6.52 65.32,22.14 65.32,22.72 0,1.89 0,3.78 0,5.68 0,7.76 0,45.73 0,56.8 0,32.29 72.6,137.36 102.24,150.52 8.04,3.57 32.09,17.81 36.92,25.56 39.29,62.94 91.96,58.71 122.12,156.2 14.23,45.98 131.09,283.51 164.72,306.72 51.57,35.61 73.9,54.02 119.28,99.4 36.58,36.58 104.84,-31.98 139.16,5.68 6.99,7.66 108.18,30.72 116.44,34.08 38.67,15.72 47.09,91.43 96.56,107.92 40.26,13.42 119.3,-14.08 136.32,-11.36 50.33,8.03 94.87,-42.89 127.8,-14.2 56.83,49.49 116.36,-7.34 164.72,8.52 17.81,5.83 135.63,8.55 170.4,5.68 44.55,-3.69 285.9,-201.27 303.88,-241.4 25.04,-55.86 152.17,-131.05 210.16,-153.36 96.7,-37.19 109.44,-106.53 178.92,-144.84 103.25,-56.95 275.32,-77.13 383.4,-136.32 56.88,-31.16 125.31,-87.05 184.6,-102.24 43.84,-11.24 136.09,87.71 167.56,42.6 64.47,-92.38 24.35,-59.64 107.92,-59.64 96.97,0 80.28,-19.06 147.68,53.96 32.68,35.39 63.97,-8.52 99.4,-8.52 39.29,0 190.74,56.8 289.68,56.8 1.89,0 3.78,0 5.68,0 13.14,0 63.32,12.85 82.36,8.52 10.81,-2.46 24.61,-0.37 31.24,5.68 4.81,4.38 12.06,12.74 17.04,17.04 7.56,6.51 53.8,16.48 62.48,19.88 137.02,53.68 246.75,76.21 400.44,110.76 4.26,0.96 11.1,2.55 11.36,8.52 5.05,112.74 84.19,13.19 102.24,31.24 48.29,48.29 61.43,160.48 136.32,230.04 33.82,31.4 195.24,68.27 221.52,99.4 34.89,41.35 249.24,228.27 298.2,244.24 66.74,21.76 143.72,184.65 207.32,238.56 71.6,60.68 74.18,151.37 178.92,170.4 133.6,24.27 135.61,142.3 232.88,195.96 47.08,25.96 165.62,136.04 224.36,147.68 5.3,1.05 5.21,0.58 8.52,5.68 21.34,32.94 15.95,131.58 59.64,153.36 29.75,14.84 90.29,55.22 93.72,85.2 1.12,9.83 18.36,77.41 19.88,82.36 7.95,25.88 38.64,69.15 53.96,102.24 3.7,7.98 4.44,4.01 14.2,8.52 5.62,2.6 30.31,4.21 36.92,8.52 4.66,3.05 7.59,11.57 14.2,17.04 10.89,8.99 14.2,78.77 14.2,93.72 0,56.58 63.91,104.25 85.2,156.2 31.95,77.93 123.55,150.64 193.12,184.6 74.45,36.33 82.57,146.75 178.92,150.52 4.03,0.15 85.25,27.32 93.72,31.24 16.05,7.41 36.2,29.37 54.42,29.37 12.57,0 44.47,-16.96 56.89,-5.7 5.46,4.94 16.1,68.97 25.6,84.09 21.54,34.24 87.52,18.8 119.48,38.48 20.38,12.56 39.05,93.85 31.29,114.02 -6.86,17.85 -34.61,26.49 -39.83,47.03 -2.1,8.24 4.26,20.39 5.69,28.51 2.84,16.07 -3.31,24.82 -14.22,31.36 -15.97,9.56 -31.48,24.1 -36.98,39.9 -6.1,17.54 -12.22,35.08 -18.33,52.62"/>
   <path class="fil2 str2" d="M16599.04 18393.04c21.04,-10.33 58.36,-11.37 86.6,-25.5 70.85,-35.44 88.45,-9.67 116.63,45.6 23.74,46.54 18.07,90.72 88.19,61.29 23.03,-9.67 46.84,-18.54 72.54,-17.1 22.41,1.26 43.47,9.42 66.84,8.55 30.74,-1.14 72.75,-22.05 105.26,-28.51 27.57,-5.47 48.08,-14.89 78.22,-18.52 5.32,-0.64 21.18,-13.95 27.03,-15.68 25.68,-7.64 51.38,-15.27 77.08,-22.91"/>
   <path class="fil2 str2" d="M16913.12 18465.61c10.02,13.37 18.58,28.24 28.54,41.6 4.89,6.57 15.24,11.41 22.76,14.25 10.64,4.01 21.68,9.21 32.71,11.41 28.66,5.72 58.64,-1.59 86.76,-2.85 41.68,-1.87 73.48,-13.58 106.68,17.1 25.54,23.61 51.56,24.79 81.07,31.35 21.3,4.73 42.6,9.48 63.9,14.23"/>
   <path class="fil2 str2" d="M9790 6222.08c24.88,99.52 77.25,128.98 11.36,218.68 -64.64,87.98 8.09,237.24 36.92,323.76 22.5,67.55 -16.2,139.84 19.88,210.16 54.6,106.45 40.6,295.78 71,417.48 17.5,70.04 132.34,207.3 147.68,284 8.51,42.6 17.04,85.21 25.56,127.8 2.02,10.12 26,18.36 28.4,28.4 19.72,82.18 61.53,112.4 17.04,213 -37.7,85.23 -1.3,178.14 -2.84,266.96 -1.8,104.39 33.3,289.37 59.64,394.76 44.45,177.88 -43.36,401.72 45.44,579.36 24.32,48.64 98.7,250.97 130.64,269.8 102.5,60.46 28.42,50.16 156.2,130.64 75.38,47.48 299.08,271.15 71,352.16 -68.45,24.31 -139.21,87.78 -195.96,133.48 -89.79,72.3 -113.6,-7.77 -113.6,133.48 0,54.07 14.2,137.37 14.2,264.12 0,2.84 0,5.68 0,8.52 0,5.02 5.75,14.95 11.36,17.04 131.48,49.04 199.68,186.82 139.16,278.32 -86.05,130.12 44.01,328.85 122.12,391.92 182.96,147.76 375.67,304.24 457.24,533.92 54.28,152.82 84.55,147.87 210.16,238.56 105.66,76.3 116.44,147.31 116.44,269.8 0,94.46 39.76,142.81 39.76,224.36 0,45.53 -34.6,79.01 -17.04,130.64 31.24,91.81 62.48,183.66 93.72,275.48 37.04,108.89 51.42,60.14 119.28,116.44 37.57,31.18 18.61,99.59 36.92,147.68 31.89,83.79 -21.56,64.18 -36.92,122.12 -18.48,69.73 97.38,262.21 139.16,320.92 44.16,62.07 108.35,90.27 102.24,176.08 -16.39,230.17 422.77,146.36 335.12,391.92 -3.81,10.68 -15.37,20.22 -25.56,25.56 -22.8,11.94 -24.84,59.28 -11.36,62.48 50.95,12.08 80.9,83.61 113.6,113.6 23.48,21.54 38.37,3.33 71,14.2 55.4,18.45 40.29,-4.46 79.52,-19.88 6.23,-2.45 1.29,-6.3 5.68,-8.52 6.85,-3.46 12.03,-1.66 17.04,2.84 4.19,3.78 5.13,4.01 8.52,8.52 5.48,7.27 32.3,3.1 36.92,11.36 21.49,38.34 49.34,91.2 65.32,139.16 16.48,49.5 -10.5,93.19 5.68,150.52 14.34,50.79 25.56,100.36 25.56,156.2 0,93.49 67.57,141.36 19.88,227.2 -40.8,73.42 50.2,318.36 73.84,394.76 24.4,78.88 10.83,141.47 73.84,204.48 25.29,25.29 117.4,63.26 147.68,96.56 18.93,20.81 37.86,41.65 56.8,62.48"/>
   <path class="fil2 str2" d="M1000 3248.6c14.31,-5.29 14.67,2.28 20.08,-5.68 12.98,-19.11 55.95,-64.72 71,-85.2 53.98,-73.49 116.2,-109.86 187.44,-159.04 130.54,-90.13 101.6,-259.88 107.92,-397.6 2.95,-64.35 23.12,-137.81 53.96,-195.96 32.36,-60.99 59.12,-38.62 102.24,-28.4 4.42,1.05 51.06,87.77 56.8,90.88 27.88,15.12 55.76,30.25 83.64,45.37"/>
   <path class="fil2 str2" d="M2156.71 2215.09c4.86,19.66 6.63,21.16 -9.15,33.83 -40.57,32.55 -1.51,172.31 31.24,195.96 52.77,38.09 93.57,-35.88 122.12,-68.16 27.51,-31.09 36.25,-61.57 76.68,-79.52 27.2,-12.07 58.43,-32.87 79.52,-53.96 30.28,-30.28 -43.82,-95.41 -45.44,-136.32 -3.25,-82.09 26.18,-104.7 96.56,-88.04 12.66,3 27.1,15.74 39.76,28.4 10.86,10.86 21.95,21.96 25.56,36.92 8.02,33.14 17.04,72.31 17.04,110.76 0,64.75 -7.26,140.82 68.16,156.2 49.25,10.05 131.86,-20.78 153.36,-62.48 14.28,-27.72 22.92,-117.74 59.64,-130.64 78.34,-27.54 156.7,-55.08 235.05,-82.63"/>
   <path class="fil2 str2" d="M4481.39 1000c0,5.23 5.55,16.22 17.87,25 57.58,41.05 136.67,21.03 180.63,91.21 24.14,38.52 44.42,79.63 93.87,91.22 43.7,10.25 123.74,-14.98 123.74,35.63 0,3.32 0,6.65 0,9.98 0,32.86 -48.73,17.02 -61.15,55.58 -25.38,78.79 44.11,70.52 88.18,61.29 59.82,-12.53 38.09,68.82 68.27,96.92 6.98,6.49 150.28,118.38 160.72,114.02 31.99,-13.36 35.28,-45.61 72.54,-45.61 79.9,0 60.55,47.62 122.32,-35.63 62.02,-83.61 127.33,-18.75 197.7,8.55 100.14,38.84 117.06,81.74 177.79,162.48 63.77,84.76 52.16,53.73 147.92,7.13 59.17,-28.8 106.85,51.46 172.1,59.86 65.23,8.39 99.98,28.97 160.72,48.46 78.02,25.05 211.92,-91.16 253.17,-37.06 91.73,120.33 120.46,-59.32 211.93,4.27 33.3,23.14 38.11,71.54 62.58,104.05 34.62,46.02 68.57,23.91 113.79,12.83 51.4,-12.59 93.55,-73.86 123.8,-30.22 31.83,45.94 -57.42,148.52 -5.68,195.96 21.4,19.61 92.98,-44.74 136.32,-39.76 48.57,5.57 -1.38,195.81 113.6,127.8 79.93,-47.29 83.91,-72.69 170.4,-68.16 4.86,0.25 25.16,16.81 25.56,17.04 20.83,12.25 32.37,42.83 48.28,59.64 8.35,8.87 18.56,21.3 28.4,28.4 8.53,6.12 12.57,5.68 22.72,5.68 26.94,0 122.4,-0.35 147.68,56.8 63.62,143.85 101.13,22.94 195.96,11.36 165.24,-20.17 226.35,-81.32 340.8,62.48 29,36.45 100.86,39.53 116.44,79.52 32.66,83.82 -5.82,134.43 56.8,218.68 60.66,81.59 112.78,217.4 198.8,255.6 40.65,18.05 56.59,347.94 51.12,386.24"/>
   <path class="fil2 str2" d="M7274.45 2084.37c13.48,113.97 -21.46,151.24 -119.97,249.75 -0.94,0.94 -1.89,1.89 -2.84,2.84 -0.93,0.93 -1.89,1.89 -2.84,2.84 -66.51,66.51 -144.83,138.74 -73.84,201.64 93.09,82.5 174.17,-35.73 181.76,144.84 4.23,100.61 43.77,130.18 124.96,173.24 75.74,40.18 92.81,20 130.64,99.4 51.22,107.52 50.97,141.51 161.88,210.16 37.41,23.16 191.29,98.19 207.32,130.64 4.47,9.04 78.8,166.2 119.28,198.8 77.7,62.56 147.68,90.57 147.68,204.48"/>
  </g>
  <use x="6013.96" y="7963.36" width="256.13" height="256.13" xlink:href="#Symbole1"/>
  <use x="3972.11" y="3533.87" width="105.38" height="105.38" xlink:href="#Symbole2"/>
  <use x="8226.01" y="5590.03" width="105.38" height="105.38" xlink:href="#Symbole2"/>
  <use x="14883.39" y="9242.27" width="105.38" height="105.38" xlink:href="#Symbole2"/>
  <use x="9811.15" y="7112.27" width="105.38" height="105.38" xlink:href="#Symbole2"/>
  <use x="3744.91" y="11128.03" width="105.38" height="105.38" xlink:href="#Symbole2"/>
  <use x="3949.39" y="13615.87" width="105.38" height="105.38" xlink:href="#Symbole2"/>
  <use x="8873.95" y="12014.11" width="105.38" height="105.38" xlink:href="#Symbole2"/>
  <use x="18160.75" y="15361.19" width="105.38" height="105.38" xlink:href="#Symbole2"/>
  <use x="6948.43" y="17444.19" width="105.38" height="105.38" xlink:href="#Symbole2"/>
  <use x="10146.27" y="20624.99" width="105.38" height="105.38" xlink:href="#Symbole2"/>
  <use x="16695.31" y="19062.99" width="105.38" height="105.38" xlink:href="#Symbole2"/>
  <use x="16343.15" y="16262.75" width="105.38" height="105.38" xlink:href="#Symbole2"/>
  <use x="6556.51" y="10224.91" width="105.38" height="105.38" xlink:href="#Symbole2"/>
  <use x="3602.91" y="8787.87" width="105.38" height="105.38" xlink:href="#Symbole2"/>
  <use x="7539.15" y="7134.99" width="105.38" height="105.38" xlink:href="#Symbole2"/>
  <use x="3256.43" y="5851.31" width="105.38" height="105.38" xlink:href="#Symbole2"/>
  <use x="7618.79" y="20629.31" width="105.38" height="105.38" xlink:href="#Symbole2"/>
  <use x="5402.63" y="20318.27" width="105.38" height="105.38" xlink:href="#Symbole2"/>
  <use x="13524.04" y="19043.11" width="105.38" height="105.38" xlink:href="#Symbole2"/>
  <use x="9963.3" y="4360.74" width="105.38" height="105.38" xlink:href="#Symbole2"/>
  <use x="6209.39" y="6817.19" width="105.38" height="105.38" xlink:href="#Symbole2"/>
  <use x="5528.99" y="7137.95" width="105.38" height="105.38" xlink:href="#Symbole2"/>
  <use x="9762.05" y="9874.13" width="105.38" height="105.38" xlink:href="#Symbole2"/>
  <use x="8965.01" y="12950.51" width="105.38" height="105.38" xlink:href="#Symbole2"/>
  <use x="15623.21" y="13689.23" width="105.38" height="105.38" xlink:href="#Symbole2"/>
  <use x="11736.37" y="17770.83" width="105.38" height="105.38" xlink:href="#Symbole2"/>
  <path class="fil1 str3" d="M16877.66 20990.01c6.06,-97.41 36.42,-166.11 82.49,-249.42 41.07,-74.29 63.17,-169.81 91.03,-249.42 21.69,-62 23.41,-141.29 31.29,-206.66 2.67,-22.17 10.52,-256.46 -42.67,-179.58 -29.85,43.13 -48.53,69.9 -38.4,123.99 3.6,19.21 52.95,121.08 22.75,122.58 -44.1,2.2 -64.03,-71.27 -106.67,-71.27 -16.21,65.08 -20.42,88.66 0,155.36 6.73,21.97 20.19,142.03 -25.6,75.53 -69.77,-101.3 -56.89,212.42 -56.89,246.57 -10.58,41.26 -1.43,92.17 -1.43,135.4 0,64.92 0.24,135.46 -42.66,186.71 -36.07,43.11 57.49,72.68 66.84,105.47 11.91,2.37 27.4,16.89 39.83,21.38 42.87,15.52 2.8,-61.18 1.42,-75.54 -3.69,-38.51 -22.76,-71.31 -22.76,-114.02l1.43 -27.08zm116.63 -1274.18c0,-51.23 -27.11,-77.81 0,-131.12 9.65,-18.99 5.32,-42.22 15.64,-64.14 10.9,-23.13 42.56,-35.44 51.2,-52.73l4.27 0c11.16,14.89 13.09,83.12 9.96,102.61 -9.38,58.4 -9.96,128.06 -9.96,188.14 0,25.71 -5.45,58.1 -14.22,81.24 -8.52,22.5 -31.12,50.03 -34.14,71.26 -0.77,0.25 -12.57,14.74 -12.8,15.68 -6.04,1 -0.21,0.07 -4.26,1.42 -1.1,4.42 -9.47,7.13 -14.23,7.13l-1.42 -2.85c-25.7,-6.42 -21.36,-71.26 -9.96,-88.37 20.39,-30.57 27.03,-49.52 27.03,-89.79l-7.11 -38.48zm938.72 -2277.56c0,-29.37 -25.29,-93.95 -41.24,-119.72 -12.49,-20.2 -27.44,-45.02 -8.54,-59.86 33.68,-26.47 66.62,-86.98 76.81,-128.28 9.12,-36.95 12.46,-107.92 34.13,-136.82 34.71,8.64 56.43,2.85 91.03,2.85l1.42 1.42c0,26.24 -12.59,58.64 -17.06,85.52 -10.16,61.15 -8.54,119.92 -8.54,182.43 0,47.59 -15.85,68.99 -38.4,108.32 -25.68,44.81 -34.06,100.66 -54.05,146.8 -1.84,4.25 -15.42,55.74 -25.6,44.19 -12.85,-14.6 -2.85,-74.39 -2.85,-94.07l-7.11 -32.78zm-362.69 910.74c11.73,-38.11 42.51,-85.33 58.32,-126.85 25.19,-66.18 85.86,-141.38 135.12,-193.83 35.47,-37.75 178.44,-248.34 116.63,-286.48 -24.28,-14.97 -40.31,-55.34 -66.85,-64.14 -17.74,-5.89 -19.84,111.18 -22.76,131.13 -5.06,34.58 -24.18,85.61 -24.18,115.44l-1.42 1.43c-11.41,0 -13.49,-37.32 -17.07,-47.04 -14.31,-38.76 -28.23,-55.86 -29.87,-99.76 -0.5,-13.45 -3.2,-87.41 -12.8,-89.8 -7.54,37.94 -47.77,80.08 -64,116.88 -31.81,72.16 -71.29,136.5 -86.76,215.21 -7.5,38.14 -23.45,113.26 -51.21,141.1 -42.94,43.05 -46.74,64.34 -21.33,115.45 15.55,31.26 18.35,84.74 46.94,95.49l41.24 -24.23zm-180.63 -657.05c-19.76,0 -31.88,0.59 -46.94,15.68 -9.98,10.01 -15.43,25.96 -19.91,38.48 -3.1,8.65 -0.8,15.72 4.27,22.81 8.29,11.61 14.36,34.38 15.64,48.46 1.39,15.19 6.06,28.18 9.96,39.9 10.6,0 35.38,-53.86 39.82,-65.56 3.78,-9.98 2.78,-19.1 5.69,-28.5 3.05,-9.89 14.49,-27.09 8.54,-37.06l-17.07 -34.21zm1541.79 -2153.72c6.39,12.92 12.8,25.9 12.8,41.49 2.19,0.73 1.42,-0.03 1.42,2.85 0,56.65 65.78,31.28 95.3,17.11 19.17,-9.21 52.91,-56.37 66.84,-28.51 16.53,33.08 25.89,73.09 28.45,109.75 4.9,69.97 -24.87,36.84 -64,49.88 0,36.16 9.43,67.92 -22.76,91.22 -49.88,36.12 -98.31,78.23 -159.3,92.64 -13.92,3.29 -28.67,6.16 -41.25,12.83 -20.93,11.11 -34.13,23.66 -34.13,-7.13 0,-27.84 -8.18,-47.03 -14.23,-71.26l-2.84 0c-0.65,-1.98 -32.4,1.42 -38.4,1.42 -4.92,-14.78 -11.93,10.01 -12.8,12.83 -43.13,140.23 -119.54,26.6 -192.02,8.55 -0.94,-3.77 -13.97,-17.1 -17.06,-17.1 -0.59,-1.78 -4.47,-2.85 -7.11,-2.85 -0.73,2.19 0.03,1.42 -2.85,1.42 -0.63,1.91 -1.88,2.26 -4.27,2.85 -13.01,52.23 67.24,75.78 79.65,125.42 -9.45,24.48 87.13,87.94 120.9,94.07 64.51,11.73 128.9,-26.53 48.36,42.76l-140.81 121.15c-10.49,9.02 -65.92,86.4 -71.12,71.26 -13.33,-38.79 -10.55,-58.44 -61.16,-58.44 -40.07,0 -56.98,-14.09 -92.45,-25.65 -66.16,-21.58 -91.21,4.08 -147.92,-52.74 -29.46,-29.53 -35.04,-77.92 -62.58,-105.46 -22.41,-22.41 -4.26,185.08 -81.07,81.24 -22.43,-30.31 -25.49,-70.28 -55.47,-94.07 -17.46,-13.86 -56.54,-24.62 -65.43,-51.31 12.11,48.46 50.64,154.45 95.3,178.16 72.75,38.61 110.64,-2.84 147.92,81.24 12.83,28.96 -115.29,18.04 -149.34,28.5 -113.62,34.89 -87.29,-103.08 -143.66,-159.63 -3.26,-3.26 6.04,54.33 12.8,85.52 12.86,59.39 68.41,112.21 132.28,122.57 51.52,8.35 126.19,12.44 164.99,51.31 21.75,21.8 32.07,60.99 65.42,71.26 39.02,12.03 90.39,-78.17 96.72,5.7 4.05,53.6 -60.27,117.3 -91.03,159.63 -38.75,74.18 -112.91,126.12 -182.05,195.26 -198.1,198.1 -85.14,-188.41 -93.88,-279.35 -4.68,-48.66 -69.25,-87.58 -100.98,-135.4 -33.22,-50.05 -94.93,113.59 -110.94,143.95 -17.05,32.35 -21.51,67.26 -36.98,98.35 -13.9,27.91 -28.86,1.04 -41.25,31.35 -17.22,42.09 -102.29,9.98 -147.92,9.98 -23.64,0 18.64,-88.29 -14.22,-121.15 -18.22,-18.22 -3.65,-118.93 -22.76,-99.77 -33.43,33.53 -63.59,-4.27 -93.87,-4.27 -54.64,0 -46.43,20.45 -96.72,-29.93 -10.58,-10.61 -22.76,-21.37 -35.56,-27.08 -55.12,-24.58 -27.67,-28.79 -45.51,32.78 -23.84,82.24 -114.95,106.12 31.29,133.97 69.94,13.31 130.36,40.8 179.21,89.79 26.02,26.08 -34.13,167.62 -34.13,219.49 0,114.16 92.42,-117.22 133.69,-34.2 17.64,35.47 46.84,1.42 76.81,1.42 11.6,0 -11.85,66.23 -15.65,75.54 -17.45,42.76 -39.16,74.41 -62.58,112.6 -12.84,20.92 -48.69,49.85 -56.89,8.55 -5.29,-26.67 -0.76,-87.33 -31.29,-54.16 -35.28,38.31 -60.73,26.87 -39.83,-24.23 0.98,-2.42 -39.96,-72.23 -54.05,-89.79 0,30.77 -37.84,96.56 -73.96,64.13 -28.63,-25.72 -35.05,-83.64 -64,-112.59 0,61.8 -13.78,157.25 49.78,190.98 57.7,30.63 37.47,51.53 -28.45,68.42 -53.36,13.66 -33.05,40.24 -22.75,76.96 7.27,25.89 -11.98,87 34.13,69.84 31.58,-11.76 66.56,-42.76 100.99,-42.76 42.64,0 50.33,38.76 106.67,21.38 59.32,-18.29 50.33,-16.08 75.38,34.2 -13.05,76.4 -69.34,353.47 -173.52,353.47 -37.69,0 26.08,-126.11 35.56,-142.53 12.32,-21.31 67.92,-98.22 46.94,-88.36 -45.79,21.5 -63.32,-10.94 -98.14,-31.36 -0.69,-0.41 12.58,35.13 14.22,47.03 11.74,84.91 -54.05,103.57 -54.05,179.59 0,21.32 1.58,50.06 -7.11,68.41 -10.66,22.48 -25.5,-26.87 -32.71,-37.06 -23.59,-33.36 -57.37,18.43 -75.39,-25.65 -19.05,-46.58 -18.84,-16.41 -28.44,8.55 -43.3,112.62 -73.14,106.89 -179.21,106.89 22.54,7.51 27.32,48.19 51.2,55.59 42.48,13.15 130.85,-94.89 130.85,-37.06 0,29.47 -12.86,91.15 7.11,111.17 16.62,16.65 48.84,23.26 55.47,47.04 33.48,120.14 -100.45,163.63 -130.85,255.12 -57.33,50.53 -4.09,120.56 42.67,153.93 42.98,30.66 77.52,33.98 99.56,86.94 19.4,46.59 36.98,128.15 36.98,179.58 0,22.08 -23.99,64.76 -17.07,82.66 7.34,19.02 51.44,17.17 58.32,41.34 20.96,8.38 24.87,38.16 52.62,44.18 75.66,16.41 49.8,-33.43 75.39,49.88 8.56,27.9 36.73,90.14 59.73,105.47 0,21.45 -37.64,53.93 -49.78,81.24 -7.1,73.64 -13.32,201.37 -103.83,95.49 -38.98,-45.61 -4.26,-174.51 -4.26,-232.31 -97.3,-32.43 -100.54,85.63 -122.32,159.63 -19.97,67.81 -64.01,163.66 -64.01,233.74 21.31,0 92.91,-116.57 110.95,-138.25 5.3,-6.38 38.19,-51.79 44.09,-39.91 4.4,8.84 11.87,32.48 21.33,35.63 0,19.33 -76.95,97.37 -92.45,116.87 -41.9,52.69 -70.91,124.03 -115.21,178.16 -18.92,23.13 -101.74,54.33 -129.43,42.76 -67.41,-28.19 -2.9,-230.36 9.96,-293.6 5.49,-27.04 -25.73,-53.08 -42.67,-74.12 -27.98,-34.73 -56.76,-76.37 -68.27,-122.57 -11.16,0 -23.2,65.39 -27.03,78.39 -17.45,59.1 -61.77,109.17 -86.76,165.33 -16.81,37.8 -19.68,47.41 -7.11,88.37 10.79,35.13 -28.87,107.94 -35.56,149.65 -5.41,33.71 16.19,79.92 -22.75,95.49 -7.85,-10.76 -14.98,-21.63 -21.34,-32.78 -4.46,-1.11 -5.68,-5.31 -11.38,-5.7 -9.74,-0.68 -20.05,0 -29.86,0 -10.48,0 -19.97,-2.85 -29.87,-2.85 -4.1,-3.28 -12.51,-6.53 -17.07,-8.55 -9.84,-4.35 -13.01,-8.39 -19.91,-17.11 -5.84,-7.37 -5.69,-14.48 -5.69,-24.23 3.15,-18.48 0.68,-42.82 21.33,-51.31 10.13,-4.17 31.29,-13.38 31.29,-25.65 -53.4,0 -91.21,-21.44 -56.89,-74.11 8.14,-12.48 38.15,-80.5 18.49,-92.65 -24.18,-14.93 -61.21,42.16 -54.05,-4.27 10.65,-68.99 -78.22,33.08 -78.22,-82.67 0,-21.09 12.2,-38.44 8.53,-61.28 -6.56,-40.89 -38.83,31.1 -61.16,41.33 -108.64,49.75 -79.34,-96.79 -118.05,-101.19 -3.16,-0.35 2.8,78.71 -2.85,95.49 -11.33,33.58 -56.22,40.1 -62.58,65.56 102.28,0 83.63,40.21 100.99,119.72 16.1,73.79 3.54,79.95 78.22,99.77 26.37,6.99 24.43,58.84 34.14,78.39 11.86,23.85 66.26,12.85 68.27,28.5 5.88,45.88 -9.03,43.98 22.76,88.37 21.34,29.81 9.68,69.37 27.02,98.34 25.29,42.22 -33.49,-14.35 -42.67,-29.93 -17.81,-30.19 -54.19,-31.87 -65.43,-51.31 -7.63,-13.22 -29.78,-156.69 -54.04,-68.41 -7.55,27.51 -37.04,79.68 -14.23,95.49 54.47,37.73 2.47,88.34 15.65,139.68 11.5,44.83 102.6,-2.59 136.54,31.35 -28.24,76.24 -25.86,87.78 38.4,27.08 38.87,-36.71 75.72,135.49 44.1,151.08 -29.3,14.46 -146.39,-27.62 -155.04,7.13 -5.91,1.47 -46.4,50.28 -51.2,58.43 -17.2,29.14 10.05,64.48 0,102.62 -9.08,34.49 -17.35,73.03 -8.53,108.32 47.89,0 65.98,-69.33 126.58,-24.23 22.83,16.98 91.71,6.8 102.41,24.23 11.31,18.45 -6.79,67.48 -14.22,86.94 -17.54,45.89 -43.97,46.57 -27.03,91.22 16.17,42.6 2.3,108.86 -2.84,155.35 16.88,33.85 -0.92,74.98 -8.54,105.47 -28.57,0 -67.58,-168.14 -98.14,-190.98 -19.02,11.41 -74.01,80.39 -91.02,101.19 -22.09,26.99 -44.11,50.85 -76.81,22.8 -64.97,-55.71 -51.9,124.39 17.07,104.05 31.94,-9.41 48.68,-28.51 83.91,-28.51 27.27,0 35.72,5.39 66.85,0 40.54,-7.03 14.23,74.42 14.23,101.2 0,18.58 65.54,63.53 81.07,86.94 25.02,37.69 83.91,35.22 83.91,86.94 -13.21,0 -22.53,-8.55 -36.98,-8.55l-1.42 1.42c0,38.12 1.35,72.73 -4.26,109.75 -4.95,32.72 -14.23,59.91 -14.23,94.06 0,64.84 -95.29,-75.93 -95.29,-1.42 0,13.46 -1.13,107.98 -38.41,78.39 -13.46,-10.68 -30.48,-1.02 -45.01,15.67l0 0 -55.26 -27.79c-9.48,1.51 -20.43,0.81 -22.04,12.12 -2.23,0.37 -9.3,5.87 -9.96,8.55 -3.37,0 -4.83,1.42 -8.53,1.42l-9.96 -48.45c-29.4,-9.8 -39.04,29.28 -66.85,47.03 -20.2,12.9 -22.32,-46.53 -36.98,-55.59 -15.3,-9.44 -71.25,22.36 -102.41,8.56 -9.52,-4.22 -38.74,-75.08 -42.67,-86.95 -6.69,0 -18.28,36.36 -34.13,42.76 -20.6,8.33 -8.53,-31.77 -29.87,-34.2 -106.22,-12.08 -149.75,32.16 -236.1,-62.72 -99.95,-109.84 -79.54,-0.01 -164.99,-21.37 -2.69,-10.81 -25.7,-75.54 -31.29,-75.54 -6.91,-27.77 -182.96,-21.16 -219.04,-31.36 -40.34,-11.4 -82.7,-28.03 -106.67,-61.28 -18.98,-26.31 -30.68,-111.17 -65.43,-111.17 -21.19,35.32 2.27,72.68 -65.43,72.68 -37.29,-24.01 -109.94,-106.42 -133.69,-27.08l-29.87 99.77c-7.17,23.98 -37.44,74.41 -39.83,91.22 -46.55,19.95 -50.62,-23.66 -78.22,-51.31 -10.72,-10.75 -82.5,-35.57 -82.5,-7.13 -5.7,1.9 5.63,27.51 7.11,31.36 16.65,43.33 16.45,99.84 -32.71,119.72 -109.77,44.38 -48.92,101.85 -54.05,192.41 -2.78,49.23 -34.13,99.8 -34.13,146.8 0,31.84 0.66,136.6 36.98,151.08 1.3,9.14 18.29,27.58 22.75,39.91 27.71,65.28 139.09,278.07 88.19,342.06 0,54.32 -34.14,111.45 -34.14,172.45 0,90.23 -8.65,195.46 -46.93,276.5 -19.74,41.78 -31.92,92.41 -45.52,136.83 -17.24,56.28 12.8,90.31 12.8,143.95 -7.04,31.31 -32.88,53.35 -38.4,75.54 -55.05,7.84 -77.35,-1.04 -130.85,-18.53 -74.99,-24.53 -345.86,63.77 -375.49,-55.59 -36.05,-10.28 -43.09,-86.82 -62.59,-99.76 0,-78.16 46.44,-388.08 -46.93,-414.75 -6.99,-24.59 -56.89,-71.3 -56.89,-98.35 -13.82,-6.89 -11.38,-87.44 0,-91.21l0 -4.28c3.59,-1.19 2.83,-8.56 7.11,-9.98 0,-20.92 15.64,-53.33 15.64,-84.09 -2.68,-0.89 -4.85,-11.2 -11.38,-12.82 -0.8,-2.42 -4.89,-3.3 -5.69,-5.7l-2.84 0c-0.73,-2.2 0.06,-1.43 -2.84,-1.43l-9320.99 -585.27c-36.81,-4.45 -238.54,-13.58 -279.67,-7.03l0 0 -14.64 -32.48c-4.59,-23.28 -57.58,-47.94 -71.14,-66.41 -23.62,-32.2 -69.85,-50.57 -98.5,-79.22 -16.35,-16.35 -55.3,-48.56 -60.2,-70.68l-14.35 -75.35c1.06,-44.84 2.13,-89.67 3.19,-134.5 3.58,-151.15 -56.19,-340.88 -167.56,-457.24 -35.55,-37.13 -12.91,-119.14 -25.56,-170.4 -5.87,-23.76 -44.65,-14.48 -59.64,-31.24 -25.51,-28.51 -19.15,-68.46 -8.98,-108.79l0 0c7.66,-30.39 17.5,-61.02 17.5,-87.17 0,-66.62 -24.59,-108.26 -53.96,-161.88 -66.2,-120.87 -120.22,-258.2 -195.96,-380.56 -57.45,-92.79 -129.9,-146.37 -102.24,-269.8 30.15,-134.59 -98.78,-197.28 -22.72,-320.92 78.16,-127.07 73.84,-257.69 73.84,-411.8 0,-92.8 45.6,-170.94 62.48,-252.76 13.82,-66.96 63.08,-229.08 48.28,-286.84 -10.72,-41.83 15.53,-106.31 28.4,-142 19.19,-53.17 -33.58,-113.83 -39.76,-167.56 -7.79,-67.8 -8.01,-135.57 -28.4,-198.8 -1.7,-5.26 -7.4,-9.86 -11.79,-17.54l-17.17 -33.83c-7.72,-1.9 -46.3,-97.76 -51.08,-108.46 -25.29,-56.49 -86.39,-124.71 -80.26,-190.11 -8.32,-2.77 -24.05,-132.37 -27.97,-152.33 -12.3,-62.58 -18.06,-88.17 -57.16,-140.14 -60.51,-80.41 -58.93,-229.99 -37.69,-324.17 4.94,-1.66 10.91,-61.41 12.16,-68.24 5.8,-31.78 7.62,-65 23.1,-93.84l86.34 -160.86c20.22,-37.68 48.63,-71.44 63.24,-110.9l7.41 -92.76c4.73,-21.05 9.47,-42.1 14.19,-63.14 4.97,-22.13 34.46,-57.87 48.28,-79.52 8.91,-13.95 36.37,-60.65 39.76,-71 13.87,-42.38 17.04,-84.97 17.04,-133.48 0,-64.34 -49.27,-133.05 -25.56,-190.28 39.79,-96.01 -53.8,-161.18 39.76,-284 34.4,-45.17 252.76,-166.21 252.76,-184.6 0,-114.86 20.11,-76.68 124.96,-76.68 74.75,0 50.8,-123.69 124.96,-170.4 43.75,-27.55 25.55,-53.71 -14.2,-82.36 -44.5,-32.09 -214.93,-116.85 -261.28,-153.36 -75.27,-59.27 -65.15,-174.62 -17.04,-249.92 29.69,-46.49 22.72,-51.82 22.72,-150.52 0,-4.74 0,-9.47 0,-14.2 0,-147.76 16.75,-187.73 -36.92,-241.4 -80.99,-80.99 -2,-128.1 -90.88,-266.96 -93.08,-145.4 -272.24,-217.98 -258.44,-411.8 4.78,-67.17 -65.32,-43.03 -65.32,-65.32 0,-103.29 52.11,-98.71 -2.84,-195.96 -62.63,-110.86 -33.03,-170.03 -68.16,-275.48 -13.15,-39.47 -79.74,-24.57 -65.32,-85.2 13.83,-58.1 72.46,-70.99 -8.52,-124.96 -54.03,-36.02 -96.17,-101.89 -79.52,-164.72 14.88,-56.1 5.07,-83.68 -32.23,-124.93l-1565.37 -9357.56 0 0 4696.03 0.14 0 0 2538.97 -6.09 42.98 -25.4 1856.98 -25.72 0 0c-14.38,45.49 -37.35,77.59 -49.22,122.64 -13.32,50.58 0,104.28 0,155.35l-1.42 1.42c-50.14,0 -30.28,-3.89 -66.85,28.51 -19.93,17.67 -57.39,-17.86 -79.65,15.68 -32.2,48.53 -6.82,20.08 -52.63,48.46 -41.81,25.91 -60.76,93.92 -89.6,132.54 -33.93,45.46 -143.43,-35.9 -162.15,49.89 -23.83,109.18 -26.81,88.84 -110.94,136.82 0,53.74 6.35,70.81 -11.38,124 -17.33,0 -68.34,-76.92 -79.65,-31.35 -2.75,0.68 -3.58,1.52 -4.26,4.27 -3.18,0.79 -9.1,4.54 -9.96,7.13 -20.46,2.92 -0.97,26.96 0,35.63 1.4,12.4 -16.25,33.85 -25.6,41.33 -21.54,8.35 -39.74,11.88 -58.32,24.23 -6.74,47.4 6.05,101.79 -2.84,148.23 -8.32,43.44 -55.66,69.88 -75.38,114.02 -9.46,21.2 -39.09,62.58 -42.22,95.19 4.42,16.72 5.78,36.72 10.43,60.93 24,124.84 161.67,45.02 207.32,136.32 0.94,1.9 1.9,3.8 2.84,5.68 7.2,14.45 28.96,38.63 34.08,53.96 32.82,98.24 123.48,-13.93 142,82.36 37.56,195.35 61.8,20.55 153.36,105.08 20.62,19.03 95.08,17.4 130.64,-2.84 52,-29.59 3,150.25 93.72,187.44 26.66,10.93 154.51,112.11 164.72,130.64 3.26,5.93 9.47,-2 14.2,2.84 5.05,5.18 4.35,3.95 11.36,8.52 5.62,3.65 1.54,5.87 5.68,8.52 8.1,5.21 20.29,7.72 22.72,17.04 37.13,142.59 232.23,197.09 332.08,288.43 64.24,-19.72 101.92,-27.58 164.98,-47.03 47.05,-14.5 184.43,-36.09 226.86,-2.03 60.43,16.5 78.19,148.95 111.65,200.14 67.73,103.58 59.71,239.19 135.88,344.79 2.35,2.65 10.2,7.56 12.04,11.52 7.54,16.24 30.62,30.66 44.1,42.76 30.22,27.15 42.3,52.42 61.16,86.94 8.8,16.09 10.77,44.63 14.22,62.71 3.55,18.63 -1.62,45.14 7.11,61.29 6.16,11.39 12.32,22.8 18.49,34.21 20.06,25.2 41.75,50.38 59.74,68.41 33.67,33.74 57.22,87.29 82.86,136.02 -6.57,25.61 4.05,88.8 11.16,116.69 7.36,28.91 24.04,80.85 26.87,100.75 13.1,8.69 17.47,102.88 22.93,120.74 15.8,51.73 22.6,68.91 45.74,109.35 70.05,20.15 168.58,98.5 186.09,168.82 47.6,27.2 81.08,136.11 105.87,183.03 39.15,74.06 120.09,81.02 138.6,173.57 -2.17,3.99 -3.19,7.03 -4.26,11.28 -0.78,3.08 -1.48,5.47 -2.84,8.55 -1.55,3.53 -2.77,12.37 -2.14,16.39 0.57,3.62 1.62,7.86 2.85,11.41 1.39,3.97 0.21,8.88 2.84,12.11 5.06,6.2 10.13,12.42 15.2,18.63 48.27,95.78 89.61,225.13 159.03,280.67 116.8,0 149.62,66.26 223.31,145.38 69.02,74.11 157.32,114.89 224.72,182.43 64.88,8.09 167.31,103.65 224.73,139.68 50.1,27.67 116.64,53.75 159.3,91.22 49.76,43.69 58.83,89.93 93.87,133.97 0,44.13 67.69,55.28 89.61,84.09 47.27,62.15 96.04,102.83 115.2,179.58 16.85,67.54 -1.01,158.93 72.54,200.96 13.17,33.11 62.64,46.81 62.64,87.16 -12.17,36.99 6.95,132.13 32.66,160.84 32.58,36.36 118.69,65.9 140.81,99.77 6.47,9.9 63.75,47.84 73.96,57.01 27.23,24.44 51.3,-31.65 73.96,-34.21 24.96,-2.81 36.01,21.01 48.36,38.48 22.89,32.35 87.54,43.06 123.74,54.16 51.83,15.91 110.82,108.09 136.54,156.78 7.59,14.37 58.06,30.21 73.96,42.76 15.3,12.06 46.12,82.18 48.36,101.19 12.25,103.9 91.8,114.58 166.41,168.18 13.44,9.66 45.23,1.3 62.58,9.98 23.45,11.75 36.58,47.3 46.94,72.69 13.95,34.22 21.08,39.84 18.49,74.11 -0.23,3.12 -6.44,6.47 -8.54,7.13 -10.27,3.27 -24.18,2.22 -34.13,7.12 -2.94,1.44 -1.59,5.17 -5.69,8.55 -8.83,7.27 10.16,57.75 5.69,71.27 -8.83,26.69 -48.06,10.76 -68.27,27.08 -10.94,8.84 36.21,37.18 39.82,51.31 9.37,36.73 41.94,83.03 -2.84,105.47 -26.17,13.12 -75.49,4.57 -38.41,49.88 11.08,13.55 15.65,16.1 15.65,34.21 0,25.77 7.9,24.73 24.18,35.63 16.77,11.24 70.33,54.45 89.6,68.41 28.71,20.79 53.25,68.24 81.08,82.66 29.22,15.15 19.2,-14.04 56.89,1.43 62.35,25.61 54.56,12.32 36.98,81.24 -15.65,61.32 114.73,22.54 48.36,122.57 -48.38,72.9 27.82,115 78.23,155.36 36.44,29.16 30.57,56.08 66.84,81.23 44.39,30.79 66.05,18.13 95.3,-41.33 26.54,-53.98 52.56,18.98 64,37.06 18.02,28.49 -4.31,80.48 -9.95,109.74 -23.24,120.54 126.54,272.42 230.41,312.14 46.77,17.89 146.29,83.55 187.75,85.51 29.36,1.38 73.82,-8.04 99.56,-1.42 21.85,5.61 20.51,41.61 39.82,49.88 9.18,3.92 29.83,-6.5 39.83,-4.28 4.04,0.9 4.93,4.31 5.69,8.56 1.53,8.52 1.59,17.42 4.27,25.65 1.19,3.64 2.12,5.18 4.26,8.55 2.38,3.77 7.12,3.44 9.96,5.7 2.9,2.29 5.06,5.86 8.53,7.13 4.3,1.56 7.19,2.55 11.38,2.85 7.84,0.57 15.92,-0.66 22.76,2.85 3.15,1.62 4.81,1.35 7.11,4.28 2.03,2.6 4.71,4.43 7.11,7.12 68.84,77.32 148.95,96.46 217.62,172.46 44.22,48.95 93.12,77.39 103.82,146.8 7.59,49.2 2.43,103.34 -52.62,111.17 -79.44,11.29 51.46,180.67 61.16,212.36 13.33,43.59 2.14,74.12 56.89,74.12 58.7,0 -3.22,36.85 -11.38,62.71 -30.62,97.09 41.94,18.72 86.76,69.84 22.66,25.86 -14.16,79.97 -11.38,109.74 0.36,3.86 5.02,5.28 8.54,7.13 23.77,12.47 43.94,1.1 66.85,8.55 16.67,5.43 30.61,18.85 34.13,29.93 15.28,48.17 26.61,71.49 9.96,115.44 -16.05,42.39 6.47,74.61 0,116.88 -10.51,68.66 67.83,96.72 54.05,168.18 -12.6,65.39 -88.15,144.07 -39.83,192.41 44.84,44.87 49.94,114.23 82.5,155.35 46.26,58.44 -129.54,111.22 -42.67,182.43 36.01,29.53 50.87,97.25 95.29,115.45 71.5,29.28 98.54,113.57 182.06,118.29 54.69,3.09 144.55,0.21 177.79,48.46 26.63,38.67 35.84,83.03 75.38,114.02 68.6,53.79 72.62,39.76 110.94,116.88 34.57,69.59 162.14,83.75 162.14,158.2 0,0.95 0,1.9 0,2.85 0,5.33 -24.37,39.57 -29.86,48.46 -57.82,93.63 20.98,146.28 52.62,220.91 15.51,36.61 7.71,97.38 28.45,129.7 18.72,29.15 36.62,77.99 45.51,106.9 24.93,81.1 118.48,-63.47 100.99,68.41 -7.32,55.23 39.84,91.93 48.35,149.65 10.56,71.68 -77.78,126.29 -109.66,196.6 -1.74,4.36 -1.74,2.66 -2.7,7.22 -8.12,38.5 20.15,33.02 28.45,55.58 1.08,2.93 6.08,5.01 8.53,7.13 3.09,2.69 2.41,1.84 5.69,4.27 1.97,1.45 2.4,2.33 2.85,4.28 1.71,7.27 1.29,15.31 -1.43,21.38 -1.5,3.37 -12.02,2.58 -14.22,7.12 -8.21,16.93 -25.9,20.05 -15.64,41.33 4.57,9.47 26.25,41.77 8.53,48.46 -2.49,0.93 -0.19,5.7 -2.85,5.7 -0.95,0 -1.9,0 -2.84,0 -20.17,0 -26.09,28.02 -17.07,52.74 1.15,3.15 4.27,0.39 4.27,2.85 0,0.95 0,1.9 0,2.85 0,9.88 -19.64,41.61 7.11,48.46 51.35,13.14 47.17,66.89 58.32,114.01 8.51,35.93 -23.79,55.39 7.11,95.5 98.11,127.39 121.08,286.87 332.82,205.23 86.28,-33.27 133.88,-122.69 199.12,-11.4 47.76,81.45 132.76,24.49 166.41,141.1 2.45,8.48 11.15,14.74 18.49,19.25 10.45,6.44 18.35,16.25 27.03,24.94 5.55,5.57 10.38,11.07 17.06,14.96 5.83,3.39 12.48,6.37 18.49,8.56 6.93,2.54 16.32,6.24 24.18,7.83 9.2,1.85 18.26,3.17 27.74,2.85 13.99,-0.47 27.95,-1.1 41.96,-1.58l0 0zm-17931.48 -14538.24l19000 0 0 22334.03 -19000 0 0 -22334.03z"/>
  <path class="fil3 str4" d="M1595.62 21510.48l2176.2 0 0 1592.86 -2176.2 0 0 -1592.86z"/>
  <path class="fil4" d="M2390.17 21694.56l-13.47 29.28 -70.55 0 -15.47 31.28c30.81,4.52 55.04,15.81 72.79,33.98 15.23,15.64 22.82,33.99 22.82,55.15 0,12.29 -2.47,23.7 -7.47,34.11 -5,10.46 -11.29,19.4 -18.87,26.75 -7.53,7.35 -16,13.29 -25.29,17.75 -13.17,6.3 -26.69,9.47 -40.57,9.47 -13.99,0 -24.16,-2.35 -30.57,-7.11 -6.35,-4.71 -9.53,-9.94 -9.53,-15.64 0,-3.18 1.3,-6 3.94,-8.47 2.65,-2.47 6,-3.65 10,-3.65 2.94,0 5.58,0.42 7.82,1.36 2.23,0.88 6,3.23 11.4,6.99 8.59,5.94 17.35,8.88 26.17,8.88 13.4,0 25.22,-5.11 35.39,-15.29 10.12,-10.17 15.23,-22.57 15.23,-37.21 0,-14.12 -4.52,-27.34 -13.58,-39.57 -9.11,-12.29 -21.58,-21.76 -37.57,-28.4 -12.46,-5.18 -29.52,-8.18 -51.09,-9l44.8 -90.66 83.67 0z"/>
  <path id="1" class="fil4" d="M2426.15 21812.86c0,-26.64 4,-49.51 12.05,-68.74 8.06,-19.22 18.7,-33.57 32.05,-42.98 10.29,-7.47 20.99,-11.17 31.98,-11.17 17.94,0 33.99,9.11 48.22,27.34 17.81,22.64 26.69,53.27 26.69,91.96 0,27.05 -3.88,50.09 -11.7,69.03 -7.82,18.93 -17.76,32.63 -29.87,41.21 -12.11,8.53 -23.81,12.82 -35.04,12.82 -22.29,0 -40.81,-13.11 -55.62,-39.39 -12.53,-22.17 -18.76,-48.86 -18.76,-80.08zm33.87 4.23c0,32.1 3.94,58.33 11.82,78.67 6.52,17.11 16.28,25.63 29.22,25.63 6.17,0 12.58,-2.76 19.22,-8.34 6.65,-5.59 11.65,-14.88 15.11,-27.99 5.24,-19.7 7.88,-47.57 7.88,-83.43 0,-26.64 -2.76,-48.86 -8.23,-66.62 -4.11,-13.23 -9.46,-22.58 -15.99,-28.05 -4.65,-3.82 -10.35,-5.7 -16.99,-5.7 -7.76,0 -14.7,3.53 -20.76,10.52 -8.23,9.53 -13.87,24.46 -16.81,44.92 -3,20.41 -4.47,40.52 -4.47,60.39z"/>
  <path id="2" class="fil4" d="M2735.9 21683.27l0 157.16 39.98 -36.63c8.52,-7.82 13.46,-12.76 14.81,-14.82 0.95,-1.41 1.42,-2.76 1.42,-4.17 0,-2.29 -1,-4.23 -2.89,-5.94 -1.88,-1.65 -4.99,-2.59 -9.4,-2.82l0 -5.65 68.61 0 0 5.65c-9.35,0.23 -17.17,1.7 -23.4,4.35 -6.23,2.7 -13.05,7.47 -20.52,14.29l-40.63 37.22 40.34 51.33c11.29,14.05 18.81,23.04 22.58,26.98 5.58,5.24 10.4,8.65 14.58,10.17 2.94,1.12 7.99,1.71 15.17,1.71l0 6.35 -76.73 0 0 -6.35c4.41,-0.12 7.35,-0.76 8.88,-1.94 1.58,-1.24 2.35,-2.88 2.35,-5.06 0,-2.64 -2.3,-6.88 -6.88,-12.7l-48.27 -61.79 0 52.21c0,10.23 0.7,16.93 2.11,20.17 1.47,3.17 3.47,5.46 6.12,6.88 2.64,1.35 8.35,2.11 17.17,2.23l0 6.35 -80.08 0 0 -6.35c7.99,0 14.05,-1 18.05,-2.94 2.41,-1.23 4.23,-3.17 5.46,-5.76 1.71,-3.76 2.59,-10.29 2.59,-19.52l0 -143.94c0,-18.05 -0.41,-29.1 -1.18,-33.16 -0.82,-4.05 -2.11,-6.82 -3.99,-8.35 -1.83,-1.58 -4.24,-2.35 -7.18,-2.35 -2.41,0 -6.05,1 -10.82,2.94l-2.93 -6.35 46.74 -19.4 7.94 0z"/>
  <path id="3" class="fil4" d="M2912.64 21799.57c11.41,-11.53 18.17,-18.17 20.22,-19.93 5.12,-4.36 10.65,-7.77 16.59,-10.18 5.93,-2.41 11.81,-3.64 17.63,-3.64 9.88,0 18.29,2.88 25.4,8.64 7.06,5.76 11.82,14.11 14.17,25.11 11.88,-13.88 21.88,-22.93 30.05,-27.28 8.17,-4.3 16.58,-6.47 25.22,-6.47 8.35,0 15.82,2.17 22.35,6.47 6.46,4.29 11.64,11.34 15.4,21.16 2.53,6.65 3.82,17.11 3.82,31.4l0 67.97c0,9.82 0.71,16.58 2.18,20.23 1.12,2.46 3.23,4.64 6.23,6.4 3.06,1.77 8,2.65 14.88,2.65l0 6.35 -77.26 0 0 -6.35 3.29 0c6.7,0 11.99,-1.29 15.76,-3.94 2.64,-1.82 4.52,-4.76 5.64,-8.76 0.47,-1.94 0.71,-7.47 0.71,-16.58l0 -67.91c0,-12.88 -1.53,-21.93 -4.65,-27.22 -4.52,-7.35 -11.7,-11.06 -21.63,-11.06 -6.06,0 -12.23,1.53 -18.41,4.59 -6.11,3 -13.58,8.7 -22.34,16.93l-0.35 1.94 0.7 7.41 0 75.32c0,10.7 0.59,17.4 1.77,20.05 1.23,2.59 3.46,4.82 6.76,6.58 3.29,1.77 8.93,2.65 16.87,2.65l0 6.35 -79.37 0 0 -6.35c8.64,0 14.58,-1 17.81,-3.06 3.24,-2.06 5.47,-5.17 6.7,-9.29 0.59,-1.94 0.89,-7.58 0.89,-16.93l0 -67.91c0,-12.88 -1.88,-22.17 -5.65,-27.87 -5.05,-7.41 -12.05,-11.11 -21.11,-11.11 -6.17,0 -12.28,1.7 -18.34,5.05 -9.47,5.06 -16.82,10.82 -21.93,17.17l0 84.67c0,10.29 0.7,16.93 2.12,20.05 1.41,3.06 3.52,5.35 6.35,6.94 2.76,1.53 8.4,2.29 16.93,2.29l0 6.35 -77.97 0 0 -6.35c7.24,0 12.29,-0.76 15.17,-2.29 2.89,-1.59 5.06,-4 6.59,-7.41 1.47,-3.35 2.23,-9.88 2.23,-19.58l0 -60.33c0,-17.28 -0.53,-28.45 -1.53,-33.51 -0.82,-3.82 -2.05,-6.41 -3.82,-7.82 -1.7,-1.47 -4.05,-2.18 -6.99,-2.18 -3.24,0 -7.06,0.89 -11.53,2.59l-2.58 -6.35 47.62 -19.4 7.41 0 0 33.75z"/>
  <path class="fil4" d="M2258.09 22709.15c6.64,-15.76 15.11,-27.93 25.28,-36.51 10.17,-8.59 22.87,-12.88 38.04,-12.88 18.76,0 33.11,6.06 43.1,18.23 7.59,9.05 11.41,18.75 11.41,29.1 0,16.99 -10.7,34.57 -32.11,52.68 14.41,5.65 25.29,13.64 32.7,24.11 7.35,10.41 11.05,22.7 11.05,36.81 0,20.22 -6.47,37.69 -19.34,52.5 -16.76,19.29 -41.1,28.93 -72.97,28.93 -15.76,0 -26.46,-1.94 -32.16,-5.88 -5.71,-3.88 -8.53,-8.11 -8.53,-12.58 0,-3.35 1.35,-6.23 4.06,-8.76 2.7,-2.53 5.94,-3.82 9.76,-3.82 2.88,0 5.82,0.47 8.82,1.41 1.94,0.59 6.35,2.7 13.29,6.35 6.88,3.64 11.7,5.82 14.34,6.52 4.24,1.3 8.82,1.94 13.64,1.94 11.76,0 21.93,-4.52 30.64,-13.64 8.7,-9.05 13.05,-19.81 13.05,-32.22 0,-9.05 -2,-17.93 -6.06,-26.51 -3,-6.47 -6.29,-11.35 -9.82,-14.65 -4.99,-4.58 -11.76,-8.76 -20.4,-12.52 -8.64,-3.7 -17.46,-5.58 -26.46,-5.58l-5.52 0 0 -5.3c9.11,-1.17 18.16,-4.41 27.34,-9.82 9.11,-5.4 15.75,-11.87 19.87,-19.46 4.17,-7.58 6.23,-15.87 6.23,-24.99 0,-11.81 -3.7,-21.34 -11.11,-28.63 -7.47,-7.29 -16.7,-10.94 -27.75,-10.94 -17.82,0 -32.69,9.65 -44.69,28.87l-5.7 -2.76z"/>
  <path id="1" class="fil4" d="M2429.54 22782.65c0,-26.64 4,-49.51 12.05,-68.74 8.06,-19.22 18.7,-33.57 32.05,-42.98 10.29,-7.47 20.99,-11.17 31.98,-11.17 17.94,0 33.99,9.11 48.22,27.34 17.81,22.64 26.69,53.27 26.69,91.96 0,27.05 -3.88,50.09 -11.7,69.03 -7.82,18.93 -17.76,32.63 -29.87,41.21 -12.11,8.53 -23.81,12.82 -35.04,12.82 -22.29,0 -40.81,-13.11 -55.62,-39.39 -12.53,-22.17 -18.76,-48.86 -18.76,-80.08zm33.87 4.23c0,32.1 3.94,58.33 11.82,78.67 6.52,17.11 16.28,25.63 29.22,25.63 6.17,0 12.58,-2.76 19.22,-8.34 6.65,-5.59 11.65,-14.88 15.11,-27.99 5.24,-19.7 7.88,-47.57 7.88,-83.43 0,-26.64 -2.76,-48.86 -8.23,-66.62 -4.11,-13.23 -9.46,-22.58 -15.99,-28.05 -4.65,-3.82 -10.35,-5.7 -16.99,-5.7 -7.76,0 -14.7,3.53 -20.76,10.52 -8.23,9.53 -13.87,24.46 -16.81,44.92 -3,20.41 -4.47,40.52 -4.47,60.39z"/>
  <path id="2" class="fil4" d="M2739.64 22769.36c11.41,-11.53 18.17,-18.17 20.22,-19.93 5.12,-4.36 10.65,-7.77 16.59,-10.18 5.93,-2.41 11.81,-3.64 17.63,-3.64 9.88,0 18.29,2.88 25.4,8.64 7.06,5.76 11.82,14.11 14.17,25.11 11.88,-13.88 21.88,-22.93 30.05,-27.28 8.17,-4.3 16.58,-6.47 25.22,-6.47 8.35,0 15.82,2.17 22.35,6.47 6.46,4.29 11.64,11.34 15.4,21.16 2.53,6.65 3.82,17.11 3.82,31.4l0 67.97c0,9.82 0.71,16.58 2.18,20.23 1.12,2.46 3.23,4.64 6.23,6.4 3.06,1.77 8,2.65 14.88,2.65l0 6.35 -77.26 0 0 -6.35 3.29 0c6.7,0 11.99,-1.29 15.76,-3.94 2.64,-1.82 4.52,-4.76 5.64,-8.76 0.47,-1.94 0.71,-7.47 0.71,-16.58l0 -67.91c0,-12.88 -1.53,-21.93 -4.65,-27.22 -4.52,-7.35 -11.7,-11.06 -21.63,-11.06 -6.06,0 -12.23,1.53 -18.41,4.59 -6.11,3 -13.58,8.7 -22.34,16.93l-0.35 1.94 0.7 7.41 0 75.32c0,10.7 0.59,17.4 1.77,20.05 1.23,2.59 3.46,4.82 6.76,6.58 3.29,1.77 8.93,2.65 16.87,2.65l0 6.35 -79.37 0 0 -6.35c8.64,0 14.58,-1 17.81,-3.06 3.24,-2.06 5.47,-5.17 6.7,-9.29 0.59,-1.94 0.89,-7.58 0.89,-16.93l0 -67.91c0,-12.88 -1.88,-22.17 -5.65,-27.87 -5.05,-7.41 -12.05,-11.11 -21.11,-11.11 -6.17,0 -12.28,1.7 -18.34,5.05 -9.47,5.06 -16.82,10.82 -21.93,17.17l0 84.67c0,10.29 0.7,16.93 2.12,20.05 1.41,3.06 3.52,5.35 6.35,6.94 2.76,1.53 8.4,2.29 16.93,2.29l0 6.35 -77.97 0 0 -6.35c7.24,0 12.29,-0.76 15.17,-2.29 2.89,-1.59 5.06,-4 6.59,-7.41 1.47,-3.35 2.23,-9.88 2.23,-19.58l0 -60.33c0,-17.28 -0.53,-28.45 -1.53,-33.51 -0.82,-3.82 -2.05,-6.41 -3.82,-7.82 -1.7,-1.47 -4.05,-2.18 -6.99,-2.18 -3.24,0 -7.06,0.89 -11.53,2.59l-2.58 -6.35 47.62 -19.4 7.41 0 0 33.75z"/>
  <path id="3" class="fil4" d="M3007.28 22653.06c4.76,0 8.88,1.7 12.29,5.05 3.35,3.41 5.05,7.53 5.05,12.29 0,4.82 -1.7,9 -5.05,12.41 -3.41,3.47 -7.53,5.17 -12.29,5.17 -4.82,0 -9,-1.7 -12.41,-5.17 -3.47,-3.41 -5.17,-7.59 -5.17,-12.41 0,-4.76 1.7,-8.88 5.05,-12.29 3.41,-3.35 7.59,-5.05 12.53,-5.05zm14.17 82.55l0 127c0,9.82 0.7,16.34 2.17,19.58 1.41,3.29 3.53,5.7 6.35,7.29 2.82,1.59 8,2.41 15.47,2.41l0 6.35 -76.56 0 0 -6.35c7.65,0 12.82,-0.76 15.41,-2.23 2.64,-1.47 4.7,-3.94 6.29,-7.35 1.53,-3.41 2.29,-10 2.29,-19.7l0 -61.03c0,-16.99 -0.53,-27.99 -1.53,-33.05 -0.82,-3.64 -2.05,-6.17 -3.82,-7.58 -1.7,-1.47 -4.06,-2.18 -7,-2.18 -3.23,0 -7.11,0.89 -11.7,2.59l-2.41 -6.35 47.45 -19.4 7.59 0z"/>
  <g id="_1963650885856">
   <path class="fil5 str5" d="M1735.23 22109.75l378.66 0 0 99.16 -378.66 0 0 -99.16z"/>
   <path class="fil6 str5" d="M2113.88 22109.75l378.66 0 0 99.16 -378.66 0 0 -99.16z"/>
   <path class="fil5 str5" d="M2492.54 22109.75l378.65 0 0 99.16 -378.65 0 0 -99.16z"/>
   <path class="fil6 str5" d="M2871.28 22109.75l378.66 0 0 99.16 -378.66 0 0 -99.16z"/>
   <path class="fil5 str5" d="M3249.95 22109.75l378.65 0 0 99.16 -378.65 0 0 -99.16z"/>
   <path class="fil6 str5" d="M2947.79 22408.69l605.62 0 0 99.16 -605.62 0 0 -99.16z"/>
   <path class="fil5 str5" d="M2342.17 22408.69l605.62 0 0 99.16 -605.62 0 0 -99.16z"/>
   <path class="fil6 str5" d="M1736.56 22408.69l605.62 0 0 99.16 -605.62 0 0 -99.16z"/>
  </g>
  <rect class="fil2 str6" x="1000" y="999.99" width="19000" height="22334.03"/>
  <path class="fil7" d="M1213.27 23004.05c0,-17.45 4.47,-34.48 13.46,-51.13 8.93,-16.61 21.77,-29.59 38.43,-38.86 16.69,-9.26 34.1,-13.92 52.16,-13.92 17.92,0 35.18,4.56 51.69,13.74 16.56,9.12 29.4,21.92 38.53,38.43 9.17,16.51 13.73,33.77 13.73,51.74 0,18.01 -4.56,35.27 -13.73,51.78 -9.13,16.51 -21.97,29.35 -38.53,38.53 -16.51,9.17 -33.77,13.78 -51.69,13.78 -18.06,0 -35.47,-4.66 -52.16,-13.97 -16.66,-9.36 -29.5,-22.34 -38.43,-38.95 -8.99,-16.65 -13.46,-33.68 -13.46,-51.17zm17.22 0c0,14.62 3.76,28.88 11.24,42.7 7.48,13.83 18.2,24.65 32.13,32.46 13.92,7.81 28.41,11.71 43.46,11.71 15,0 29.35,-3.85 43.08,-11.52 13.74,-7.67 24.46,-18.39 32.13,-32.17 7.67,-13.79 11.52,-28.18 11.52,-43.18 0,-14.96 -3.85,-29.36 -11.52,-43.14 -7.67,-13.78 -18.39,-24.5 -32.13,-32.12 -13.73,-7.62 -28.08,-11.43 -43.08,-11.43 -15.05,0 -29.54,3.9 -43.46,11.66 -13.93,7.76 -24.65,18.58 -32.13,32.46 -7.48,13.87 -11.24,28.08 -11.24,42.57zm103.57 -33.35l5.08 -16.94c11.53,2.78 20.7,8.61 27.52,17.55 6.87,8.98 10.3,19.85 10.3,32.59 0,16.19 -5.22,29.31 -15.71,39.42 -10.49,10.11 -24.98,15.15 -43.55,15.15 -12.14,0 -22.68,-2.31 -31.61,-6.92 -8.99,-4.56 -15.71,-11.15 -20.28,-19.61 -4.56,-8.52 -6.82,-18.25 -6.82,-29.16 0,-12.23 2.92,-22.39 8.8,-30.48 5.88,-8.09 13.88,-13.6 23.94,-16.56l4.23 16.37c-6.91,2.77 -12.23,6.82 -15.89,12.23 -3.72,5.41 -5.55,11.71 -5.55,19 0,10.58 3.76,19.33 11.28,26.2 7.53,6.87 18.35,10.3 32.37,10.3 14.06,0 24.69,-3.24 31.89,-9.74 7.19,-6.49 10.81,-14.86 10.81,-25.16 0,-8.28 -2.39,-15.57 -7.24,-21.83 -4.8,-6.25 -11.33,-10.39 -19.57,-12.41z"/>
  <path id="1" class="fil7" d="M1418.73 22708.89l-18.58 0c14.44,9.27 21.68,22.91 21.68,40.92 0,11.67 -3.19,22.39 -9.64,32.13 -6.4,9.78 -15.38,17.35 -26.86,22.76 -11.52,5.37 -24.74,8.05 -39.69,8.05 -14.59,0 -27.8,-2.45 -39.7,-7.29 -11.86,-4.9 -20.98,-12.19 -27.29,-21.92 -6.35,-9.69 -9.5,-20.61 -9.5,-32.6 0,-8.84 1.88,-16.7 5.6,-23.56 3.72,-6.87 8.61,-12.47 14.58,-16.8l-72.67 0 0 -24.83 202.07 0 0 23.14zm-73.05 78.46c18.72,0 32.69,-3.95 41.96,-11.9 9.26,-7.91 13.87,-17.27 13.87,-28.04 0,-10.86 -4.42,-20.08 -13.26,-27.7 -8.84,-7.57 -22.34,-11.38 -40.5,-11.38 -19.94,0 -34.62,3.85 -43.98,11.61 -9.36,7.72 -14.01,17.27 -14.01,28.6 0,11.06 4.46,20.27 13.45,27.71 8.98,7.38 23.14,11.1 42.47,11.1z"/>
  <path id="2" class="fil7" d="M1358.05 22656.35l-24.83 0 0 -76.76 24.83 0 0 76.76z"/>
  <path id="3" class="fil7" d="M1418.73 22552.49l-146.47 0 0 -22.29 20.69 0c-7.15,-4.56 -12.93,-10.68 -17.26,-18.3 -4.37,-7.62 -6.54,-16.27 -6.54,-26.01 0,-10.82 2.26,-19.71 6.73,-26.62 4.52,-6.92 10.77,-11.81 18.86,-14.63 -17.07,-11.67 -25.59,-26.77 -25.59,-45.39 0,-14.58 4,-25.83 12.04,-33.63 8.05,-7.86 20.42,-11.81 37.12,-11.81l100.42 0 0 24.84 -92.19 0c-9.88,0 -17.03,0.84 -21.4,2.44 -4.38,1.6 -7.86,4.52 -10.54,8.8 -2.68,4.23 -4,9.22 -4,14.91 0,10.35 3.44,18.91 10.26,25.73 6.86,6.82 17.82,10.2 32.87,10.2l85 0 0 24.84 -95.06 0c-11.01,0 -19.29,2.02 -24.79,6.07 -5.5,4.04 -8.28,10.67 -8.28,19.85 0,6.96 1.84,13.4 5.51,19.33 3.66,5.93 9.03,10.21 16.13,12.89 7.05,2.63 17.26,3.95 30.57,3.95l75.92 0 0 24.83z"/>
  <path id="4" class="fil7" d="M1400.39 22221.73c7.85,9.22 13.35,18.11 16.6,26.62 3.25,8.52 4.84,17.64 4.84,27.43 0,16.08 -3.9,28.45 -11.75,37.11 -7.81,8.65 -17.83,12.98 -30.01,12.98 -7.15,0 -13.69,-1.65 -19.62,-4.89 -5.93,-3.29 -10.63,-7.57 -14.2,-12.84 -3.58,-5.32 -6.31,-11.24 -8.14,-17.88 -1.27,-4.89 -2.49,-12.27 -3.72,-22.1 -2.35,-20.04 -5.22,-34.86 -8.51,-44.31 -3.39,-0.1 -5.55,-0.14 -6.44,-0.14 -10.07,0 -17.17,2.35 -21.31,7.05 -5.6,6.35 -8.37,15.81 -8.37,28.32 0,11.71 2.07,20.36 6.16,25.92 4.09,5.59 11.38,9.68 21.78,12.37l-3.39 24.27c-10.4,-2.21 -18.82,-5.84 -25.21,-10.92 -6.4,-5.08 -11.29,-12.41 -14.77,-22.01 -3.44,-9.55 -5.18,-20.7 -5.18,-33.3 0,-12.51 1.46,-22.72 4.42,-30.57 2.97,-7.81 6.64,-13.6 11.11,-17.27 4.46,-3.67 10.11,-6.25 16.93,-7.76 4.23,-0.8 11.85,-1.22 22.81,-1.22l32.93 0c23,0 37.53,-0.52 43.69,-1.55 6.17,-0.99 12.05,-3.06 17.69,-6.07l0 25.96c-5.22,2.5 -11.34,4.1 -18.34,4.8zm-55.04 1.98c3.67,9.03 6.78,22.57 9.32,40.64 1.45,10.25 3.1,17.49 4.93,21.73 1.84,4.23 4.52,7.48 8,9.78 3.53,2.31 7.43,3.48 11.76,3.48 6.54,0 12.04,-2.49 16.42,-7.52 4.37,-5.04 6.58,-12.38 6.58,-22.02 0,-9.55 -2.07,-18.06 -6.25,-25.54 -4.14,-7.43 -9.84,-12.93 -17.03,-16.41 -5.6,-2.69 -13.83,-4 -24.7,-4l-9.03 -0.14z"/>
  <path id="5" class="fil7" d="M1474.89 22160.44l-202.63 0 0 -22.57 19.24 0c-7.44,-5.32 -13.03,-11.34 -16.75,-18.07 -3.72,-6.68 -5.6,-14.81 -5.6,-24.36 0,-12.51 3.2,-23.52 9.65,-33.07 6.39,-9.55 15.47,-16.74 27.14,-21.63 11.71,-4.85 24.5,-7.3 38.47,-7.3 14.91,0 28.37,2.69 40.36,8.05 11.95,5.36 21.12,13.17 27.52,23.42 6.35,10.21 9.54,20.98 9.54,32.27 0,8.28 -1.74,15.71 -5.22,22.25 -3.48,6.58 -7.85,11.94 -13.17,16.18l71.45 0 0 24.83zm-128.5 -22.57c18.77,0 32.69,-3.81 41.67,-11.39 8.99,-7.62 13.45,-16.84 13.45,-27.65 0,-11.01 -4.65,-20.42 -13.97,-28.23 -9.31,-7.85 -23.7,-11.76 -43.22,-11.76 -18.63,0 -32.55,3.81 -41.82,11.48 -9.26,7.67 -13.87,16.79 -13.87,27.42 0,10.54 4.94,19.85 14.77,27.94 9.87,8.14 24.17,12.19 42.99,12.19z"/>
  <path id="6" class="fil7" d="M1374.99 22013.36l-3.96 -24.55c9.84,-1.37 17.36,-5.22 22.63,-11.53 5.22,-6.3 7.85,-15.14 7.85,-26.43 0,-11.43 -2.3,-19.9 -6.96,-25.45 -4.61,-5.5 -10.06,-8.28 -16.32,-8.28 -5.6,0 -10.02,2.5 -13.22,7.44 -2.21,3.48 -4.98,11.94 -8.42,25.4 -4.56,18.15 -8.51,30.71 -11.85,37.77 -3.39,7 -7.99,12.32 -13.92,15.94 -5.88,3.62 -12.42,5.46 -19.57,5.46 -6.54,0 -12.56,-1.51 -18.11,-4.47 -5.55,-3.01 -10.16,-7.06 -13.83,-12.18 -2.82,-3.86 -5.22,-9.13 -7.19,-15.76 -1.98,-6.68 -2.97,-13.78 -2.97,-21.4 0,-11.48 1.65,-21.54 4.99,-30.2 3.29,-8.7 7.81,-15.1 13.45,-19.24 5.69,-4.09 13.27,-6.96 22.77,-8.51l3.38 24.27c-7.62,1.08 -13.59,4.28 -17.87,9.55 -4.28,5.27 -6.4,12.7 -6.4,22.34 0,11.34 1.88,19.47 5.65,24.32 3.76,4.84 8.18,7.29 13.21,7.29 3.2,0 6.12,-0.99 8.71,-3.01 2.63,-2.02 4.84,-5.18 6.58,-9.5 0.94,-2.5 3.06,-9.74 6.35,-21.87 4.66,-17.5 8.52,-29.73 11.48,-36.69 2.96,-6.96 7.34,-12.42 12.98,-16.37 5.69,-4 12.75,-5.98 21.21,-5.98 8.24,0 16,2.4 23.29,7.25 7.29,4.84 12.93,11.8 16.93,20.88 4,9.13 5.97,19.43 5.97,30.91 0,19 -3.95,33.53 -11.8,43.5 -7.9,9.98 -19.57,16.33 -35.04,19.1z"/>
  <path id="7" class="fil7" d="M1418.73 21855.32l-28.22 0 0 -28.22 28.22 0 0 28.22z"/>
  <path id="8" class="fil7" d="M1365.11 21688.29l3.38 -24.27c16.7,2.68 29.73,9.45 39.19,20.41 9.45,10.96 14.15,24.46 14.15,40.41 0,19.99 -6.53,36.08 -19.61,48.21 -13.08,12.18 -31.8,18.25 -56.16,18.25 -15.81,0 -29.59,-2.63 -41.39,-7.85 -11.86,-5.22 -20.75,-13.17 -26.63,-23.9 -5.92,-10.68 -8.89,-22.29 -8.89,-34.9 0,-15.85 4,-28.88 12.04,-38.95 8.05,-10.11 19.48,-16.6 34.25,-19.42l3.67 23.99c-9.83,2.3 -17.22,6.35 -22.2,12.23 -4.94,5.83 -7.44,12.88 -7.44,21.16 0,12.51 4.47,22.67 13.41,30.53 8.98,7.81 23.09,11.71 42.47,11.71 19.66,0 33.92,-3.76 42.81,-11.29 8.89,-7.57 13.35,-17.4 13.35,-29.49 0,-9.78 -2.96,-17.92 -8.93,-24.41 -5.93,-6.54 -15.1,-10.68 -27.47,-12.42z"/>
  <path id="9" class="fil7" d="M1345.49 21652.17c-27.04,0 -47.08,-7.53 -60.11,-22.63 -10.82,-12.56 -16.23,-27.94 -16.23,-46.05 0,-20.08 6.59,-36.54 19.76,-49.34 13.12,-12.75 31.33,-19.14 54.51,-19.14 18.82,0 33.59,2.82 44.36,8.46 10.77,5.65 19.14,13.88 25.12,24.7 5.97,10.77 8.93,22.58 8.93,35.32 0,20.51 -6.53,37.07 -19.66,49.72 -13.12,12.65 -32.03,18.96 -56.68,18.96zm0.05 -25.4c18.72,0 32.74,-4.1 42,-12.28 9.32,-8.23 13.97,-18.53 13.97,-31 0,-12.32 -4.65,-22.57 -14.01,-30.81 -9.36,-8.18 -23.61,-12.27 -42.76,-12.27 -18.06,0 -31.75,4.14 -41.01,12.37 -9.32,8.23 -13.97,18.48 -13.97,30.71 0,12.47 4.61,22.77 13.87,31 9.27,8.18 23.24,12.28 41.91,12.28z"/>
  <path id="10" class="fil7" d="M1418.73 21485.89l-146.47 0 0 -22.29 20.69 0c-7.15,-4.56 -12.93,-10.68 -17.26,-18.3 -4.37,-7.62 -6.54,-16.27 -6.54,-26.01 0,-10.82 2.26,-19.71 6.73,-26.62 4.52,-6.92 10.77,-11.81 18.86,-14.63 -17.07,-11.67 -25.59,-26.77 -25.59,-45.39 0,-14.58 4,-25.83 12.04,-33.63 8.05,-7.86 20.42,-11.81 37.12,-11.81l100.42 0 0 24.84 -92.19 0c-9.88,0 -17.03,0.84 -21.4,2.44 -4.38,1.6 -7.86,4.52 -10.54,8.8 -2.68,4.23 -4,9.22 -4,14.91 0,10.35 3.44,18.91 10.26,25.73 6.86,6.82 17.82,10.2 32.87,10.2l85 0 0 24.84 -95.06 0c-11.01,0 -19.29,2.02 -24.79,6.07 -5.5,4.04 -8.28,10.67 -8.28,19.85 0,6.96 1.84,13.4 5.51,19.33 3.66,5.93 9.03,10.21 16.13,12.89 7.05,2.63 17.26,3.95 30.57,3.95l75.92 0 0 24.83z"/>
  <g id="_1963650868000">
   <path class="fil3 str4" d="M3908.54 21507.27l815.93 0 0 1592.89 -815.93 0 0 -1592.89z"/>
   <path class="fil8" d="M4256.64 21943.4c-0.92,3.32 -1.63,6.35 -2.07,9.15 -0.44,2.79 -0.65,5.18 -0.65,7.22 0,5.59 1.8,9.56 5.29,11.89 3.49,2.33 9.55,3.49 18.05,3.49l4.15 0 -4.96 22.72 -78.17 0 5.29 -22.72 2.89 0c7.36,0 12.82,-1.51 16.48,-4.54 3.6,-2.97 6.32,-8.39 8.12,-16.14l37.59 -153.79c0.6,-2.74 1.14,-5.54 1.52,-8.45 0.33,-2.91 0.55,-5.77 0.55,-8.62 0,-5.36 -1.96,-9.15 -5.95,-11.36 -3.92,-2.22 -10.69,-3.32 -20.23,-3.32l-3.06 0 5.29 -22.72 72.33 0 62.14 183.5 31.31 -129.03c1.08,-4.2 1.85,-7.63 2.34,-10.31 0.49,-2.68 0.71,-4.72 0.71,-6.06 0,-5.6 -1.8,-9.56 -5.35,-11.89 -3.6,-2.33 -9.71,-3.49 -18.32,-3.49l-4.15 0 4.96 -22.72 78.5 0 -5.62 22.72 -2.84 0c-7.37,0 -12.87,1.51 -16.47,4.54 -3.66,2.97 -6.33,8.33 -8.18,15.96l-50.68 208.44 -21.54 0 -72.06 -209.48 -37.21 155.01z"/>
   <path class="fil2 str7" d="M4317.33 22966.96l0 -769.27"/>
   <path class="fil2 str7" d="M4035.28 22690.91l563.14 0"/>
   <path class="fil2 str7" d="M4172.43 22830.9l294.22 -286.81"/>
   <path class="fil2 str7" d="M4169.29 22543.85l297.98 288.85"/>
   <path class="fil2 str7" d="M4317.33 22197.69l-95.61 120.74"/>
   <path class="fil2 str7" d="M4322.39 22197.69l83.31 120.74"/>
  </g>
  <g id="_1963650861280">
   <path class="fil3 str4" d="M7553.6 22630.71l0 473.7 -2309.37 0 0 -473.7 2309.37 0z"/>
   <path class="fil8" d="M6321.57 22969.18l0 -202.07 40.07 0 47.79 143.04c4.42,13.31 7.62,23.28 9.64,29.91 2.31,-7.33 5.93,-18.15 10.82,-32.4l48.64 -140.55 35.79 0 0 202.07 -25.68 0 0 -169.05 -58.98 169.05 -24.09 0 -58.32 -172.15 0 172.15 -25.68 0z"/>
   <path id="1" class="fil8" d="M6654.02 22921.77l25.68 3.38c-3.99,14.91 -11.47,26.53 -22.39,34.76 -10.91,8.24 -24.83,12.37 -41.81,12.37 -21.36,0 -38.29,-6.58 -50.8,-19.75 -12.51,-13.12 -18.77,-31.61 -18.77,-55.36 0,-24.56 6.31,-43.65 18.96,-57.2 12.65,-13.59 29.07,-20.37 49.25,-20.37 19.52,0 35.46,6.64 47.83,19.95 12.37,13.31 18.58,32.03 18.58,56.16 0,1.46 -0.05,3.67 -0.14,6.58l-109.08 0c0.94,16.04 5.46,28.37 13.64,36.88 8.14,8.51 18.35,12.79 30.53,12.79 9.08,0 16.84,-2.39 23.24,-7.19 6.44,-4.8 11.52,-12.47 15.28,-23zm-81.28 -39.8l81.56 0c-1.08,-12.32 -4.23,-21.54 -9.36,-27.7 -7.85,-9.55 -18.1,-14.35 -30.66,-14.35 -11.39,0 -20.93,3.81 -28.7,11.43 -7.71,7.62 -11.99,17.83 -12.84,30.62z"/>
   <path id="2" class="fil8" d="M6710.79 22969.18l0 -146.47 22.3 0 0 22.43c5.69,-10.39 10.96,-17.26 15.8,-20.55 4.85,-3.34 10.16,-4.99 15.95,-4.99 8.37,0 16.89,2.64 25.54,7.86l-8.84 22.91c-6.02,-3.39 -12.04,-5.08 -18.06,-5.08 -5.41,0 -10.26,1.64 -14.54,4.89 -4.28,3.24 -7.34,7.76 -9.17,13.54 -2.78,8.8 -4.14,18.44 -4.14,28.93l0 76.53 -24.84 0z"/>
   <path id="3" class="fil8" d="M6900.73 22915.56l24.27 3.38c-2.68,16.7 -9.45,29.73 -20.41,39.19 -10.96,9.45 -24.46,14.15 -40.41,14.15 -19.99,0 -36.08,-6.53 -48.21,-19.61 -12.18,-13.08 -18.25,-31.8 -18.25,-56.16 0,-15.81 2.63,-29.59 7.85,-41.44 5.22,-11.81 13.17,-20.7 23.9,-26.58 10.68,-5.92 22.29,-8.89 34.9,-8.89 15.85,0 28.88,4 38.95,12.04 10.11,8.05 16.6,19.48 19.42,34.25l-23.99 3.67c-2.3,-9.83 -6.35,-17.22 -12.23,-22.2 -5.83,-4.94 -12.88,-7.44 -21.16,-7.44 -12.51,0 -22.67,4.47 -30.53,13.41 -7.81,8.98 -11.71,23.09 -11.71,42.47 0,19.66 3.76,33.92 11.29,42.81 7.57,8.89 17.4,13.35 29.49,13.35 9.78,0 17.92,-2.96 24.41,-8.93 6.54,-5.93 10.68,-15.1 12.42,-27.47z"/>
   <path id="4" class="fil8" d="M7041.84 22950.84c-9.22,7.85 -18.11,13.35 -26.62,16.6 -8.52,3.25 -17.64,4.84 -27.43,4.84 -16.08,0 -28.45,-3.9 -37.11,-11.75 -8.65,-7.81 -12.98,-17.83 -12.98,-30.01 0,-7.15 1.65,-13.69 4.89,-19.62 3.29,-5.93 7.57,-10.63 12.84,-14.2 5.32,-3.58 11.24,-6.31 17.88,-8.14 4.89,-1.27 12.27,-2.49 22.1,-3.72 20.04,-2.35 34.86,-5.22 44.31,-8.51 0.1,-3.39 0.14,-5.55 0.14,-6.44 0,-10.07 -2.35,-17.17 -7.05,-21.31 -6.35,-5.6 -15.81,-8.37 -28.32,-8.37 -11.71,0 -20.36,2.07 -25.92,6.16 -5.59,4.09 -9.68,11.33 -12.37,21.78l-24.27 -3.39c2.21,-10.4 5.84,-18.82 10.92,-25.21 5.08,-6.4 12.41,-11.29 22.01,-14.77 9.55,-3.44 20.7,-5.18 33.3,-5.18 12.51,0 22.72,1.46 30.57,4.42 7.81,2.97 13.6,6.64 17.27,11.11 3.67,4.46 6.25,10.11 7.76,16.93 0.8,4.23 1.22,11.85 1.22,22.81l0 32.93c0,23 0.52,37.53 1.55,43.69 0.99,6.17 3.06,12.05 6.07,17.69l-25.96 0c-2.5,-5.22 -4.1,-11.34 -4.8,-18.34zm-1.98 -55.04c-9.03,3.67 -22.57,6.78 -40.64,9.32 -10.25,1.45 -17.49,3.1 -21.73,4.93 -4.23,1.84 -7.48,4.52 -9.78,8 -2.31,3.53 -3.48,7.43 -3.48,11.76 0,6.54 2.49,12.04 7.52,16.42 5.04,4.37 12.38,6.58 22.02,6.58 9.55,0 18.06,-2.07 25.54,-6.25 7.43,-4.14 12.93,-9.84 16.41,-17.03 2.69,-5.6 4,-13.83 4,-24.7l0.14 -9.03z"/>
   <path id="5" class="fil8" d="M7157.03 22947.03l3.39 21.91c-6.96,1.46 -13.22,2.22 -18.68,2.22 -8.98,0 -15.94,-1.42 -20.93,-4.28 -4.94,-2.87 -8.42,-6.59 -10.44,-11.25 -2.02,-4.65 -3.01,-14.44 -3.01,-29.35l0 -84.38 -18.34 0 0 -19.19 18.34 0 0 -36.22 24.84 -14.91 0 51.13 24.83 0 0 19.19 -24.83 0 0 85.79c0,7.11 0.42,11.67 1.31,13.69 0.85,2.02 2.26,3.62 4.24,4.85 1.97,1.17 4.79,1.78 8.46,1.78 2.73,0 6.35,-0.33 10.82,-0.98z"/>
   <path id="6" class="fil8" d="M7172.22 22895.94c0,-27.04 7.53,-47.08 22.63,-60.11 12.56,-10.82 27.94,-16.23 46.05,-16.23 20.08,0 36.54,6.59 49.34,19.76 12.75,13.12 19.14,31.33 19.14,54.51 0,18.82 -2.82,33.59 -8.46,44.36 -5.65,10.77 -13.88,19.14 -24.7,25.12 -10.77,5.97 -22.58,8.93 -35.32,8.93 -20.51,0 -37.07,-6.53 -49.72,-19.66 -12.65,-13.12 -18.96,-32.03 -18.96,-56.68zm25.4 0.05c0,18.72 4.1,32.74 12.28,42 8.23,9.32 18.53,13.97 31,13.97 12.32,0 22.57,-4.65 30.81,-14.01 8.18,-9.36 12.27,-23.61 12.27,-42.76 0,-18.06 -4.14,-31.75 -12.37,-41.01 -8.23,-9.32 -18.48,-13.97 -30.71,-13.97 -12.47,0 -22.77,4.61 -31,13.87 -8.18,9.27 -12.28,23.24 -12.28,41.91z"/>
   <path id="7" class="fil8" d="M7338.21 22969.18l0 -146.47 22.3 0 0 22.43c5.69,-10.39 10.96,-17.26 15.8,-20.55 4.85,-3.34 10.16,-4.99 15.95,-4.99 8.37,0 16.89,2.64 25.54,7.86l-8.84 22.91c-6.02,-3.39 -12.04,-5.08 -18.06,-5.08 -5.41,0 -10.26,1.64 -14.54,4.89 -4.28,3.24 -7.34,7.76 -9.17,13.54 -2.78,8.8 -4.14,18.44 -4.14,28.93l0 76.53 -24.84 0z"/>
   <circle class="fil9 str8" cx="5462.6" cy="22863.86" r="118.79"/>
   <rect class="fil9 str8" x="5920.53" y="22755.58" width="226.91" height="226.91"/>
   <path class="fil2 str9" d="M5636.5 22862.99l220.31 0"/>
   <path class="fil2 str9" d="M5854.15 22863.65l-64.02 65.38"/>
   <path class="fil2 str9" d="M5854.32 22862.51l-63.42 -61.39"/>
  </g>
 </g>
</svg>
