<?xml version="1.0" encoding="UTF-8"?>
<!DOCTYPE svg PUBLIC "-//W3C//DTD SVG 1.1//EN" "http://www.w3.org/Graphics/SVG/1.1/DTD/svg11.dtd">
<!-- Creator: CorelDRAW -->
<svg xmlns="http://www.w3.org/2000/svg" xml:space="preserve" width="210mm" height="297mm" version="1.1" style="shape-rendering:geometricPrecision; text-rendering:geometricPrecision; image-rendering:optimizeQuality; fill-rule:evenodd; clip-rule:evenodd"
viewBox="0 0 21000 29700"
 xmlns:xlink="http://www.w3.org/1999/xlink">
 <defs>
  <style type="text/css">
   <![CDATA[
    .str2 {stroke:black;stroke-width:10;stroke-miterlimit:3.864;stroke-opacity:0.501961}
    .str0 {stroke:#2B2A29;stroke-width:75;stroke-miterlimit:22.9256}
    .str4 {stroke:black;stroke-width:50;stroke-miterlimit:22.9256}
    .str6 {stroke:#434242;stroke-width:10;stroke-miterlimit:22.9256}
    .str3 {stroke:#3F3E3F;stroke-width:10;stroke-miterlimit:3.864}
    .str1 {stroke:black;stroke-width:10;stroke-miterlimit:22.9256}
    .str7 {stroke:#2B2A29;stroke-width:7.62;stroke-miterlimit:22.9256}
    .str5 {stroke:black;stroke-width:7.62;stroke-miterlimit:22.9256}
    .fil6 {fill:none}
    .fil1 {fill:#FEFEFE}
    .fil9 {fill:#D9DADA}
    .fil0 {fill:#2B2A29}
    .fil5 {fill:#FEFEFE;fill-rule:nonzero}
    .fil4 {fill:#D9DADA;fill-rule:nonzero}
    .fil8 {fill:#434242;fill-rule:nonzero}
    .fil3 {fill:#2B2A29;fill-rule:nonzero}
    .fil7 {fill:black;fill-rule:nonzero}
    .fil2 {fill:#FEFEFE;fill-rule:nonzero;fill-opacity:0.501961}
   ]]>
  </style>
 </defs>
<symbol id="Symbole2" viewBox="10447.31 14797.31 105.38 105.38">
 <circle class="fil0" cx="10500" cy="14850" r="52.69"/>
</symbol>
<symbol id="Symbole1" viewBox="10371.93 14721.93 256.13 256.13">
 <circle class="fil1 str0" cx="10499.99" cy="14849.99" r="90.56"/>
</symbol>
 <g id="Plan_x0020_1">
  <metadata id="CorelCorpID_0Corel-Layer"/>
  <use x="6013.96" y="7963.36" width="256.13" height="256.13" xlink:href="#Symbole1"/>
  <use x="3972.11" y="3533.87" width="105.38" height="105.38" xlink:href="#Symbole2"/>
  <use x="8226.01" y="5590.03" width="105.38" height="105.38" xlink:href="#Symbole2"/>
  <use x="14883.39" y="9242.27" width="105.38" height="105.38" xlink:href="#Symbole2"/>
  <use x="9811.15" y="7112.27" width="105.38" height="105.38" xlink:href="#Symbole2"/>
  <use x="3744.91" y="11128.03" width="105.38" height="105.38" xlink:href="#Symbole2"/>
  <use x="3949.39" y="13615.87" width="105.38" height="105.38" xlink:href="#Symbole2"/>
  <use x="8873.95" y="12014.11" width="105.38" height="105.38" xlink:href="#Symbole2"/>
  <use x="18160.75" y="15361.19" width="105.38" height="105.38" xlink:href="#Symbole2"/>
  <use x="6948.43" y="17444.19" width="105.38" height="105.38" xlink:href="#Symbole2"/>
  <use x="10146.27" y="20624.99" width="105.38" height="105.38" xlink:href="#Symbole2"/>
  <use x="16695.31" y="19062.99" width="105.38" height="105.38" xlink:href="#Symbole2"/>
  <use x="16343.15" y="16262.75" width="105.38" height="105.38" xlink:href="#Symbole2"/>
  <use x="6556.51" y="10224.91" width="105.38" height="105.38" xlink:href="#Symbole2"/>
  <use x="3602.91" y="8787.87" width="105.38" height="105.38" xlink:href="#Symbole2"/>
  <use x="7539.15" y="7134.99" width="105.38" height="105.38" xlink:href="#Symbole2"/>
  <use x="3256.43" y="5851.31" width="105.38" height="105.38" xlink:href="#Symbole2"/>
  <use x="7618.79" y="20629.31" width="105.38" height="105.38" xlink:href="#Symbole2"/>
  <use x="5402.63" y="20318.27" width="105.38" height="105.38" xlink:href="#Symbole2"/>
  <use x="13524.04" y="19043.11" width="105.38" height="105.38" xlink:href="#Symbole2"/>
  <use x="9963.3" y="4360.74" width="105.38" height="105.38" xlink:href="#Symbole2"/>
  <use x="6209.39" y="6817.19" width="105.38" height="105.38" xlink:href="#Symbole2"/>
  <use x="5528.99" y="7137.95" width="105.38" height="105.38" xlink:href="#Symbole2"/>
  <use x="9762.05" y="9874.13" width="105.38" height="105.38" xlink:href="#Symbole2"/>
  <use x="8965.01" y="12950.51" width="105.38" height="105.38" xlink:href="#Symbole2"/>
  <use x="15623.21" y="13689.23" width="105.38" height="105.38" xlink:href="#Symbole2"/>
  <use x="11736.37" y="17770.83" width="105.38" height="105.38" xlink:href="#Symbole2"/>
  <path class="fil1 str1" d="M16877.66 20990.01c6.06,-97.41 36.42,-166.11 82.49,-249.42 41.07,-74.29 63.17,-169.81 91.03,-249.42 21.69,-62 23.41,-141.29 31.29,-206.66 2.67,-22.17 10.52,-256.46 -42.67,-179.58 -29.85,43.13 -48.53,69.9 -38.4,123.99 3.6,19.21 52.95,121.08 22.75,122.58 -44.1,2.2 -64.03,-71.27 -106.67,-71.27 -16.21,65.08 -20.42,88.66 0,155.36 6.73,21.97 20.19,142.03 -25.6,75.53 -69.77,-101.3 -56.89,212.42 -56.89,246.57 -10.58,41.26 -1.43,92.17 -1.43,135.4 0,64.92 0.24,135.46 -42.66,186.71 -36.07,43.11 57.49,72.68 66.84,105.47 11.91,2.37 27.4,16.89 39.83,21.38 42.87,15.52 2.8,-61.18 1.42,-75.54 -3.69,-38.51 -22.76,-71.31 -22.76,-114.02l1.43 -27.08zm116.63 -1274.18c0,-51.23 -27.11,-77.81 0,-131.12 9.65,-18.99 5.32,-42.22 15.64,-64.14 10.9,-23.13 42.56,-35.44 51.2,-52.73l4.27 0c11.16,14.89 13.09,83.12 9.96,102.61 -9.38,58.4 -9.96,128.06 -9.96,188.14 0,25.71 -5.45,58.1 -14.22,81.24 -8.52,22.5 -31.12,50.03 -34.14,71.26 -0.77,0.25 -12.57,14.74 -12.8,15.68 -6.04,1 -0.21,0.07 -4.26,1.42 -1.1,4.42 -9.47,7.13 -14.23,7.13l-1.42 -2.85c-25.7,-6.42 -21.36,-71.26 -9.96,-88.37 20.39,-30.57 27.03,-49.52 27.03,-89.79l-7.11 -38.48zm938.72 -2277.56c0,-29.37 -25.29,-93.95 -41.24,-119.72 -12.49,-20.2 -27.44,-45.02 -8.54,-59.86 33.68,-26.47 66.62,-86.98 76.81,-128.28 9.12,-36.95 12.46,-107.92 34.13,-136.82 34.71,8.64 56.43,2.85 91.03,2.85l1.42 1.42c0,26.24 -12.59,58.64 -17.06,85.52 -10.16,61.15 -8.54,119.92 -8.54,182.43 0,47.59 -15.85,68.99 -38.4,108.32 -25.68,44.81 -34.06,100.66 -54.05,146.8 -1.84,4.25 -15.42,55.74 -25.6,44.19 -12.85,-14.6 -2.85,-74.39 -2.85,-94.07l-7.11 -32.78zm-362.69 910.74c11.73,-38.11 42.51,-85.33 58.32,-126.85 25.19,-66.18 85.86,-141.38 135.12,-193.83 35.47,-37.75 178.44,-248.34 116.63,-286.48 -24.28,-14.97 -40.31,-55.34 -66.85,-64.14 -17.74,-5.89 -19.84,111.18 -22.76,131.13 -5.06,34.58 -24.18,85.61 -24.18,115.44l-1.42 1.43c-11.41,0 -13.49,-37.32 -17.07,-47.04 -14.31,-38.76 -28.23,-55.86 -29.87,-99.76 -0.5,-13.45 -3.2,-87.41 -12.8,-89.8 -7.54,37.94 -47.77,80.08 -64,116.88 -31.81,72.16 -71.29,136.5 -86.76,215.21 -7.5,38.14 -23.45,113.26 -51.21,141.1 -42.94,43.05 -46.74,64.34 -21.33,115.45 15.55,31.26 18.35,84.74 46.94,95.49l41.24 -24.23zm-180.63 -657.05c-19.76,0 -31.88,0.59 -46.94,15.68 -9.98,10.01 -15.43,25.96 -19.91,38.48 -3.1,8.65 -0.8,15.72 4.27,22.81 8.29,11.61 14.36,34.38 15.64,48.46 1.39,15.19 6.06,28.18 9.96,39.9 10.6,0 35.38,-53.86 39.82,-65.56 3.78,-9.98 2.78,-19.1 5.69,-28.5 3.05,-9.89 14.49,-27.09 8.54,-37.06l-17.07 -34.21zm1541.79 -2153.72c6.39,12.92 12.8,25.9 12.8,41.49 2.19,0.73 1.42,-0.03 1.42,2.85 0,56.65 65.78,31.28 95.3,17.11 19.17,-9.21 52.91,-56.37 66.84,-28.51 16.53,33.08 25.89,73.09 28.45,109.75 4.9,69.97 -24.87,36.84 -64,49.88 0,36.16 9.43,67.92 -22.76,91.22 -49.88,36.12 -98.31,78.23 -159.3,92.64 -13.92,3.29 -28.67,6.16 -41.25,12.83 -20.93,11.11 -34.13,23.66 -34.13,-7.13 0,-27.84 -8.18,-47.03 -14.23,-71.26l-2.84 0c-0.65,-1.98 -32.4,1.42 -38.4,1.42 -4.92,-14.78 -11.93,10.01 -12.8,12.83 -43.13,140.23 -119.54,26.6 -192.02,8.55 -0.94,-3.77 -13.97,-17.1 -17.06,-17.1 -0.59,-1.78 -4.47,-2.85 -7.11,-2.85 -0.73,2.19 0.03,1.42 -2.85,1.42 -0.63,1.91 -1.88,2.26 -4.27,2.85 -13.01,52.23 67.24,75.78 79.65,125.42 -9.45,24.48 87.13,87.94 120.9,94.07 64.51,11.73 128.9,-26.53 48.36,42.76l-140.81 121.15c-10.49,9.02 -65.92,86.4 -71.12,71.26 -13.33,-38.79 -10.55,-58.44 -61.16,-58.44 -40.07,0 -56.98,-14.09 -92.45,-25.65 -66.16,-21.58 -91.21,4.08 -147.92,-52.74 -29.46,-29.53 -35.04,-77.92 -62.58,-105.46 -22.41,-22.41 -4.26,185.08 -81.07,81.24 -22.43,-30.31 -25.49,-70.28 -55.47,-94.07 -17.46,-13.86 -56.54,-24.62 -65.43,-51.31 12.11,48.46 50.64,154.45 95.3,178.16 72.75,38.61 110.64,-2.84 147.92,81.24 12.83,28.96 -115.29,18.04 -149.34,28.5 -113.62,34.89 -87.29,-103.08 -143.66,-159.63 -3.26,-3.26 6.04,54.33 12.8,85.52 12.86,59.39 68.41,112.21 132.28,122.57 51.52,8.35 126.19,12.44 164.99,51.31 21.75,21.8 32.07,60.99 65.42,71.26 39.02,12.03 90.39,-78.17 96.72,5.7 4.05,53.6 -60.27,117.3 -91.03,159.63 -38.75,74.18 -112.91,126.12 -182.05,195.26 -198.1,198.1 -85.14,-188.41 -93.88,-279.35 -4.68,-48.66 -69.25,-87.58 -100.98,-135.4 -33.22,-50.05 -94.93,113.59 -110.94,143.95 -17.05,32.35 -21.51,67.26 -36.98,98.35 -13.9,27.91 -28.86,1.04 -41.25,31.35 -17.22,42.09 -102.29,9.98 -147.92,9.98 -23.64,0 18.64,-88.29 -14.22,-121.15 -18.22,-18.22 -3.65,-118.93 -22.76,-99.77 -33.43,33.53 -63.59,-4.27 -93.87,-4.27 -54.64,0 -46.43,20.45 -96.72,-29.93 -10.58,-10.61 -22.76,-21.37 -35.56,-27.08 -55.12,-24.58 -27.67,-28.79 -45.51,32.78 -23.84,82.24 -114.95,106.12 31.29,133.97 69.94,13.31 130.36,40.8 179.21,89.79 26.02,26.08 -34.13,167.62 -34.13,219.49 0,114.16 92.42,-117.22 133.69,-34.2 17.64,35.47 46.84,1.42 76.81,1.42 11.6,0 -11.85,66.23 -15.65,75.54 -17.45,42.76 -39.16,74.41 -62.58,112.6 -12.84,20.92 -48.69,49.85 -56.89,8.55 -5.29,-26.67 -0.76,-87.33 -31.29,-54.16 -35.28,38.31 -60.73,26.87 -39.83,-24.23 0.98,-2.42 -39.96,-72.23 -54.05,-89.79 0,30.77 -37.84,96.56 -73.96,64.13 -28.63,-25.72 -35.05,-83.64 -64,-112.59 0,61.8 -13.78,157.25 49.78,190.98 57.7,30.63 37.47,51.53 -28.45,68.42 -53.36,13.66 -33.05,40.24 -22.75,76.96 7.27,25.89 -11.98,87 34.13,69.84 31.58,-11.76 66.56,-42.76 100.99,-42.76 42.64,0 50.33,38.76 106.67,21.38 59.32,-18.29 50.33,-16.08 75.38,34.2 -13.05,76.4 -69.34,353.47 -173.52,353.47 -37.69,0 26.08,-126.11 35.56,-142.53 12.32,-21.31 67.92,-98.22 46.94,-88.36 -45.79,21.5 -63.32,-10.94 -98.14,-31.36 -0.69,-0.41 12.58,35.13 14.22,47.03 11.74,84.91 -54.05,103.57 -54.05,179.59 0,21.32 1.58,50.06 -7.11,68.41 -10.66,22.48 -25.5,-26.87 -32.71,-37.06 -23.59,-33.36 -57.37,18.43 -75.39,-25.65 -19.05,-46.58 -18.84,-16.41 -28.44,8.55 -43.3,112.62 -73.14,106.89 -179.21,106.89 22.54,7.51 27.32,48.19 51.2,55.59 42.48,13.15 130.85,-94.89 130.85,-37.06 0,29.47 -12.86,91.15 7.11,111.17 16.62,16.65 48.84,23.26 55.47,47.04 33.48,120.14 -100.45,163.63 -130.85,255.12 -57.33,50.53 -4.09,120.56 42.67,153.93 42.98,30.66 77.52,33.98 99.56,86.94 19.4,46.59 36.98,128.15 36.98,179.58 0,22.08 -23.99,64.76 -17.07,82.66 7.34,19.02 51.44,17.17 58.32,41.34 20.96,8.38 24.87,38.16 52.62,44.18 75.66,16.41 49.8,-33.43 75.39,49.88 8.56,27.9 36.73,90.14 59.73,105.47 0,21.45 -37.64,53.93 -49.78,81.24 -7.1,73.64 -13.32,201.37 -103.83,95.49 -38.98,-45.61 -4.26,-174.51 -4.26,-232.31 -97.3,-32.43 -100.54,85.63 -122.32,159.63 -19.97,67.81 -64.01,163.66 -64.01,233.74 21.31,0 92.91,-116.57 110.95,-138.25 5.3,-6.38 38.19,-51.79 44.09,-39.91 4.4,8.84 11.87,32.48 21.33,35.63 0,19.33 -76.95,97.37 -92.45,116.87 -41.9,52.69 -70.91,124.03 -115.21,178.16 -18.92,23.13 -101.74,54.33 -129.43,42.76 -67.41,-28.19 -2.9,-230.36 9.96,-293.6 5.49,-27.04 -25.73,-53.08 -42.67,-74.12 -27.98,-34.73 -56.76,-76.37 -68.27,-122.57 -11.16,0 -23.2,65.39 -27.03,78.39 -17.45,59.1 -61.77,109.17 -86.76,165.33 -16.81,37.8 -19.68,47.41 -7.11,88.37 10.79,35.13 -28.87,107.94 -35.56,149.65 -5.41,33.71 16.19,79.92 -22.75,95.49 -7.85,-10.76 -14.98,-21.63 -21.34,-32.78 -4.46,-1.11 -5.68,-5.31 -11.38,-5.7 -9.74,-0.68 -20.05,0 -29.86,0 -10.48,0 -19.97,-2.85 -29.87,-2.85 -4.1,-3.28 -12.51,-6.53 -17.07,-8.55 -9.84,-4.35 -13.01,-8.39 -19.91,-17.11 -5.84,-7.37 -5.69,-14.48 -5.69,-24.23 3.15,-18.48 0.68,-42.82 21.33,-51.31 10.13,-4.17 31.29,-13.38 31.29,-25.65 -53.4,0 -91.21,-21.44 -56.89,-74.11 8.14,-12.48 38.15,-80.5 18.49,-92.65 -24.18,-14.93 -61.21,42.16 -54.05,-4.27 10.65,-68.99 -78.22,33.08 -78.22,-82.67 0,-21.09 12.2,-38.44 8.53,-61.28 -6.56,-40.89 -38.83,31.1 -61.16,41.33 -108.64,49.75 -79.34,-96.79 -118.05,-101.19 -3.16,-0.35 2.8,78.71 -2.85,95.49 -11.33,33.58 -56.22,40.1 -62.58,65.56 102.28,0 83.63,40.21 100.99,119.72 16.1,73.79 3.54,79.95 78.22,99.77 26.37,6.99 24.43,58.84 34.14,78.39 11.86,23.85 66.26,12.85 68.27,28.5 5.88,45.88 -9.03,43.98 22.76,88.37 21.34,29.81 9.68,69.37 27.02,98.34 25.29,42.22 -33.49,-14.35 -42.67,-29.93 -17.81,-30.19 -54.19,-31.87 -65.43,-51.31 -7.63,-13.22 -29.78,-156.69 -54.04,-68.41 -7.55,27.51 -37.04,79.68 -14.23,95.49 54.47,37.73 2.47,88.34 15.65,139.68 11.5,44.83 102.6,-2.59 136.54,31.35 -28.24,76.24 -25.86,87.78 38.4,27.08 38.87,-36.71 75.72,135.49 44.1,151.08 -29.3,14.46 -146.39,-27.62 -155.04,7.13 -5.91,1.47 -46.4,50.28 -51.2,58.43 -17.2,29.14 10.05,64.48 0,102.62 -9.08,34.49 -17.35,73.03 -8.53,108.32 47.89,0 65.98,-69.33 126.58,-24.23 22.83,16.98 91.71,6.8 102.41,24.23 11.31,18.45 -6.79,67.48 -14.22,86.94 -17.54,45.89 -43.97,46.57 -27.03,91.22 16.17,42.6 2.3,108.86 -2.84,155.35 16.88,33.85 -0.92,74.98 -8.54,105.47 -28.57,0 -67.58,-168.14 -98.14,-190.98 -19.02,11.41 -74.01,80.39 -91.02,101.19 -22.09,26.99 -44.11,50.85 -76.81,22.8 -64.97,-55.71 -51.9,124.39 17.07,104.05 31.94,-9.41 48.68,-28.51 83.91,-28.51 27.27,0 35.72,5.39 66.85,0 40.54,-7.03 14.23,74.42 14.23,101.2 0,18.58 65.54,63.53 81.07,86.94 25.02,37.69 83.91,35.22 83.91,86.94 -13.21,0 -22.53,-8.55 -36.98,-8.55l-1.42 1.42c0,38.12 1.35,72.73 -4.26,109.75 -4.95,32.72 -14.23,59.91 -14.23,94.06 0,64.84 -95.29,-75.93 -95.29,-1.42 0,13.46 -1.13,107.98 -38.41,78.39 -13.46,-10.68 -30.48,-1.02 -45.01,15.67l0 0 -55.26 -27.79c-9.48,1.51 -20.43,0.81 -22.04,12.12 -2.23,0.37 -9.3,5.87 -9.96,8.55 -3.37,0 -4.83,1.42 -8.53,1.42l-9.96 -48.45c-29.4,-9.8 -39.04,29.28 -66.85,47.03 -20.2,12.9 -22.32,-46.53 -36.98,-55.59 -15.3,-9.44 -71.25,22.36 -102.41,8.56 -9.52,-4.22 -38.74,-75.08 -42.67,-86.95 -6.69,0 -18.28,36.36 -34.13,42.76 -20.6,8.33 -8.53,-31.77 -29.87,-34.2 -106.22,-12.08 -149.75,32.16 -236.1,-62.72 -99.95,-109.84 -79.54,-0.01 -164.99,-21.37 -2.69,-10.81 -25.7,-75.54 -31.29,-75.54 -6.91,-27.77 -182.96,-21.16 -219.04,-31.36 -40.34,-11.4 -82.7,-28.03 -106.67,-61.28 -18.98,-26.31 -30.68,-111.17 -65.43,-111.17 -21.19,35.32 2.27,72.68 -65.43,72.68 -37.29,-24.01 -109.94,-106.42 -133.69,-27.08l-29.87 99.77c-7.17,23.98 -37.44,74.41 -39.83,91.22 -46.55,19.95 -50.62,-23.66 -78.22,-51.31 -10.72,-10.75 -82.5,-35.57 -82.5,-7.13 -5.7,1.9 5.63,27.51 7.11,31.36 16.65,43.33 16.45,99.84 -32.71,119.72 -109.77,44.38 -48.92,101.85 -54.05,192.41 -2.78,49.23 -34.13,99.8 -34.13,146.8 0,31.84 0.66,136.6 36.98,151.08 1.3,9.14 18.29,27.58 22.75,39.91 27.71,65.28 139.09,278.07 88.19,342.06 0,54.32 -34.14,111.45 -34.14,172.45 0,90.23 -8.65,195.46 -46.93,276.5 -19.74,41.78 -31.92,92.41 -45.52,136.83 -17.24,56.28 12.8,90.31 12.8,143.95 -7.04,31.31 -32.88,53.35 -38.4,75.54 -55.05,7.84 -77.35,-1.04 -130.85,-18.53 -74.99,-24.53 -345.86,63.77 -375.49,-55.59 -36.05,-10.28 -43.09,-86.82 -62.59,-99.76 0,-78.16 46.44,-388.08 -46.93,-414.75 -6.99,-24.59 -56.89,-71.3 -56.89,-98.35 -13.82,-6.89 -11.38,-87.44 0,-91.21l0 -4.28c3.59,-1.19 2.83,-8.56 7.11,-9.98 0,-20.92 15.64,-53.33 15.64,-84.09 -2.68,-0.89 -4.85,-11.2 -11.38,-12.82 -0.8,-2.42 -4.89,-3.3 -5.69,-5.7l-2.84 0c-0.73,-2.2 0.06,-1.43 -2.84,-1.43l-9320.99 -585.27c-36.81,-4.45 -238.54,-13.58 -279.67,-7.03l0 0 -14.64 -32.48c-4.59,-23.28 -57.58,-47.94 -71.14,-66.41 -23.62,-32.2 -69.85,-50.57 -98.5,-79.22 -16.35,-16.35 -55.3,-48.56 -60.2,-70.68l-14.35 -75.35c1.06,-44.84 2.13,-89.67 3.19,-134.5 3.58,-151.15 -56.19,-340.88 -167.56,-457.24 -35.55,-37.13 -12.91,-119.14 -25.56,-170.4 -5.87,-23.76 -44.65,-14.48 -59.64,-31.24 -25.51,-28.51 -19.15,-68.46 -8.98,-108.79l0 0c7.66,-30.39 17.5,-61.02 17.5,-87.17 0,-66.62 -24.59,-108.26 -53.96,-161.88 -66.2,-120.87 -120.22,-258.2 -195.96,-380.56 -57.45,-92.79 -129.9,-146.37 -102.24,-269.8 30.15,-134.59 -98.78,-197.28 -22.72,-320.92 78.16,-127.07 73.84,-257.69 73.84,-411.8 0,-92.8 45.6,-170.94 62.48,-252.76 13.82,-66.96 63.08,-229.08 48.28,-286.84 -10.72,-41.83 15.53,-106.31 28.4,-142 19.19,-53.17 -33.58,-113.83 -39.76,-167.56 -7.79,-67.8 -8.01,-135.57 -28.4,-198.8 -1.7,-5.26 -7.4,-9.86 -11.79,-17.54l-17.17 -33.83c-7.72,-1.9 -46.3,-97.76 -51.08,-108.46 -25.29,-56.49 -86.39,-124.71 -80.26,-190.11 -8.32,-2.77 -24.05,-132.37 -27.97,-152.33 -12.3,-62.58 -18.06,-88.17 -57.16,-140.14 -60.51,-80.41 -58.93,-229.99 -37.69,-324.17 4.94,-1.66 10.91,-61.41 12.16,-68.24 5.8,-31.78 7.62,-65 23.1,-93.84l86.34 -160.86c20.22,-37.68 48.63,-71.44 63.24,-110.9l7.41 -92.76c4.73,-21.05 9.47,-42.1 14.19,-63.14 4.97,-22.13 34.46,-57.87 48.28,-79.52 8.91,-13.95 36.37,-60.65 39.76,-71 13.87,-42.38 17.04,-84.97 17.04,-133.48 0,-64.34 -49.27,-133.05 -25.56,-190.28 39.79,-96.01 -53.8,-161.18 39.76,-284 34.4,-45.17 252.76,-166.21 252.76,-184.6 0,-114.86 20.11,-76.68 124.96,-76.68 74.75,0 50.8,-123.69 124.96,-170.4 43.75,-27.55 25.55,-53.71 -14.2,-82.36 -44.5,-32.09 -214.93,-116.85 -261.28,-153.36 -75.27,-59.27 -65.15,-174.62 -17.04,-249.92 29.69,-46.49 22.72,-51.82 22.72,-150.52 0,-4.74 0,-9.47 0,-14.2 0,-147.76 16.75,-187.73 -36.92,-241.4 -80.99,-80.99 -2,-128.1 -90.88,-266.96 -93.08,-145.4 -272.24,-217.98 -258.44,-411.8 4.78,-67.17 -65.32,-43.03 -65.32,-65.32 0,-103.29 52.11,-98.71 -2.84,-195.96 -62.63,-110.86 -33.03,-170.03 -68.16,-275.48 -13.15,-39.47 -79.74,-24.57 -65.32,-85.2 13.83,-58.1 72.46,-70.99 -8.52,-124.96 -54.03,-36.02 -96.17,-101.89 -79.52,-164.72 14.88,-56.1 5.07,-83.68 -32.23,-124.93l-1565.37 -9357.56 0 0 4696.03 0.14 0 0 2538.97 -6.09 42.98 -25.4 1856.98 -25.72 0 0c-14.38,45.49 -37.35,77.59 -49.22,122.64 -13.32,50.58 0,104.28 0,155.35l-1.42 1.42c-50.14,0 -30.28,-3.89 -66.85,28.51 -19.93,17.67 -57.39,-17.86 -79.65,15.68 -32.2,48.53 -6.82,20.08 -52.63,48.46 -41.81,25.91 -60.76,93.92 -89.6,132.54 -33.93,45.46 -143.43,-35.9 -162.15,49.89 -23.83,109.18 -26.81,88.84 -110.94,136.82 0,53.74 6.35,70.81 -11.38,124 -17.33,0 -68.34,-76.92 -79.65,-31.35 -2.75,0.68 -3.58,1.52 -4.26,4.27 -3.18,0.79 -9.1,4.54 -9.96,7.13 -20.46,2.92 -0.97,26.96 0,35.63 1.4,12.4 -16.25,33.85 -25.6,41.33 -21.54,8.35 -39.74,11.88 -58.32,24.23 -6.74,47.4 6.05,101.79 -2.84,148.23 -8.32,43.44 -55.66,69.88 -75.38,114.02 -9.46,21.2 -39.09,62.58 -42.22,95.19 4.42,16.72 5.78,36.72 10.43,60.93 24,124.84 161.67,45.02 207.32,136.32 0.94,1.9 1.9,3.8 2.84,5.68 7.2,14.45 28.96,38.63 34.08,53.96 32.82,98.24 123.48,-13.93 142,82.36 37.56,195.35 61.8,20.55 153.36,105.08 20.62,19.03 95.08,17.4 130.64,-2.84 52,-29.59 3,150.25 93.72,187.44 26.66,10.93 154.51,112.11 164.72,130.64 3.26,5.93 9.47,-2 14.2,2.84 5.05,5.18 4.35,3.95 11.36,8.52 5.62,3.65 1.54,5.87 5.68,8.52 8.1,5.21 20.29,7.72 22.72,17.04 37.13,142.59 232.23,197.09 332.08,288.43 64.24,-19.72 101.92,-27.58 164.98,-47.03 47.05,-14.5 184.43,-36.09 226.86,-2.03 60.43,16.5 78.19,148.95 111.65,200.14 67.73,103.58 59.71,239.19 135.88,344.79 2.35,2.65 10.2,7.56 12.04,11.52 7.54,16.24 30.62,30.66 44.1,42.76 30.22,27.15 42.3,52.42 61.16,86.94 8.8,16.09 10.77,44.63 14.22,62.71 3.55,18.63 -1.62,45.14 7.11,61.29 6.16,11.39 12.32,22.8 18.49,34.21 20.06,25.2 41.75,50.38 59.74,68.41 33.67,33.74 57.22,87.29 82.86,136.02 -6.57,25.61 4.05,88.8 11.16,116.69 7.36,28.91 24.04,80.85 26.87,100.75 13.1,8.69 17.47,102.88 22.93,120.74 15.8,51.73 22.6,68.91 45.74,109.35 70.05,20.15 168.58,98.5 186.09,168.82 47.6,27.2 81.08,136.11 105.87,183.03 39.15,74.06 120.09,81.02 138.6,173.57 -2.17,3.99 -3.19,7.03 -4.26,11.28 -0.78,3.08 -1.48,5.47 -2.84,8.55 -1.55,3.53 -2.77,12.37 -2.14,16.39 0.57,3.62 1.62,7.86 2.85,11.41 1.39,3.97 0.21,8.88 2.84,12.11 5.06,6.2 10.13,12.42 15.2,18.63 48.27,95.78 89.61,225.13 159.03,280.67 116.8,0 149.62,66.26 223.31,145.38 69.02,74.11 157.32,114.89 224.72,182.43 64.88,8.09 167.31,103.65 224.73,139.68 50.1,27.67 116.64,53.75 159.3,91.22 49.76,43.69 58.83,89.93 93.87,133.97 0,44.13 67.69,55.28 89.61,84.09 47.27,62.15 96.04,102.83 115.2,179.58 16.85,67.54 -1.01,158.93 72.54,200.96 13.17,33.11 62.64,46.81 62.64,87.16 -12.17,36.99 6.95,132.13 32.66,160.84 32.58,36.36 118.69,65.9 140.81,99.77 6.47,9.9 63.75,47.84 73.96,57.01 27.23,24.44 51.3,-31.65 73.96,-34.21 24.96,-2.81 36.01,21.01 48.36,38.48 22.89,32.35 87.54,43.06 123.74,54.16 51.83,15.91 110.82,108.09 136.54,156.78 7.59,14.37 58.06,30.21 73.96,42.76 15.3,12.06 46.12,82.18 48.36,101.19 12.25,103.9 91.8,114.58 166.41,168.18 13.44,9.66 45.23,1.3 62.58,9.98 23.45,11.75 36.58,47.3 46.94,72.69 13.95,34.22 21.08,39.84 18.49,74.11 -0.23,3.12 -6.44,6.47 -8.54,7.13 -10.27,3.27 -24.18,2.22 -34.13,7.12 -2.94,1.44 -1.59,5.17 -5.69,8.55 -8.83,7.27 10.16,57.75 5.69,71.27 -8.83,26.69 -48.06,10.76 -68.27,27.08 -10.94,8.84 36.21,37.18 39.82,51.31 9.37,36.73 41.94,83.03 -2.84,105.47 -26.17,13.12 -75.49,4.57 -38.41,49.88 11.08,13.55 15.65,16.1 15.65,34.21 0,25.77 7.9,24.73 24.18,35.63 16.77,11.24 70.33,54.45 89.6,68.41 28.71,20.79 53.25,68.24 81.08,82.66 29.22,15.15 19.2,-14.04 56.89,1.43 62.35,25.61 54.56,12.32 36.98,81.24 -15.65,61.32 114.73,22.54 48.36,122.57 -48.38,72.9 27.82,115 78.23,155.36 36.44,29.16 30.57,56.08 66.84,81.23 44.39,30.79 66.05,18.13 95.3,-41.33 26.54,-53.98 52.56,18.98 64,37.06 18.02,28.49 -4.31,80.48 -9.95,109.74 -23.24,120.54 126.54,272.42 230.41,312.14 46.77,17.89 146.29,83.55 187.75,85.51 29.36,1.38 73.82,-8.04 99.56,-1.42 21.85,5.61 20.51,41.61 39.82,49.88 9.18,3.92 29.83,-6.5 39.83,-4.28 4.04,0.9 4.93,4.31 5.69,8.56 1.53,8.52 1.59,17.42 4.27,25.65 1.19,3.64 2.12,5.18 4.26,8.55 2.38,3.77 7.12,3.44 9.96,5.7 2.9,2.29 5.06,5.86 8.53,7.13 4.3,1.56 7.19,2.55 11.38,2.85 7.84,0.57 15.92,-0.66 22.76,2.85 3.15,1.62 4.81,1.35 7.11,4.28 2.03,2.6 4.71,4.43 7.11,7.12 68.84,77.32 148.95,96.46 217.62,172.46 44.22,48.95 93.12,77.39 103.82,146.8 7.59,49.2 2.43,103.34 -52.62,111.17 -79.44,11.29 51.46,180.67 61.16,212.36 13.33,43.59 2.14,74.12 56.89,74.12 58.7,0 -3.22,36.85 -11.38,62.71 -30.62,97.09 41.94,18.72 86.76,69.84 22.66,25.86 -14.16,79.97 -11.38,109.74 0.36,3.86 5.02,5.28 8.54,7.13 23.77,12.47 43.94,1.1 66.85,8.55 16.67,5.43 30.61,18.85 34.13,29.93 15.28,48.17 26.61,71.49 9.96,115.44 -16.05,42.39 6.47,74.61 0,116.88 -10.51,68.66 67.83,96.72 54.05,168.18 -12.6,65.39 -88.15,144.07 -39.83,192.41 44.84,44.87 49.94,114.23 82.5,155.35 46.26,58.44 -129.54,111.22 -42.67,182.43 36.01,29.53 50.87,97.25 95.29,115.45 71.5,29.28 98.54,113.57 182.06,118.29 54.69,3.09 144.55,0.21 177.79,48.46 26.63,38.67 35.84,83.03 75.38,114.02 68.6,53.79 72.62,39.76 110.94,116.88 34.57,69.59 162.14,83.75 162.14,158.2 0,0.95 0,1.9 0,2.85 0,5.33 -24.37,39.57 -29.86,48.46 -57.82,93.63 20.98,146.28 52.62,220.91 15.51,36.61 7.71,97.38 28.45,129.7 18.72,29.15 36.62,77.99 45.51,106.9 24.93,81.1 118.48,-63.47 100.99,68.41 -7.32,55.23 39.84,91.93 48.35,149.65 10.56,71.68 -77.78,126.29 -109.66,196.6 -1.74,4.36 -1.74,2.66 -2.7,7.22 -8.12,38.5 20.15,33.02 28.45,55.58 1.08,2.93 6.08,5.01 8.53,7.13 3.09,2.69 2.41,1.84 5.69,4.27 1.97,1.45 2.4,2.33 2.85,4.28 1.71,7.27 1.29,15.31 -1.43,21.38 -1.5,3.37 -12.02,2.58 -14.22,7.12 -8.21,16.93 -25.9,20.05 -15.64,41.33 4.57,9.47 26.25,41.77 8.53,48.46 -2.49,0.93 -0.19,5.7 -2.85,5.7 -0.95,0 -1.9,0 -2.84,0 -20.17,0 -26.09,28.02 -17.07,52.74 1.15,3.15 4.27,0.39 4.27,2.85 0,0.95 0,1.9 0,2.85 0,9.88 -19.64,41.61 7.11,48.46 51.35,13.14 47.17,66.89 58.32,114.01 8.51,35.93 -23.79,55.39 7.11,95.5 98.11,127.39 121.08,286.87 332.82,205.23 86.28,-33.27 133.88,-122.69 199.12,-11.4 47.76,81.45 132.76,24.49 166.41,141.1 2.45,8.48 11.15,14.74 18.49,19.25 10.45,6.44 18.35,16.25 27.03,24.94 5.55,5.57 10.38,11.07 17.06,14.96 5.83,3.39 12.48,6.37 18.49,8.56 6.93,2.54 16.32,6.24 24.18,7.83 9.2,1.85 18.26,3.17 27.74,2.85 13.99,-0.47 27.95,-1.1 41.96,-1.58l0 0zm-17931.48 -14538.24l19000 0 0 22334.03 -19000 0 0 -22334.03z"/>
  <path class="fil2 str2" d="M1595.62 21510.48l2176.2 0 0 1592.86 -2176.2 0 0 -1592.86z"/>
  <path class="fil3" d="M2390.17 21694.56l-13.47 29.28 -70.55 0 -15.47 31.28c30.81,4.52 55.04,15.81 72.79,33.98 15.23,15.64 22.82,33.99 22.82,55.15 0,12.29 -2.47,23.7 -7.47,34.11 -5,10.46 -11.29,19.4 -18.87,26.75 -7.53,7.35 -16,13.29 -25.29,17.75 -13.17,6.3 -26.69,9.47 -40.57,9.47 -13.99,0 -24.16,-2.35 -30.57,-7.11 -6.35,-4.71 -9.53,-9.94 -9.53,-15.64 0,-3.18 1.3,-6 3.94,-8.47 2.65,-2.47 6,-3.65 10,-3.65 2.94,0 5.58,0.42 7.82,1.36 2.23,0.88 6,3.23 11.4,6.99 8.59,5.94 17.35,8.88 26.17,8.88 13.4,0 25.22,-5.11 35.39,-15.29 10.12,-10.17 15.23,-22.57 15.23,-37.21 0,-14.12 -4.52,-27.34 -13.58,-39.57 -9.11,-12.29 -21.58,-21.76 -37.57,-28.4 -12.46,-5.18 -29.52,-8.18 -51.09,-9l44.8 -90.66 83.67 0z"/>
  <path id="1" class="fil3" d="M2426.15 21812.86c0,-26.64 4,-49.51 12.05,-68.74 8.06,-19.22 18.7,-33.57 32.05,-42.98 10.29,-7.47 20.99,-11.17 31.98,-11.17 17.94,0 33.99,9.11 48.22,27.34 17.81,22.64 26.69,53.27 26.69,91.96 0,27.05 -3.88,50.09 -11.7,69.03 -7.82,18.93 -17.76,32.63 -29.87,41.21 -12.11,8.53 -23.81,12.82 -35.04,12.82 -22.29,0 -40.81,-13.11 -55.62,-39.39 -12.53,-22.17 -18.76,-48.86 -18.76,-80.08zm33.87 4.23c0,32.1 3.94,58.33 11.82,78.67 6.52,17.11 16.28,25.63 29.22,25.63 6.17,0 12.58,-2.76 19.22,-8.34 6.65,-5.59 11.65,-14.88 15.11,-27.99 5.24,-19.7 7.88,-47.57 7.88,-83.43 0,-26.64 -2.76,-48.86 -8.23,-66.62 -4.11,-13.23 -9.46,-22.58 -15.99,-28.05 -4.65,-3.82 -10.35,-5.7 -16.99,-5.7 -7.76,0 -14.7,3.53 -20.76,10.52 -8.23,9.53 -13.87,24.46 -16.81,44.92 -3,20.41 -4.47,40.52 -4.47,60.39z"/>
  <path id="2" class="fil3" d="M2735.9 21683.27l0 157.16 39.98 -36.63c8.52,-7.82 13.46,-12.76 14.81,-14.82 0.95,-1.41 1.42,-2.76 1.42,-4.17 0,-2.29 -1,-4.23 -2.89,-5.94 -1.88,-1.65 -4.99,-2.59 -9.4,-2.82l0 -5.65 68.61 0 0 5.65c-9.35,0.23 -17.17,1.7 -23.4,4.35 -6.23,2.7 -13.05,7.47 -20.52,14.29l-40.63 37.22 40.34 51.33c11.29,14.05 18.81,23.04 22.58,26.98 5.58,5.24 10.4,8.65 14.58,10.17 2.94,1.12 7.99,1.71 15.17,1.71l0 6.35 -76.73 0 0 -6.35c4.41,-0.12 7.35,-0.76 8.88,-1.94 1.58,-1.24 2.35,-2.88 2.35,-5.06 0,-2.64 -2.3,-6.88 -6.88,-12.7l-48.27 -61.79 0 52.21c0,10.23 0.7,16.93 2.11,20.17 1.47,3.17 3.47,5.46 6.12,6.88 2.64,1.35 8.35,2.11 17.17,2.23l0 6.35 -80.08 0 0 -6.35c7.99,0 14.05,-1 18.05,-2.94 2.41,-1.23 4.23,-3.17 5.46,-5.76 1.71,-3.76 2.59,-10.29 2.59,-19.52l0 -143.94c0,-18.05 -0.41,-29.1 -1.18,-33.16 -0.82,-4.05 -2.11,-6.82 -3.99,-8.35 -1.83,-1.58 -4.24,-2.35 -7.18,-2.35 -2.41,0 -6.05,1 -10.82,2.94l-2.93 -6.35 46.74 -19.4 7.94 0z"/>
  <path id="3" class="fil3" d="M2912.64 21799.57c11.41,-11.53 18.17,-18.17 20.22,-19.93 5.12,-4.36 10.65,-7.77 16.59,-10.18 5.93,-2.41 11.81,-3.64 17.63,-3.64 9.88,0 18.29,2.88 25.4,8.64 7.06,5.76 11.82,14.11 14.17,25.11 11.88,-13.88 21.88,-22.93 30.05,-27.28 8.17,-4.3 16.58,-6.47 25.22,-6.47 8.35,0 15.82,2.17 22.35,6.47 6.46,4.29 11.64,11.34 15.4,21.16 2.53,6.65 3.82,17.11 3.82,31.4l0 67.97c0,9.82 0.71,16.58 2.18,20.23 1.12,2.46 3.23,4.64 6.23,6.4 3.06,1.77 8,2.65 14.88,2.65l0 6.35 -77.26 0 0 -6.35 3.29 0c6.7,0 11.99,-1.29 15.76,-3.94 2.64,-1.82 4.52,-4.76 5.64,-8.76 0.47,-1.94 0.71,-7.47 0.71,-16.58l0 -67.91c0,-12.88 -1.53,-21.93 -4.65,-27.22 -4.52,-7.35 -11.7,-11.06 -21.63,-11.06 -6.06,0 -12.23,1.53 -18.41,4.59 -6.11,3 -13.58,8.7 -22.34,16.93l-0.35 1.94 0.7 7.41 0 75.32c0,10.7 0.59,17.4 1.77,20.05 1.23,2.59 3.46,4.82 6.76,6.58 3.29,1.77 8.93,2.65 16.87,2.65l0 6.35 -79.37 0 0 -6.35c8.64,0 14.58,-1 17.81,-3.06 3.24,-2.06 5.47,-5.17 6.7,-9.29 0.59,-1.94 0.89,-7.58 0.89,-16.93l0 -67.91c0,-12.88 -1.88,-22.17 -5.65,-27.87 -5.05,-7.41 -12.05,-11.11 -21.11,-11.11 -6.17,0 -12.28,1.7 -18.34,5.05 -9.47,5.06 -16.82,10.82 -21.93,17.17l0 84.67c0,10.29 0.7,16.93 2.12,20.05 1.41,3.06 3.52,5.35 6.35,6.94 2.76,1.53 8.4,2.29 16.93,2.29l0 6.35 -77.97 0 0 -6.35c7.24,0 12.29,-0.76 15.17,-2.29 2.89,-1.59 5.06,-4 6.59,-7.41 1.47,-3.35 2.23,-9.88 2.23,-19.58l0 -60.33c0,-17.28 -0.53,-28.45 -1.53,-33.51 -0.82,-3.82 -2.05,-6.41 -3.82,-7.82 -1.7,-1.47 -4.05,-2.18 -6.99,-2.18 -3.24,0 -7.06,0.89 -11.53,2.59l-2.58 -6.35 47.62 -19.4 7.41 0 0 33.75z"/>
  <path class="fil3" d="M2258.09 22709.15c6.64,-15.76 15.11,-27.93 25.28,-36.51 10.17,-8.59 22.87,-12.88 38.04,-12.88 18.76,0 33.11,6.06 43.1,18.23 7.59,9.05 11.41,18.75 11.41,29.1 0,16.99 -10.7,34.57 -32.11,52.68 14.41,5.65 25.29,13.64 32.7,24.11 7.35,10.41 11.05,22.7 11.05,36.81 0,20.22 -6.47,37.69 -19.34,52.5 -16.76,19.29 -41.1,28.93 -72.97,28.93 -15.76,0 -26.46,-1.94 -32.16,-5.88 -5.71,-3.88 -8.53,-8.11 -8.53,-12.58 0,-3.35 1.35,-6.23 4.06,-8.76 2.7,-2.53 5.94,-3.82 9.76,-3.82 2.88,0 5.82,0.47 8.82,1.41 1.94,0.59 6.35,2.7 13.29,6.35 6.88,3.64 11.7,5.82 14.34,6.52 4.24,1.3 8.82,1.94 13.64,1.94 11.76,0 21.93,-4.52 30.64,-13.64 8.7,-9.05 13.05,-19.81 13.05,-32.22 0,-9.05 -2,-17.93 -6.06,-26.51 -3,-6.47 -6.29,-11.35 -9.82,-14.65 -4.99,-4.58 -11.76,-8.76 -20.4,-12.52 -8.64,-3.7 -17.46,-5.58 -26.46,-5.58l-5.52 0 0 -5.3c9.11,-1.17 18.16,-4.41 27.34,-9.82 9.11,-5.4 15.75,-11.87 19.87,-19.46 4.17,-7.58 6.23,-15.87 6.23,-24.99 0,-11.81 -3.7,-21.34 -11.11,-28.63 -7.47,-7.29 -16.7,-10.94 -27.75,-10.94 -17.82,0 -32.69,9.65 -44.69,28.87l-5.7 -2.76z"/>
  <path id="1" class="fil3" d="M2429.54 22782.65c0,-26.64 4,-49.51 12.05,-68.74 8.06,-19.22 18.7,-33.57 32.05,-42.98 10.29,-7.47 20.99,-11.17 31.98,-11.17 17.94,0 33.99,9.11 48.22,27.34 17.81,22.64 26.69,53.27 26.69,91.96 0,27.05 -3.88,50.09 -11.7,69.03 -7.82,18.93 -17.76,32.63 -29.87,41.21 -12.11,8.53 -23.81,12.82 -35.04,12.82 -22.29,0 -40.81,-13.11 -55.62,-39.39 -12.53,-22.17 -18.76,-48.86 -18.76,-80.08zm33.87 4.23c0,32.1 3.94,58.33 11.82,78.67 6.52,17.11 16.28,25.63 29.22,25.63 6.17,0 12.58,-2.76 19.22,-8.34 6.65,-5.59 11.65,-14.88 15.11,-27.99 5.24,-19.7 7.88,-47.57 7.88,-83.43 0,-26.64 -2.76,-48.86 -8.23,-66.62 -4.11,-13.23 -9.46,-22.58 -15.99,-28.05 -4.65,-3.82 -10.35,-5.7 -16.99,-5.7 -7.76,0 -14.7,3.53 -20.76,10.52 -8.23,9.53 -13.87,24.46 -16.81,44.92 -3,20.41 -4.47,40.52 -4.47,60.39z"/>
  <path id="2" class="fil3" d="M2739.64 22769.36c11.41,-11.53 18.17,-18.17 20.22,-19.93 5.12,-4.36 10.65,-7.77 16.59,-10.18 5.93,-2.41 11.81,-3.64 17.63,-3.64 9.88,0 18.29,2.88 25.4,8.64 7.06,5.76 11.82,14.11 14.17,25.11 11.88,-13.88 21.88,-22.93 30.05,-27.28 8.17,-4.3 16.58,-6.47 25.22,-6.47 8.35,0 15.82,2.17 22.35,6.47 6.46,4.29 11.64,11.34 15.4,21.16 2.53,6.65 3.82,17.11 3.82,31.4l0 67.97c0,9.82 0.71,16.58 2.18,20.23 1.12,2.46 3.23,4.64 6.23,6.4 3.06,1.77 8,2.65 14.88,2.65l0 6.35 -77.26 0 0 -6.35 3.29 0c6.7,0 11.99,-1.29 15.76,-3.94 2.64,-1.82 4.52,-4.76 5.64,-8.76 0.47,-1.94 0.71,-7.47 0.71,-16.58l0 -67.91c0,-12.88 -1.53,-21.93 -4.65,-27.22 -4.52,-7.35 -11.7,-11.06 -21.63,-11.06 -6.06,0 -12.23,1.53 -18.41,4.59 -6.11,3 -13.58,8.7 -22.34,16.93l-0.35 1.94 0.7 7.41 0 75.32c0,10.7 0.59,17.4 1.77,20.05 1.23,2.59 3.46,4.82 6.76,6.58 3.29,1.77 8.93,2.65 16.87,2.65l0 6.35 -79.37 0 0 -6.35c8.64,0 14.58,-1 17.81,-3.06 3.24,-2.06 5.47,-5.17 6.7,-9.29 0.59,-1.94 0.89,-7.58 0.89,-16.93l0 -67.91c0,-12.88 -1.88,-22.17 -5.65,-27.87 -5.05,-7.41 -12.05,-11.11 -21.11,-11.11 -6.17,0 -12.28,1.7 -18.34,5.05 -9.47,5.06 -16.82,10.82 -21.93,17.17l0 84.67c0,10.29 0.7,16.93 2.12,20.05 1.41,3.06 3.52,5.35 6.35,6.94 2.76,1.53 8.4,2.29 16.93,2.29l0 6.35 -77.97 0 0 -6.35c7.24,0 12.29,-0.76 15.17,-2.29 2.89,-1.59 5.06,-4 6.59,-7.41 1.47,-3.35 2.23,-9.88 2.23,-19.58l0 -60.33c0,-17.28 -0.53,-28.45 -1.53,-33.51 -0.82,-3.82 -2.05,-6.41 -3.82,-7.82 -1.7,-1.47 -4.05,-2.18 -6.99,-2.18 -3.24,0 -7.06,0.89 -11.53,2.59l-2.58 -6.35 47.62 -19.4 7.41 0 0 33.75z"/>
  <path id="3" class="fil3" d="M3007.28 22653.06c4.76,0 8.88,1.7 12.29,5.05 3.35,3.41 5.05,7.53 5.05,12.29 0,4.82 -1.7,9 -5.05,12.41 -3.41,3.47 -7.53,5.17 -12.29,5.17 -4.82,0 -9,-1.7 -12.41,-5.17 -3.47,-3.41 -5.17,-7.59 -5.17,-12.41 0,-4.76 1.7,-8.88 5.05,-12.29 3.41,-3.35 7.59,-5.05 12.53,-5.05zm14.17 82.55l0 127c0,9.82 0.7,16.34 2.17,19.58 1.41,3.29 3.53,5.7 6.35,7.29 2.82,1.59 8,2.41 15.47,2.41l0 6.35 -76.56 0 0 -6.35c7.65,0 12.82,-0.76 15.41,-2.23 2.64,-1.47 4.7,-3.94 6.29,-7.35 1.53,-3.41 2.29,-10 2.29,-19.7l0 -61.03c0,-16.99 -0.53,-27.99 -1.53,-33.05 -0.82,-3.64 -2.05,-6.17 -3.82,-7.58 -1.7,-1.47 -4.06,-2.18 -7,-2.18 -3.23,0 -7.11,0.89 -11.7,2.59l-2.41 -6.35 47.45 -19.4 7.59 0z"/>
  <g id="_1964382934832">
   <path class="fil4 str3" d="M1735.23 22109.75l378.66 0 0 99.16 -378.66 0 0 -99.16z"/>
   <path class="fil5 str3" d="M2113.88 22109.75l378.66 0 0 99.16 -378.66 0 0 -99.16z"/>
   <path class="fil4 str3" d="M2492.54 22109.75l378.65 0 0 99.16 -378.65 0 0 -99.16z"/>
   <path class="fil5 str3" d="M2871.28 22109.75l378.66 0 0 99.16 -378.66 0 0 -99.16z"/>
   <path class="fil4 str3" d="M3249.95 22109.75l378.65 0 0 99.16 -378.65 0 0 -99.16z"/>
   <path class="fil5 str3" d="M2947.79 22408.69l605.62 0 0 99.16 -605.62 0 0 -99.16z"/>
   <path class="fil4 str3" d="M2342.17 22408.69l605.62 0 0 99.16 -605.62 0 0 -99.16z"/>
   <path class="fil5 str3" d="M1736.56 22408.69l605.62 0 0 99.16 -605.62 0 0 -99.16z"/>
  </g>
  <rect class="fil6 str4" x="1000" y="999.99" width="19000" height="22334.03"/>
  <path class="fil7" d="M1213.27 23004.05c0,-17.45 4.47,-34.48 13.46,-51.13 8.93,-16.61 21.77,-29.59 38.43,-38.86 16.69,-9.26 34.1,-13.92 52.16,-13.92 17.92,0 35.18,4.56 51.69,13.74 16.56,9.12 29.4,21.92 38.53,38.43 9.17,16.51 13.73,33.77 13.73,51.74 0,18.01 -4.56,35.27 -13.73,51.78 -9.13,16.51 -21.97,29.35 -38.53,38.53 -16.51,9.17 -33.77,13.78 -51.69,13.78 -18.06,0 -35.47,-4.66 -52.16,-13.97 -16.66,-9.36 -29.5,-22.34 -38.43,-38.95 -8.99,-16.65 -13.46,-33.68 -13.46,-51.17zm17.22 0c0,14.62 3.76,28.88 11.24,42.7 7.48,13.83 18.2,24.65 32.13,32.46 13.92,7.81 28.41,11.71 43.46,11.71 15,0 29.35,-3.85 43.08,-11.52 13.74,-7.67 24.46,-18.39 32.13,-32.17 7.67,-13.79 11.52,-28.18 11.52,-43.18 0,-14.96 -3.85,-29.36 -11.52,-43.14 -7.67,-13.78 -18.39,-24.5 -32.13,-32.12 -13.73,-7.62 -28.08,-11.43 -43.08,-11.43 -15.05,0 -29.54,3.9 -43.46,11.66 -13.93,7.76 -24.65,18.58 -32.13,32.46 -7.48,13.87 -11.24,28.08 -11.24,42.57zm103.57 -33.35l5.08 -16.94c11.53,2.78 20.7,8.61 27.52,17.55 6.87,8.98 10.3,19.85 10.3,32.59 0,16.19 -5.22,29.31 -15.71,39.42 -10.49,10.11 -24.98,15.15 -43.55,15.15 -12.14,0 -22.68,-2.31 -31.61,-6.92 -8.99,-4.56 -15.71,-11.15 -20.28,-19.61 -4.56,-8.52 -6.82,-18.25 -6.82,-29.16 0,-12.23 2.92,-22.39 8.8,-30.48 5.88,-8.09 13.88,-13.6 23.94,-16.56l4.23 16.37c-6.91,2.77 -12.23,6.82 -15.89,12.23 -3.72,5.41 -5.55,11.71 -5.55,19 0,10.58 3.76,19.33 11.28,26.2 7.53,6.87 18.35,10.3 32.37,10.3 14.06,0 24.69,-3.24 31.89,-9.74 7.19,-6.49 10.81,-14.86 10.81,-25.16 0,-8.28 -2.39,-15.57 -7.24,-21.83 -4.8,-6.25 -11.33,-10.39 -19.57,-12.41z"/>
  <path id="1" class="fil7" d="M1418.73 22708.89l-18.58 0c14.44,9.27 21.68,22.91 21.68,40.92 0,11.67 -3.19,22.39 -9.64,32.13 -6.4,9.78 -15.38,17.35 -26.86,22.76 -11.52,5.37 -24.74,8.05 -39.69,8.05 -14.59,0 -27.8,-2.45 -39.7,-7.29 -11.86,-4.9 -20.98,-12.19 -27.29,-21.92 -6.35,-9.69 -9.5,-20.61 -9.5,-32.6 0,-8.84 1.88,-16.7 5.6,-23.56 3.72,-6.87 8.61,-12.47 14.58,-16.8l-72.67 0 0 -24.83 202.07 0 0 23.14zm-73.05 78.46c18.72,0 32.69,-3.95 41.96,-11.9 9.26,-7.91 13.87,-17.27 13.87,-28.04 0,-10.86 -4.42,-20.08 -13.26,-27.7 -8.84,-7.57 -22.34,-11.38 -40.5,-11.38 -19.94,0 -34.62,3.85 -43.98,11.61 -9.36,7.72 -14.01,17.27 -14.01,28.6 0,11.06 4.46,20.27 13.45,27.71 8.98,7.38 23.14,11.1 42.47,11.1z"/>
  <path id="2" class="fil7" d="M1358.05 22656.35l-24.83 0 0 -76.76 24.83 0 0 76.76z"/>
  <path id="3" class="fil7" d="M1418.73 22552.49l-146.47 0 0 -22.29 20.69 0c-7.15,-4.56 -12.93,-10.68 -17.26,-18.3 -4.37,-7.62 -6.54,-16.27 -6.54,-26.01 0,-10.82 2.26,-19.71 6.73,-26.62 4.52,-6.92 10.77,-11.81 18.86,-14.63 -17.07,-11.67 -25.59,-26.77 -25.59,-45.39 0,-14.58 4,-25.83 12.04,-33.63 8.05,-7.86 20.42,-11.81 37.12,-11.81l100.42 0 0 24.84 -92.19 0c-9.88,0 -17.03,0.84 -21.4,2.44 -4.38,1.6 -7.86,4.52 -10.54,8.8 -2.68,4.23 -4,9.22 -4,14.91 0,10.35 3.44,18.91 10.26,25.73 6.86,6.82 17.82,10.2 32.87,10.2l85 0 0 24.84 -95.06 0c-11.01,0 -19.29,2.02 -24.79,6.07 -5.5,4.04 -8.28,10.67 -8.28,19.85 0,6.96 1.84,13.4 5.51,19.33 3.66,5.93 9.03,10.21 16.13,12.89 7.05,2.63 17.26,3.95 30.57,3.95l75.92 0 0 24.83z"/>
  <path id="4" class="fil7" d="M1400.39 22221.73c7.85,9.22 13.35,18.11 16.6,26.62 3.25,8.52 4.84,17.64 4.84,27.43 0,16.08 -3.9,28.45 -11.75,37.11 -7.81,8.65 -17.83,12.98 -30.01,12.98 -7.15,0 -13.69,-1.65 -19.62,-4.89 -5.93,-3.29 -10.63,-7.57 -14.2,-12.84 -3.58,-5.32 -6.31,-11.24 -8.14,-17.88 -1.27,-4.89 -2.49,-12.27 -3.72,-22.1 -2.35,-20.04 -5.22,-34.86 -8.51,-44.31 -3.39,-0.1 -5.55,-0.14 -6.44,-0.14 -10.07,0 -17.17,2.35 -21.31,7.05 -5.6,6.35 -8.37,15.81 -8.37,28.32 0,11.71 2.07,20.36 6.16,25.92 4.09,5.59 11.38,9.68 21.78,12.37l-3.39 24.27c-10.4,-2.21 -18.82,-5.84 -25.21,-10.92 -6.4,-5.08 -11.29,-12.41 -14.77,-22.01 -3.44,-9.55 -5.18,-20.7 -5.18,-33.3 0,-12.51 1.46,-22.72 4.42,-30.57 2.97,-7.81 6.64,-13.6 11.11,-17.27 4.46,-3.67 10.11,-6.25 16.93,-7.76 4.23,-0.8 11.85,-1.22 22.81,-1.22l32.93 0c23,0 37.53,-0.52 43.69,-1.55 6.17,-0.99 12.05,-3.06 17.69,-6.07l0 25.96c-5.22,2.5 -11.34,4.1 -18.34,4.8zm-55.04 1.98c3.67,9.03 6.78,22.57 9.32,40.64 1.45,10.25 3.1,17.49 4.93,21.73 1.84,4.23 4.52,7.48 8,9.78 3.53,2.31 7.43,3.48 11.76,3.48 6.54,0 12.04,-2.49 16.42,-7.52 4.37,-5.04 6.58,-12.38 6.58,-22.02 0,-9.55 -2.07,-18.06 -6.25,-25.54 -4.14,-7.43 -9.84,-12.93 -17.03,-16.41 -5.6,-2.69 -13.83,-4 -24.7,-4l-9.03 -0.14z"/>
  <path id="5" class="fil7" d="M1474.89 22160.44l-202.63 0 0 -22.57 19.24 0c-7.44,-5.32 -13.03,-11.34 -16.75,-18.07 -3.72,-6.68 -5.6,-14.81 -5.6,-24.36 0,-12.51 3.2,-23.52 9.65,-33.07 6.39,-9.55 15.47,-16.74 27.14,-21.63 11.71,-4.85 24.5,-7.3 38.47,-7.3 14.91,0 28.37,2.69 40.36,8.05 11.95,5.36 21.12,13.17 27.52,23.42 6.35,10.21 9.54,20.98 9.54,32.27 0,8.28 -1.74,15.71 -5.22,22.25 -3.48,6.58 -7.85,11.94 -13.17,16.18l71.45 0 0 24.83zm-128.5 -22.57c18.77,0 32.69,-3.81 41.67,-11.39 8.99,-7.62 13.45,-16.84 13.45,-27.65 0,-11.01 -4.65,-20.42 -13.97,-28.23 -9.31,-7.85 -23.7,-11.76 -43.22,-11.76 -18.63,0 -32.55,3.81 -41.82,11.48 -9.26,7.67 -13.87,16.79 -13.87,27.42 0,10.54 4.94,19.85 14.77,27.94 9.87,8.14 24.17,12.19 42.99,12.19z"/>
  <path id="6" class="fil7" d="M1374.99 22013.36l-3.96 -24.55c9.84,-1.37 17.36,-5.22 22.63,-11.53 5.22,-6.3 7.85,-15.14 7.85,-26.43 0,-11.43 -2.3,-19.9 -6.96,-25.45 -4.61,-5.5 -10.06,-8.28 -16.32,-8.28 -5.6,0 -10.02,2.5 -13.22,7.44 -2.21,3.48 -4.98,11.94 -8.42,25.4 -4.56,18.15 -8.51,30.71 -11.85,37.77 -3.39,7 -7.99,12.32 -13.92,15.94 -5.88,3.62 -12.42,5.46 -19.57,5.46 -6.54,0 -12.56,-1.51 -18.11,-4.47 -5.55,-3.01 -10.16,-7.06 -13.83,-12.18 -2.82,-3.86 -5.22,-9.13 -7.19,-15.76 -1.98,-6.68 -2.97,-13.78 -2.97,-21.4 0,-11.48 1.65,-21.54 4.99,-30.2 3.29,-8.7 7.81,-15.1 13.45,-19.24 5.69,-4.09 13.27,-6.96 22.77,-8.51l3.38 24.27c-7.62,1.08 -13.59,4.28 -17.87,9.55 -4.28,5.27 -6.4,12.7 -6.4,22.34 0,11.34 1.88,19.47 5.65,24.32 3.76,4.84 8.18,7.29 13.21,7.29 3.2,0 6.12,-0.99 8.71,-3.01 2.63,-2.02 4.84,-5.18 6.58,-9.5 0.94,-2.5 3.06,-9.74 6.35,-21.87 4.66,-17.5 8.52,-29.73 11.48,-36.69 2.96,-6.96 7.34,-12.42 12.98,-16.37 5.69,-4 12.75,-5.98 21.21,-5.98 8.24,0 16,2.4 23.29,7.25 7.29,4.84 12.93,11.8 16.93,20.88 4,9.13 5.97,19.43 5.97,30.91 0,19 -3.95,33.53 -11.8,43.5 -7.9,9.98 -19.57,16.33 -35.04,19.1z"/>
  <path id="7" class="fil7" d="M1418.73 21855.32l-28.22 0 0 -28.22 28.22 0 0 28.22z"/>
  <path id="8" class="fil7" d="M1365.11 21688.29l3.38 -24.27c16.7,2.68 29.73,9.45 39.19,20.41 9.45,10.96 14.15,24.46 14.15,40.41 0,19.99 -6.53,36.08 -19.61,48.21 -13.08,12.18 -31.8,18.25 -56.16,18.25 -15.81,0 -29.59,-2.63 -41.39,-7.85 -11.86,-5.22 -20.75,-13.17 -26.63,-23.9 -5.92,-10.68 -8.89,-22.29 -8.89,-34.9 0,-15.85 4,-28.88 12.04,-38.95 8.05,-10.11 19.48,-16.6 34.25,-19.42l3.67 23.99c-9.83,2.3 -17.22,6.35 -22.2,12.23 -4.94,5.83 -7.44,12.88 -7.44,21.16 0,12.51 4.47,22.67 13.41,30.53 8.98,7.81 23.09,11.71 42.47,11.71 19.66,0 33.92,-3.76 42.81,-11.29 8.89,-7.57 13.35,-17.4 13.35,-29.49 0,-9.78 -2.96,-17.92 -8.93,-24.41 -5.93,-6.54 -15.1,-10.68 -27.47,-12.42z"/>
  <path id="9" class="fil7" d="M1345.49 21652.17c-27.04,0 -47.08,-7.53 -60.11,-22.63 -10.82,-12.56 -16.23,-27.94 -16.23,-46.05 0,-20.08 6.59,-36.54 19.76,-49.34 13.12,-12.75 31.33,-19.14 54.51,-19.14 18.82,0 33.59,2.82 44.36,8.46 10.77,5.65 19.14,13.88 25.12,24.7 5.97,10.77 8.93,22.58 8.93,35.32 0,20.51 -6.53,37.07 -19.66,49.72 -13.12,12.65 -32.03,18.96 -56.68,18.96zm0.05 -25.4c18.72,0 32.74,-4.1 42,-12.28 9.32,-8.23 13.97,-18.53 13.97,-31 0,-12.32 -4.65,-22.57 -14.01,-30.81 -9.36,-8.18 -23.61,-12.27 -42.76,-12.27 -18.06,0 -31.75,4.14 -41.01,12.37 -9.32,8.23 -13.97,18.48 -13.97,30.71 0,12.47 4.61,22.77 13.87,31 9.27,8.18 23.24,12.28 41.91,12.28z"/>
  <path id="10" class="fil7" d="M1418.73 21485.89l-146.47 0 0 -22.29 20.69 0c-7.15,-4.56 -12.93,-10.68 -17.26,-18.3 -4.37,-7.62 -6.54,-16.27 -6.54,-26.01 0,-10.82 2.26,-19.71 6.73,-26.62 4.52,-6.92 10.77,-11.81 18.86,-14.63 -17.07,-11.67 -25.59,-26.77 -25.59,-45.39 0,-14.58 4,-25.83 12.04,-33.63 8.05,-7.86 20.42,-11.81 37.12,-11.81l100.42 0 0 24.84 -92.19 0c-9.88,0 -17.03,0.84 -21.4,2.44 -4.38,1.6 -7.86,4.52 -10.54,8.8 -2.68,4.23 -4,9.22 -4,14.91 0,10.35 3.44,18.91 10.26,25.73 6.86,6.82 17.82,10.2 32.87,10.2l85 0 0 24.84 -95.06 0c-11.01,0 -19.29,2.02 -24.79,6.07 -5.5,4.04 -8.28,10.67 -8.28,19.85 0,6.96 1.84,13.4 5.51,19.33 3.66,5.93 9.03,10.21 16.13,12.89 7.05,2.63 17.26,3.95 30.57,3.95l75.92 0 0 24.83z"/>
  <g id="_1964382928080">
   <path class="fil2 str2" d="M3908.54 21507.27l815.93 0 0 1592.89 -815.93 0 0 -1592.89z"/>
   <path class="fil8" d="M4256.64 21943.4c-0.92,3.32 -1.63,6.35 -2.07,9.15 -0.44,2.79 -0.65,5.18 -0.65,7.22 0,5.59 1.8,9.56 5.29,11.89 3.49,2.33 9.55,3.49 18.05,3.49l4.15 0 -4.96 22.72 -78.17 0 5.29 -22.72 2.89 0c7.36,0 12.82,-1.51 16.48,-4.54 3.6,-2.97 6.32,-8.39 8.12,-16.14l37.59 -153.79c0.6,-2.74 1.14,-5.54 1.52,-8.45 0.33,-2.91 0.55,-5.77 0.55,-8.62 0,-5.36 -1.96,-9.15 -5.95,-11.36 -3.92,-2.22 -10.69,-3.32 -20.23,-3.32l-3.06 0 5.29 -22.72 72.33 0 62.14 183.5 31.31 -129.03c1.08,-4.2 1.85,-7.63 2.34,-10.31 0.49,-2.68 0.71,-4.72 0.71,-6.06 0,-5.6 -1.8,-9.56 -5.35,-11.89 -3.6,-2.33 -9.71,-3.49 -18.32,-3.49l-4.15 0 4.96 -22.72 78.5 0 -5.62 22.72 -2.84 0c-7.37,0 -12.87,1.51 -16.47,4.54 -3.66,2.97 -6.33,8.33 -8.18,15.96l-50.68 208.44 -21.54 0 -72.06 -209.48 -37.21 155.01z"/>
   <path class="fil6 str5" d="M4317.33 22966.96l0 -769.27"/>
   <path class="fil6 str5" d="M4035.28 22690.91l563.14 0"/>
   <path class="fil6 str5" d="M4172.43 22830.9l294.22 -286.81"/>
   <path class="fil6 str5" d="M4169.29 22543.85l297.98 288.85"/>
   <path class="fil6 str5" d="M4317.33 22197.69l-95.61 120.74"/>
   <path class="fil6 str5" d="M4322.39 22197.69l83.31 120.74"/>
  </g>
  <g id="_1964382918768">
   <path class="fil2 str2" d="M7553.6 22630.71l0 473.7 -2309.37 0 0 -473.7 2309.37 0z"/>
   <path class="fil8" d="M6321.57 22969.18l0 -202.07 40.07 0 47.79 143.04c4.42,13.31 7.62,23.28 9.64,29.91 2.31,-7.33 5.93,-18.15 10.82,-32.4l48.64 -140.55 35.79 0 0 202.07 -25.68 0 0 -169.05 -58.98 169.05 -24.09 0 -58.32 -172.15 0 172.15 -25.68 0z"/>
   <path id="1" class="fil8" d="M6654.02 22921.77l25.68 3.38c-3.99,14.91 -11.47,26.53 -22.39,34.76 -10.91,8.24 -24.83,12.37 -41.81,12.37 -21.36,0 -38.29,-6.58 -50.8,-19.75 -12.51,-13.12 -18.77,-31.61 -18.77,-55.36 0,-24.56 6.31,-43.65 18.96,-57.2 12.65,-13.59 29.07,-20.37 49.25,-20.37 19.52,0 35.46,6.64 47.83,19.95 12.37,13.31 18.58,32.03 18.58,56.16 0,1.46 -0.05,3.67 -0.14,6.58l-109.08 0c0.94,16.04 5.46,28.37 13.64,36.88 8.14,8.51 18.35,12.79 30.53,12.79 9.08,0 16.84,-2.39 23.24,-7.19 6.44,-4.8 11.52,-12.47 15.28,-23zm-81.28 -39.8l81.56 0c-1.08,-12.32 -4.23,-21.54 -9.36,-27.7 -7.85,-9.55 -18.1,-14.35 -30.66,-14.35 -11.39,0 -20.93,3.81 -28.7,11.43 -7.71,7.62 -11.99,17.83 -12.84,30.62z"/>
   <path id="2" class="fil8" d="M6710.79 22969.18l0 -146.47 22.3 0 0 22.43c5.69,-10.39 10.96,-17.26 15.8,-20.55 4.85,-3.34 10.16,-4.99 15.95,-4.99 8.37,0 16.89,2.64 25.54,7.86l-8.84 22.91c-6.02,-3.39 -12.04,-5.08 -18.06,-5.08 -5.41,0 -10.26,1.64 -14.54,4.89 -4.28,3.24 -7.34,7.76 -9.17,13.54 -2.78,8.8 -4.14,18.44 -4.14,28.93l0 76.53 -24.84 0z"/>
   <path id="3" class="fil8" d="M6900.73 22915.56l24.27 3.38c-2.68,16.7 -9.45,29.73 -20.41,39.19 -10.96,9.45 -24.46,14.15 -40.41,14.15 -19.99,0 -36.08,-6.53 -48.21,-19.61 -12.18,-13.08 -18.25,-31.8 -18.25,-56.16 0,-15.81 2.63,-29.59 7.85,-41.44 5.22,-11.81 13.17,-20.7 23.9,-26.58 10.68,-5.92 22.29,-8.89 34.9,-8.89 15.85,0 28.88,4 38.95,12.04 10.11,8.05 16.6,19.48 19.42,34.25l-23.99 3.67c-2.3,-9.83 -6.35,-17.22 -12.23,-22.2 -5.83,-4.94 -12.88,-7.44 -21.16,-7.44 -12.51,0 -22.67,4.47 -30.53,13.41 -7.81,8.98 -11.71,23.09 -11.71,42.47 0,19.66 3.76,33.92 11.29,42.81 7.57,8.89 17.4,13.35 29.49,13.35 9.78,0 17.92,-2.96 24.41,-8.93 6.54,-5.93 10.68,-15.1 12.42,-27.47z"/>
   <path id="4" class="fil8" d="M7041.84 22950.84c-9.22,7.85 -18.11,13.35 -26.62,16.6 -8.52,3.25 -17.64,4.84 -27.43,4.84 -16.08,0 -28.45,-3.9 -37.11,-11.75 -8.65,-7.81 -12.98,-17.83 -12.98,-30.01 0,-7.15 1.65,-13.69 4.89,-19.62 3.29,-5.93 7.57,-10.63 12.84,-14.2 5.32,-3.58 11.24,-6.31 17.88,-8.14 4.89,-1.27 12.27,-2.49 22.1,-3.72 20.04,-2.35 34.86,-5.22 44.31,-8.51 0.1,-3.39 0.14,-5.55 0.14,-6.44 0,-10.07 -2.35,-17.17 -7.05,-21.31 -6.35,-5.6 -15.81,-8.37 -28.32,-8.37 -11.71,0 -20.36,2.07 -25.92,6.16 -5.59,4.09 -9.68,11.33 -12.37,21.78l-24.27 -3.39c2.21,-10.4 5.84,-18.82 10.92,-25.21 5.08,-6.4 12.41,-11.29 22.01,-14.77 9.55,-3.44 20.7,-5.18 33.3,-5.18 12.51,0 22.72,1.46 30.57,4.42 7.81,2.97 13.6,6.64 17.27,11.11 3.67,4.46 6.25,10.11 7.76,16.93 0.8,4.23 1.22,11.85 1.22,22.81l0 32.93c0,23 0.52,37.53 1.55,43.69 0.99,6.17 3.06,12.05 6.07,17.69l-25.96 0c-2.5,-5.22 -4.1,-11.34 -4.8,-18.34zm-1.98 -55.04c-9.03,3.67 -22.57,6.78 -40.64,9.32 -10.25,1.45 -17.49,3.1 -21.73,4.93 -4.23,1.84 -7.48,4.52 -9.78,8 -2.31,3.53 -3.48,7.43 -3.48,11.76 0,6.54 2.49,12.04 7.52,16.42 5.04,4.37 12.38,6.58 22.02,6.58 9.55,0 18.06,-2.07 25.54,-6.25 7.43,-4.14 12.93,-9.84 16.41,-17.03 2.69,-5.6 4,-13.83 4,-24.7l0.14 -9.03z"/>
   <path id="5" class="fil8" d="M7157.03 22947.03l3.39 21.91c-6.96,1.46 -13.22,2.22 -18.68,2.22 -8.98,0 -15.94,-1.42 -20.93,-4.28 -4.94,-2.87 -8.42,-6.59 -10.44,-11.25 -2.02,-4.65 -3.01,-14.44 -3.01,-29.35l0 -84.38 -18.34 0 0 -19.19 18.34 0 0 -36.22 24.84 -14.91 0 51.13 24.83 0 0 19.19 -24.83 0 0 85.79c0,7.11 0.42,11.67 1.31,13.69 0.85,2.02 2.26,3.62 4.24,4.85 1.97,1.17 4.79,1.78 8.46,1.78 2.73,0 6.35,-0.33 10.82,-0.98z"/>
   <path id="6" class="fil8" d="M7172.22 22895.94c0,-27.04 7.53,-47.08 22.63,-60.11 12.56,-10.82 27.94,-16.23 46.05,-16.23 20.08,0 36.54,6.59 49.34,19.76 12.75,13.12 19.14,31.33 19.14,54.51 0,18.82 -2.82,33.59 -8.46,44.36 -5.65,10.77 -13.88,19.14 -24.7,25.12 -10.77,5.97 -22.58,8.93 -35.32,8.93 -20.51,0 -37.07,-6.53 -49.72,-19.66 -12.65,-13.12 -18.96,-32.03 -18.96,-56.68zm25.4 0.05c0,18.72 4.1,32.74 12.28,42 8.23,9.32 18.53,13.97 31,13.97 12.32,0 22.57,-4.65 30.81,-14.01 8.18,-9.36 12.27,-23.61 12.27,-42.76 0,-18.06 -4.14,-31.75 -12.37,-41.01 -8.23,-9.32 -18.48,-13.97 -30.71,-13.97 -12.47,0 -22.77,4.61 -31,13.87 -8.18,9.27 -12.28,23.24 -12.28,41.91z"/>
   <path id="7" class="fil8" d="M7338.21 22969.18l0 -146.47 22.3 0 0 22.43c5.69,-10.39 10.96,-17.26 15.8,-20.55 4.85,-3.34 10.16,-4.99 15.95,-4.99 8.37,0 16.89,2.64 25.54,7.86l-8.84 22.91c-6.02,-3.39 -12.04,-5.08 -18.06,-5.08 -5.41,0 -10.26,1.64 -14.54,4.89 -4.28,3.24 -7.34,7.76 -9.17,13.54 -2.78,8.8 -4.14,18.44 -4.14,28.93l0 76.53 -24.84 0z"/>
   <circle class="fil9 str6" cx="5462.6" cy="22863.86" r="118.79"/>
   <rect class="fil9 str6" x="5920.53" y="22755.58" width="226.91" height="226.91"/>
   <path class="fil6 str7" d="M5636.5 22862.99l220.31 0"/>
   <path class="fil6 str7" d="M5854.15 22863.65l-64.02 65.38"/>
   <path class="fil6 str7" d="M5854.32 22862.51l-63.42 -61.39"/>
  </g>
 </g>
</svg>
